G75*
G70*
%OFA0B0*%
%FSLAX24Y24*%
%IPPOS*%
%LPD*%
%AMOC8*
5,1,8,0,0,1.08239X$1,22.5*
%
%ADD10OC8,0.0520*%
%ADD11R,0.1560X0.1560*%
%ADD12C,0.1250*%
%ADD13R,0.0236X0.0866*%
%ADD14OC8,0.0660*%
%ADD15C,0.0000*%
%ADD16OC8,0.0560*%
%ADD17C,0.0515*%
%ADD18C,0.0436*%
%ADD19C,0.0620*%
%ADD20C,0.0560*%
%ADD21C,0.0600*%
%ADD22C,0.0060*%
%ADD23C,0.0160*%
D10*
X011687Y004187D03*
X011687Y005187D03*
X011687Y006187D03*
X011687Y008187D03*
X011687Y009187D03*
X011687Y010187D03*
X011687Y012687D03*
X011687Y013687D03*
X011687Y014687D03*
X011687Y016687D03*
X011687Y017687D03*
X011687Y018687D03*
X015187Y017187D03*
X016437Y016187D03*
X016437Y014937D03*
X015187Y014187D03*
X016437Y011937D03*
X016437Y010937D03*
X015187Y008937D03*
X016437Y007937D03*
X016437Y006687D03*
X015187Y005937D03*
X016437Y003687D03*
X016437Y019187D03*
D11*
X003187Y009187D03*
D12*
X003187Y006587D03*
X003187Y011787D03*
D13*
X002937Y014626D03*
X002437Y014626D03*
X001937Y014626D03*
X003437Y014626D03*
X003937Y014626D03*
X004437Y014626D03*
X004937Y014626D03*
X005437Y014626D03*
X005437Y018248D03*
X004937Y018248D03*
X004437Y018248D03*
X003937Y018248D03*
X003437Y018248D03*
X002937Y018248D03*
X002437Y018248D03*
X001937Y018248D03*
D14*
X005537Y020937D03*
X006537Y020937D03*
X007537Y020937D03*
X008537Y020937D03*
X009537Y020937D03*
X010537Y020937D03*
X011537Y020937D03*
X012537Y020937D03*
X014087Y020937D03*
X015087Y020937D03*
X016087Y020937D03*
X017087Y020937D03*
X018087Y020937D03*
X019087Y020937D03*
X020087Y020937D03*
X021087Y020937D03*
X021137Y001937D03*
X020137Y001937D03*
X019137Y001937D03*
X018137Y001937D03*
X017137Y001937D03*
X016137Y001937D03*
X014137Y001937D03*
X013137Y001937D03*
X012137Y001937D03*
X011137Y001937D03*
X010137Y001937D03*
X009137Y001937D03*
D15*
X001937Y000937D02*
X001877Y000939D01*
X001816Y000944D01*
X001757Y000953D01*
X001698Y000966D01*
X001639Y000982D01*
X001582Y001002D01*
X001527Y001025D01*
X001472Y001052D01*
X001420Y001081D01*
X001369Y001114D01*
X001320Y001150D01*
X001274Y001188D01*
X001230Y001230D01*
X001188Y001274D01*
X001150Y001320D01*
X001114Y001369D01*
X001081Y001420D01*
X001052Y001472D01*
X001025Y001527D01*
X001002Y001582D01*
X000982Y001639D01*
X000966Y001698D01*
X000953Y001757D01*
X000944Y001816D01*
X000939Y001877D01*
X000937Y001937D01*
X000937Y020937D01*
X000939Y020997D01*
X000944Y021058D01*
X000953Y021117D01*
X000966Y021176D01*
X000982Y021235D01*
X001002Y021292D01*
X001025Y021347D01*
X001052Y021402D01*
X001081Y021454D01*
X001114Y021505D01*
X001150Y021554D01*
X001188Y021600D01*
X001230Y021644D01*
X001274Y021686D01*
X001320Y021724D01*
X001369Y021760D01*
X001420Y021793D01*
X001472Y021822D01*
X001527Y021849D01*
X001582Y021872D01*
X001639Y021892D01*
X001698Y021908D01*
X001757Y021921D01*
X001816Y021930D01*
X001877Y021935D01*
X001937Y021937D01*
X021602Y021937D01*
X021602Y021938D02*
X021648Y021936D01*
X021694Y021931D01*
X021739Y021922D01*
X021783Y021909D01*
X021826Y021893D01*
X021868Y021874D01*
X021908Y021852D01*
X021946Y021826D01*
X021983Y021798D01*
X022016Y021766D01*
X022048Y021733D01*
X022076Y021696D01*
X022102Y021658D01*
X022124Y021618D01*
X022143Y021576D01*
X022159Y021533D01*
X022172Y021489D01*
X022181Y021444D01*
X022186Y021398D01*
X022188Y021352D01*
X022480Y020644D02*
X022894Y020230D01*
X023187Y019523D02*
X023187Y003687D01*
X023187Y003352D01*
X023187Y003437D02*
X023187Y003687D01*
X023187Y003352D02*
X023185Y003292D01*
X023180Y003231D01*
X023171Y003172D01*
X023158Y003113D01*
X023142Y003055D01*
X023122Y002997D01*
X023099Y002942D01*
X023072Y002887D01*
X023043Y002835D01*
X023010Y002784D01*
X022974Y002735D01*
X022936Y002689D01*
X022894Y002645D01*
X022894Y002644D02*
X022480Y002230D01*
X022438Y002186D01*
X022400Y002140D01*
X022364Y002091D01*
X022331Y002040D01*
X022302Y001988D01*
X022275Y001933D01*
X022252Y001878D01*
X022232Y001820D01*
X022216Y001762D01*
X022203Y001703D01*
X022194Y001644D01*
X022189Y001583D01*
X022187Y001523D01*
X022188Y001523D02*
X022186Y001477D01*
X022181Y001431D01*
X022172Y001386D01*
X022159Y001342D01*
X022143Y001299D01*
X022124Y001257D01*
X022102Y001217D01*
X022076Y001179D01*
X022048Y001142D01*
X022016Y001109D01*
X021983Y001077D01*
X021946Y001049D01*
X021908Y001023D01*
X021868Y001001D01*
X021826Y000982D01*
X021783Y000966D01*
X021739Y000953D01*
X021694Y000944D01*
X021648Y000939D01*
X021602Y000937D01*
X001937Y000937D01*
X023187Y019523D02*
X023185Y019583D01*
X023180Y019644D01*
X023171Y019703D01*
X023158Y019762D01*
X023142Y019820D01*
X023122Y019878D01*
X023099Y019933D01*
X023072Y019988D01*
X023043Y020040D01*
X023010Y020091D01*
X022974Y020140D01*
X022936Y020186D01*
X022894Y020230D01*
X022480Y020645D02*
X022438Y020689D01*
X022400Y020735D01*
X022364Y020784D01*
X022331Y020835D01*
X022302Y020887D01*
X022275Y020942D01*
X022252Y020997D01*
X022232Y021055D01*
X022216Y021113D01*
X022203Y021172D01*
X022194Y021231D01*
X022189Y021292D01*
X022187Y021352D01*
D16*
X007837Y017687D03*
X007937Y015187D03*
X006937Y015187D03*
X007837Y010687D03*
X007937Y008187D03*
X006937Y008187D03*
D17*
X019392Y007937D03*
X019392Y007137D03*
X019392Y006337D03*
X019392Y005537D03*
X020392Y005937D03*
X020392Y006737D03*
X020392Y007537D03*
X020392Y008337D03*
X019392Y014287D03*
X019392Y015087D03*
X019392Y015887D03*
X019392Y016687D03*
X020392Y016287D03*
X020392Y015487D03*
X020392Y014687D03*
X020392Y017087D03*
D18*
X021691Y017317D03*
X022597Y017884D03*
X022597Y014057D03*
X021691Y013490D03*
X022597Y009134D03*
X021691Y008567D03*
X022597Y005307D03*
X021691Y004740D03*
D19*
X020727Y003770D03*
X018522Y004575D03*
X018522Y009300D03*
X020727Y010105D03*
X020727Y012520D03*
X018522Y013325D03*
X018522Y018050D03*
X020727Y018855D03*
D20*
X007037Y017687D03*
X007037Y010687D03*
D21*
X005267Y004577D02*
X004667Y004577D01*
X004667Y002797D02*
X005267Y002797D01*
X002707Y002797D02*
X002107Y002797D01*
X002107Y004577D02*
X002707Y004577D01*
D22*
X002407Y002797D02*
X002437Y002687D01*
X004937Y002687D01*
X004967Y002797D01*
X005187Y002687D01*
X005187Y001937D01*
X009137Y001937D01*
X009687Y002937D02*
X009687Y011437D01*
X007437Y013687D01*
X004937Y013687D01*
X004937Y014626D01*
X004437Y014626D02*
X004437Y013437D01*
X006937Y010937D01*
X006937Y010687D01*
X007037Y010687D01*
X006937Y010687D02*
X006937Y008187D01*
X009937Y011437D02*
X009937Y003187D01*
X019937Y003187D01*
X020937Y002187D01*
X021137Y001937D01*
X020187Y001937D02*
X020137Y001937D01*
X020187Y001937D02*
X019187Y002937D01*
X009687Y002937D01*
X015187Y007937D02*
X015187Y008937D01*
X015187Y009437D01*
X014437Y010187D01*
X014437Y020437D01*
X014937Y020937D01*
X015087Y020937D01*
X017087Y020937D02*
X017187Y020937D01*
X017187Y011687D01*
X016437Y010937D01*
X015187Y007937D02*
X016437Y006687D01*
X019937Y007937D02*
X019937Y013187D01*
X021187Y014437D01*
X021187Y017187D01*
X019937Y018437D01*
X019937Y019937D01*
X019187Y020687D01*
X019187Y020937D01*
X019087Y020937D01*
X018187Y020937D02*
X018187Y020687D01*
X019437Y019437D01*
X019437Y017437D01*
X020187Y016437D01*
X020392Y016287D01*
X016437Y014937D02*
X015187Y016187D01*
X015187Y017187D01*
X018087Y020937D02*
X018187Y020937D01*
X007937Y015937D02*
X007937Y015187D01*
X007937Y015937D02*
X003437Y015937D01*
X003437Y018187D01*
X003437Y018248D01*
X003437Y018187D02*
X002937Y018187D01*
X002937Y018248D01*
X002937Y018187D02*
X002437Y018187D01*
X002437Y018248D01*
X002437Y018187D02*
X001937Y018187D01*
X001937Y018248D01*
X003437Y015937D02*
X003437Y014687D01*
X003437Y014626D01*
X003437Y014687D02*
X003937Y014687D01*
X003937Y014626D01*
X003437Y014687D02*
X002937Y014687D01*
X002937Y014626D01*
X002937Y014687D02*
X002437Y014687D01*
X002437Y014626D01*
X002437Y014687D02*
X001937Y014687D01*
X001937Y014626D01*
X004437Y013437D02*
X003187Y011787D01*
X005437Y013937D02*
X007437Y013937D01*
X009937Y011437D01*
X005437Y013937D02*
X005437Y014626D01*
X019937Y007937D02*
X020187Y007687D01*
X020392Y007537D01*
D23*
X001357Y001357D02*
X001207Y001565D01*
X001127Y001809D01*
X001117Y001937D01*
X001117Y002012D01*
X001117Y020937D01*
X001127Y021066D01*
X001127Y021066D01*
X001207Y021310D01*
X001357Y021517D01*
X001565Y021668D01*
X001809Y021747D01*
X001937Y021757D01*
X021602Y021757D01*
X021681Y021750D01*
X021827Y021689D01*
X021939Y021577D01*
X022000Y021431D01*
X022007Y021351D01*
X022007Y021277D01*
X022007Y021277D01*
X022007Y021196D01*
X022088Y020896D01*
X022243Y020627D01*
X022300Y020570D01*
X022714Y020156D01*
X022714Y020156D01*
X022767Y020103D01*
X022838Y020022D01*
X022945Y019837D01*
X023000Y019630D01*
X023007Y019523D01*
X023007Y003762D01*
X023007Y003351D01*
X023000Y003244D01*
X022945Y003038D01*
X022838Y002852D01*
X022767Y002772D01*
X022725Y002729D01*
X022714Y002719D01*
X022300Y002305D01*
X022300Y002305D01*
X022243Y002248D01*
X022243Y002248D01*
X022088Y001979D01*
X022088Y001979D01*
X022007Y001678D01*
X022007Y001598D01*
X022007Y001527D01*
X022007Y001523D01*
X022000Y001444D01*
X021939Y001298D01*
X021827Y001186D01*
X021681Y001125D01*
X021602Y001117D01*
X021557Y001117D01*
X021527Y001117D01*
X001937Y001117D01*
X001809Y001127D01*
X001565Y001207D01*
X001357Y001357D01*
X001317Y001413D02*
X021987Y001413D01*
X022007Y001523D02*
X022007Y001523D01*
X022007Y001571D02*
X021436Y001571D01*
X021332Y001467D02*
X021607Y001743D01*
X021607Y002132D01*
X021332Y002407D01*
X020958Y002407D01*
X020008Y003357D01*
X019867Y003357D01*
X016673Y003357D01*
X016837Y003522D01*
X016837Y003853D01*
X016603Y004087D01*
X016272Y004087D01*
X016037Y003853D01*
X016037Y003522D01*
X016202Y003357D01*
X010107Y003357D01*
X010107Y011508D01*
X010008Y011607D01*
X010008Y011607D01*
X007508Y014107D01*
X007367Y014107D01*
X005667Y014107D01*
X005695Y014135D01*
X005695Y015117D01*
X005613Y015199D01*
X005261Y015199D01*
X005187Y015125D01*
X005113Y015199D01*
X004761Y015199D01*
X004687Y015125D01*
X004613Y015199D01*
X004261Y015199D01*
X004187Y015125D01*
X004113Y015199D01*
X003761Y015199D01*
X003687Y015125D01*
X003613Y015199D01*
X003607Y015199D01*
X003607Y015767D01*
X007767Y015767D01*
X007767Y015607D01*
X007763Y015607D01*
X007517Y015361D01*
X007517Y015013D01*
X007763Y014767D01*
X008111Y014767D01*
X008357Y015013D01*
X008357Y015361D01*
X008111Y015607D01*
X008107Y015607D01*
X008107Y016008D01*
X008008Y016107D01*
X007867Y016107D01*
X003607Y016107D01*
X003607Y017675D01*
X003613Y017675D01*
X003687Y017749D01*
X003761Y017675D01*
X004113Y017675D01*
X004187Y017749D01*
X004261Y017675D01*
X004613Y017675D01*
X004663Y017725D01*
X004675Y017705D01*
X004709Y017671D01*
X004750Y017648D01*
X004795Y017635D01*
X004937Y017635D01*
X004937Y018248D01*
X004937Y018248D01*
X004937Y017635D01*
X005079Y017635D01*
X005125Y017648D01*
X005166Y017671D01*
X005199Y017705D01*
X005211Y017725D01*
X005261Y017675D01*
X005613Y017675D01*
X005695Y017757D01*
X005695Y018739D01*
X005613Y018821D01*
X005261Y018821D01*
X005211Y018771D01*
X005199Y018792D01*
X005166Y018825D01*
X005125Y018849D01*
X005079Y018861D01*
X004937Y018861D01*
X004795Y018861D01*
X004750Y018849D01*
X004709Y018825D01*
X004675Y018792D01*
X004663Y018771D01*
X004613Y018821D01*
X004261Y018821D01*
X004187Y018747D01*
X004113Y018821D01*
X003761Y018821D01*
X003687Y018747D01*
X003613Y018821D01*
X003261Y018821D01*
X003187Y018747D01*
X003113Y018821D01*
X002761Y018821D01*
X002687Y018747D01*
X002613Y018821D01*
X002261Y018821D01*
X002187Y018747D01*
X002113Y018821D01*
X001761Y018821D01*
X001679Y018739D01*
X001679Y017757D01*
X001761Y017675D01*
X002113Y017675D01*
X002187Y017749D01*
X002261Y017675D01*
X002613Y017675D01*
X002687Y017749D01*
X002761Y017675D01*
X003113Y017675D01*
X003187Y017749D01*
X003261Y017675D01*
X003267Y017675D01*
X003267Y016008D01*
X003267Y015867D01*
X003267Y015199D01*
X003261Y015199D01*
X003187Y015125D01*
X003113Y015199D01*
X002761Y015199D01*
X002687Y015125D01*
X002613Y015199D01*
X002261Y015199D01*
X002187Y015125D01*
X002113Y015199D01*
X001761Y015199D01*
X001679Y015117D01*
X001679Y014135D01*
X001761Y014053D01*
X002113Y014053D01*
X002187Y014127D01*
X002261Y014053D01*
X002613Y014053D01*
X002687Y014127D01*
X002761Y014053D01*
X003113Y014053D01*
X003187Y014127D01*
X003261Y014053D01*
X003613Y014053D01*
X003687Y014127D01*
X003761Y014053D01*
X004113Y014053D01*
X004187Y014127D01*
X004261Y014053D01*
X004267Y014053D01*
X004267Y013508D01*
X004267Y013494D01*
X003502Y012485D01*
X003339Y012552D01*
X003035Y012552D01*
X002754Y012436D01*
X002539Y012221D01*
X002422Y011939D01*
X002422Y011635D01*
X002539Y011354D01*
X002754Y011139D01*
X003035Y011022D01*
X003339Y011022D01*
X003621Y011139D01*
X003836Y011354D01*
X003952Y011635D01*
X003952Y011939D01*
X003836Y012221D01*
X003775Y012281D01*
X004455Y013179D01*
X006695Y010939D01*
X006681Y010925D01*
X006617Y010771D01*
X006617Y010604D01*
X006681Y010449D01*
X006767Y010363D01*
X006767Y008607D01*
X006763Y008607D01*
X006517Y008361D01*
X006517Y008013D01*
X006763Y007767D01*
X007111Y007767D01*
X007357Y008013D01*
X007357Y008361D01*
X007111Y008607D01*
X007107Y008607D01*
X007107Y010267D01*
X007121Y010267D01*
X007275Y010331D01*
X007393Y010449D01*
X007419Y010512D01*
X007663Y010267D01*
X008011Y010267D01*
X008257Y010513D01*
X008257Y010861D01*
X008011Y011107D01*
X007663Y011107D01*
X007419Y010863D01*
X007393Y010925D01*
X007275Y011043D01*
X007121Y011107D01*
X007008Y011107D01*
X004607Y013508D01*
X004607Y014053D01*
X004613Y014053D01*
X004687Y014127D01*
X004761Y014053D01*
X004767Y014053D01*
X004767Y013758D01*
X004767Y013617D01*
X004867Y013517D01*
X007367Y013517D01*
X009517Y011367D01*
X009517Y002867D01*
X009617Y002767D01*
X009758Y002767D01*
X019117Y002767D01*
X019710Y002174D01*
X019667Y002132D01*
X019667Y001743D01*
X019943Y001467D01*
X020332Y001467D01*
X020607Y001743D01*
X020607Y002132D01*
X020332Y002407D01*
X019958Y002407D01*
X019348Y003017D01*
X019867Y003017D01*
X020710Y002174D01*
X020667Y002132D01*
X020667Y001743D01*
X020943Y001467D01*
X021332Y001467D01*
X021595Y001730D02*
X022021Y001730D01*
X022007Y001678D02*
X022007Y001678D01*
X022007Y001598D02*
X022007Y001598D01*
X022064Y001889D02*
X021607Y001889D01*
X021607Y002047D02*
X022127Y002047D01*
X022219Y002206D02*
X021534Y002206D01*
X021375Y002364D02*
X022360Y002364D01*
X022518Y002523D02*
X020842Y002523D01*
X020684Y002681D02*
X022677Y002681D01*
X022827Y002840D02*
X020525Y002840D01*
X020367Y002998D02*
X022922Y002998D01*
X022977Y003157D02*
X020208Y003157D01*
X020050Y003315D02*
X023005Y003315D01*
X023007Y003474D02*
X021067Y003474D01*
X021108Y003515D02*
X021177Y003680D01*
X021177Y003860D01*
X021108Y004025D01*
X020982Y004151D01*
X020816Y004220D01*
X020637Y004220D01*
X020472Y004151D01*
X020345Y004025D01*
X020277Y003860D01*
X020277Y003680D01*
X020345Y003515D01*
X020472Y003388D01*
X020637Y003320D01*
X020816Y003320D01*
X020982Y003388D01*
X021108Y003515D01*
X021157Y003633D02*
X023007Y003633D01*
X023007Y003791D02*
X021177Y003791D01*
X021139Y003950D02*
X023007Y003950D01*
X023007Y004108D02*
X021025Y004108D01*
X021388Y004538D02*
X021488Y004437D01*
X021620Y004382D01*
X021762Y004382D01*
X021894Y004437D01*
X021995Y004538D01*
X022049Y004669D01*
X022049Y004812D01*
X021995Y004943D01*
X021894Y005044D01*
X021762Y005099D01*
X021620Y005099D01*
X021488Y005044D01*
X021388Y004943D01*
X021333Y004812D01*
X021333Y004669D01*
X021388Y004538D01*
X021369Y004584D02*
X018972Y004584D01*
X018972Y004665D02*
X018903Y004830D01*
X018777Y004957D01*
X018611Y005025D01*
X018432Y005025D01*
X018267Y004957D01*
X018140Y004830D01*
X018072Y004665D01*
X018072Y004486D01*
X018140Y004320D01*
X018267Y004194D01*
X018432Y004125D01*
X018611Y004125D01*
X018777Y004194D01*
X018903Y004320D01*
X018972Y004486D01*
X018972Y004665D01*
X018940Y004742D02*
X021333Y004742D01*
X021370Y004901D02*
X018833Y004901D01*
X019167Y005200D02*
X019313Y005140D01*
X019471Y005140D01*
X019617Y005200D01*
X019729Y005312D01*
X019789Y005458D01*
X019789Y005616D01*
X019729Y005762D01*
X019617Y005874D01*
X019471Y005935D01*
X019313Y005935D01*
X019167Y005874D01*
X019055Y005762D01*
X018995Y005616D01*
X018995Y005458D01*
X019055Y005312D01*
X019167Y005200D01*
X019149Y005218D02*
X012087Y005218D01*
X012087Y005353D02*
X011853Y005587D01*
X011522Y005587D01*
X011287Y005353D01*
X011287Y005022D01*
X011522Y004787D01*
X011853Y004787D01*
X012087Y005022D01*
X012087Y005353D01*
X012064Y005377D02*
X019028Y005377D01*
X018995Y005535D02*
X011905Y005535D01*
X011870Y005747D02*
X011687Y005747D01*
X011687Y006187D01*
X011247Y006187D01*
X011247Y006005D01*
X011505Y005747D01*
X011687Y005747D01*
X011687Y006187D01*
X011687Y006187D01*
X011687Y006187D01*
X011247Y006187D01*
X011247Y006370D01*
X011505Y006627D01*
X011687Y006627D01*
X011687Y006188D01*
X011687Y006188D01*
X011687Y006627D01*
X011870Y006627D01*
X012127Y006370D01*
X012127Y006187D01*
X011688Y006187D01*
X011688Y006187D01*
X012127Y006187D01*
X012127Y006005D01*
X011870Y005747D01*
X011974Y005852D02*
X014787Y005852D01*
X014787Y005772D02*
X015022Y005537D01*
X015353Y005537D01*
X015587Y005772D01*
X015587Y006103D01*
X015353Y006337D01*
X015022Y006337D01*
X014787Y006103D01*
X014787Y005772D01*
X014865Y005694D02*
X010107Y005694D01*
X010107Y005852D02*
X011400Y005852D01*
X011247Y006011D02*
X010107Y006011D01*
X010107Y006169D02*
X011247Y006169D01*
X011247Y006328D02*
X010107Y006328D01*
X010107Y006486D02*
X011364Y006486D01*
X011687Y006486D02*
X011687Y006486D01*
X011687Y006328D02*
X011687Y006328D01*
X011687Y006169D02*
X011687Y006169D01*
X011687Y006011D02*
X011687Y006011D01*
X011687Y005852D02*
X011687Y005852D01*
X011469Y005535D02*
X010107Y005535D01*
X010107Y005377D02*
X011311Y005377D01*
X011287Y005218D02*
X010107Y005218D01*
X010107Y005059D02*
X011287Y005059D01*
X011408Y004901D02*
X010107Y004901D01*
X010107Y004742D02*
X018104Y004742D01*
X018072Y004584D02*
X011856Y004584D01*
X011853Y004587D02*
X011522Y004587D01*
X011287Y004353D01*
X011287Y004022D01*
X011522Y003787D01*
X011853Y003787D01*
X012087Y004022D01*
X012087Y004353D01*
X011853Y004587D01*
X012015Y004425D02*
X018097Y004425D01*
X018194Y004267D02*
X012087Y004267D01*
X012087Y004108D02*
X020428Y004108D01*
X020314Y003950D02*
X016741Y003950D01*
X016837Y003791D02*
X020277Y003791D01*
X020296Y003633D02*
X016837Y003633D01*
X016790Y003474D02*
X020386Y003474D01*
X019886Y002998D02*
X019367Y002998D01*
X019525Y002840D02*
X020044Y002840D01*
X020203Y002681D02*
X019684Y002681D01*
X019842Y002523D02*
X020361Y002523D01*
X020375Y002364D02*
X020520Y002364D01*
X020534Y002206D02*
X020679Y002206D01*
X020667Y002047D02*
X020607Y002047D01*
X020607Y001889D02*
X020667Y001889D01*
X020680Y001730D02*
X020595Y001730D01*
X020436Y001571D02*
X020838Y001571D01*
X019838Y001571D02*
X019436Y001571D01*
X019332Y001467D02*
X019607Y001743D01*
X019607Y002132D01*
X019332Y002407D01*
X018943Y002407D01*
X018667Y002132D01*
X018667Y001743D01*
X018943Y001467D01*
X019332Y001467D01*
X019595Y001730D02*
X019680Y001730D01*
X019667Y001889D02*
X019607Y001889D01*
X019607Y002047D02*
X019667Y002047D01*
X019679Y002206D02*
X019534Y002206D01*
X019520Y002364D02*
X019375Y002364D01*
X019361Y002523D02*
X005615Y002523D01*
X005640Y002548D02*
X005707Y002710D01*
X005707Y002885D01*
X005640Y003047D01*
X005517Y003170D01*
X005355Y003237D01*
X004580Y003237D01*
X004418Y003170D01*
X004294Y003047D01*
X004227Y002885D01*
X004227Y002857D01*
X003147Y002857D01*
X003147Y002885D01*
X003080Y003047D01*
X002957Y003170D01*
X002795Y003237D01*
X002020Y003237D01*
X001858Y003170D01*
X001734Y003047D01*
X001667Y002885D01*
X001667Y002710D01*
X001734Y002548D01*
X001858Y002424D01*
X002020Y002357D01*
X002795Y002357D01*
X002957Y002424D01*
X003050Y002517D01*
X004325Y002517D01*
X004418Y002424D01*
X004580Y002357D01*
X005017Y002357D01*
X005017Y001867D01*
X005117Y001767D01*
X005258Y001767D01*
X008667Y001767D01*
X008667Y001743D01*
X008943Y001467D01*
X009332Y001467D01*
X009607Y001743D01*
X009607Y002132D01*
X009332Y002407D01*
X008943Y002407D01*
X008667Y002132D01*
X008667Y002107D01*
X005357Y002107D01*
X005357Y002358D01*
X005517Y002424D01*
X005640Y002548D01*
X005695Y002681D02*
X019203Y002681D01*
X018900Y002364D02*
X018375Y002364D01*
X018332Y002407D02*
X017943Y002407D01*
X017667Y002132D01*
X017667Y001743D01*
X017943Y001467D01*
X018332Y001467D01*
X018607Y001743D01*
X018607Y002132D01*
X018332Y002407D01*
X018534Y002206D02*
X018741Y002206D01*
X018667Y002047D02*
X018607Y002047D01*
X018607Y001889D02*
X018667Y001889D01*
X018680Y001730D02*
X018595Y001730D01*
X018436Y001571D02*
X018838Y001571D01*
X017838Y001571D02*
X017436Y001571D01*
X017332Y001467D02*
X017607Y001743D01*
X017607Y002132D01*
X017332Y002407D01*
X016943Y002407D01*
X016667Y002132D01*
X016667Y001743D01*
X016943Y001467D01*
X017332Y001467D01*
X017595Y001730D02*
X017680Y001730D01*
X017667Y001889D02*
X017607Y001889D01*
X017607Y002047D02*
X017667Y002047D01*
X017741Y002206D02*
X017534Y002206D01*
X017375Y002364D02*
X017900Y002364D01*
X016900Y002364D02*
X016375Y002364D01*
X016332Y002407D02*
X015943Y002407D01*
X015667Y002132D01*
X015667Y001743D01*
X015943Y001467D01*
X016332Y001467D01*
X016607Y001743D01*
X016607Y002132D01*
X016332Y002407D01*
X016534Y002206D02*
X016741Y002206D01*
X016667Y002047D02*
X016607Y002047D01*
X016607Y001889D02*
X016667Y001889D01*
X016680Y001730D02*
X016595Y001730D01*
X016436Y001571D02*
X016838Y001571D01*
X015900Y002364D02*
X014375Y002364D01*
X014332Y002407D02*
X013943Y002407D01*
X013667Y002132D01*
X013667Y001743D01*
X013943Y001467D01*
X014332Y001467D01*
X014607Y001743D01*
X014607Y002132D01*
X014332Y002407D01*
X014534Y002206D02*
X015741Y002206D01*
X015667Y002047D02*
X014607Y002047D01*
X014607Y001889D02*
X015667Y001889D01*
X015680Y001730D02*
X014595Y001730D01*
X014436Y001571D02*
X015838Y001571D01*
X013900Y002364D02*
X013375Y002364D01*
X013332Y002407D02*
X012943Y002407D01*
X012667Y002132D01*
X012667Y001743D01*
X012943Y001467D01*
X013332Y001467D01*
X013607Y001743D01*
X013607Y002132D01*
X013332Y002407D01*
X013534Y002206D02*
X013741Y002206D01*
X013667Y002047D02*
X013607Y002047D01*
X013607Y001889D02*
X013667Y001889D01*
X013680Y001730D02*
X013595Y001730D01*
X013436Y001571D02*
X013838Y001571D01*
X012838Y001571D02*
X012436Y001571D01*
X012332Y001467D02*
X012607Y001743D01*
X012607Y002132D01*
X012332Y002407D01*
X011943Y002407D01*
X011667Y002132D01*
X011667Y001743D01*
X011943Y001467D01*
X012332Y001467D01*
X012595Y001730D02*
X012680Y001730D01*
X012667Y001889D02*
X012607Y001889D01*
X012607Y002047D02*
X012667Y002047D01*
X012741Y002206D02*
X012534Y002206D01*
X012375Y002364D02*
X012900Y002364D01*
X011900Y002364D02*
X011432Y002364D01*
X011349Y002447D02*
X011156Y002447D01*
X011156Y001956D01*
X011647Y001956D01*
X011647Y002149D01*
X011349Y002447D01*
X011156Y002364D02*
X011119Y002364D01*
X011119Y002447D02*
X010926Y002447D01*
X010627Y002149D01*
X010627Y001956D01*
X011119Y001956D01*
X011119Y002447D01*
X011119Y002206D02*
X011156Y002206D01*
X011156Y002047D02*
X011119Y002047D01*
X011119Y001956D02*
X011156Y001956D01*
X011156Y001919D01*
X011647Y001919D01*
X011647Y001726D01*
X011349Y001427D01*
X011156Y001427D01*
X011156Y001919D01*
X011119Y001919D01*
X011119Y001427D01*
X010926Y001427D01*
X010627Y001726D01*
X010627Y001919D01*
X011119Y001919D01*
X011119Y001956D01*
X011119Y001889D02*
X011156Y001889D01*
X011156Y001730D02*
X011119Y001730D01*
X011119Y001571D02*
X011156Y001571D01*
X010782Y001571D02*
X010436Y001571D01*
X010332Y001467D02*
X010607Y001743D01*
X010607Y002132D01*
X010332Y002407D01*
X009943Y002407D01*
X009667Y002132D01*
X009667Y001743D01*
X009943Y001467D01*
X010332Y001467D01*
X010595Y001730D02*
X010627Y001730D01*
X010627Y001889D02*
X010607Y001889D01*
X010607Y002047D02*
X010627Y002047D01*
X010684Y002206D02*
X010534Y002206D01*
X010375Y002364D02*
X010843Y002364D01*
X011590Y002206D02*
X011741Y002206D01*
X011667Y002047D02*
X011647Y002047D01*
X011647Y001889D02*
X011667Y001889D01*
X011680Y001730D02*
X011647Y001730D01*
X011493Y001571D02*
X011838Y001571D01*
X009838Y001571D02*
X009436Y001571D01*
X009595Y001730D02*
X009680Y001730D01*
X009667Y001889D02*
X009607Y001889D01*
X009607Y002047D02*
X009667Y002047D01*
X009741Y002206D02*
X009534Y002206D01*
X009375Y002364D02*
X009900Y002364D01*
X009544Y002840D02*
X005707Y002840D01*
X005660Y002998D02*
X009517Y002998D01*
X009517Y003157D02*
X005530Y003157D01*
X005371Y002364D02*
X008900Y002364D01*
X008741Y002206D02*
X005357Y002206D01*
X005017Y002206D02*
X001117Y002206D01*
X001117Y002364D02*
X002003Y002364D01*
X001760Y002523D02*
X001117Y002523D01*
X001117Y002681D02*
X001679Y002681D01*
X001667Y002840D02*
X001117Y002840D01*
X001117Y002998D02*
X001714Y002998D01*
X001845Y003157D02*
X001117Y003157D01*
X001117Y003315D02*
X009517Y003315D01*
X009517Y003474D02*
X001117Y003474D01*
X001117Y003633D02*
X009517Y003633D01*
X009517Y003791D02*
X001117Y003791D01*
X001117Y003950D02*
X009517Y003950D01*
X009517Y004108D02*
X001117Y004108D01*
X001117Y004267D02*
X001796Y004267D01*
X001734Y004328D02*
X001858Y004204D01*
X002020Y004137D01*
X002795Y004137D01*
X002957Y004204D01*
X003080Y004328D01*
X003147Y004490D01*
X003147Y004665D01*
X003080Y004827D01*
X002957Y004950D01*
X002795Y005017D01*
X002020Y005017D01*
X001858Y004950D01*
X001734Y004827D01*
X001667Y004665D01*
X001667Y004490D01*
X001734Y004328D01*
X001694Y004425D02*
X001117Y004425D01*
X001117Y004584D02*
X001667Y004584D01*
X001699Y004742D02*
X001117Y004742D01*
X001117Y004901D02*
X001809Y004901D01*
X001117Y005059D02*
X009517Y005059D01*
X009517Y004901D02*
X005566Y004901D01*
X005517Y004950D02*
X005355Y005017D01*
X004580Y005017D01*
X004418Y004950D01*
X004294Y004827D01*
X004227Y004665D01*
X004227Y004490D01*
X004294Y004328D01*
X004418Y004204D01*
X004580Y004137D01*
X005355Y004137D01*
X005517Y004204D01*
X005640Y004328D01*
X005707Y004490D01*
X005707Y004665D01*
X005640Y004827D01*
X005517Y004950D01*
X005675Y004742D02*
X009517Y004742D01*
X009517Y004584D02*
X005707Y004584D01*
X005681Y004425D02*
X009517Y004425D01*
X009517Y004267D02*
X005579Y004267D01*
X004356Y004267D02*
X003019Y004267D01*
X003121Y004425D02*
X004254Y004425D01*
X004227Y004584D02*
X003147Y004584D01*
X003115Y004742D02*
X004259Y004742D01*
X004369Y004901D02*
X003006Y004901D01*
X003035Y005822D02*
X003339Y005822D01*
X003621Y005939D01*
X003836Y006154D01*
X003952Y006435D01*
X003952Y006739D01*
X003836Y007021D01*
X003621Y007236D01*
X003339Y007352D01*
X003035Y007352D01*
X002754Y007236D01*
X002539Y007021D01*
X002422Y006739D01*
X002422Y006435D01*
X002539Y006154D01*
X002754Y005939D01*
X003035Y005822D01*
X002963Y005852D02*
X001117Y005852D01*
X001117Y005694D02*
X009517Y005694D01*
X009517Y005852D02*
X003411Y005852D01*
X003693Y006011D02*
X009517Y006011D01*
X009517Y006169D02*
X003842Y006169D01*
X003908Y006328D02*
X009517Y006328D01*
X009517Y006486D02*
X003952Y006486D01*
X003952Y006645D02*
X009517Y006645D01*
X009517Y006803D02*
X003926Y006803D01*
X003860Y006962D02*
X009517Y006962D01*
X009517Y007121D02*
X003736Y007121D01*
X003516Y007279D02*
X009517Y007279D01*
X009517Y007438D02*
X001117Y007438D01*
X001117Y007596D02*
X009517Y007596D01*
X009517Y007755D02*
X001117Y007755D01*
X001117Y007913D02*
X006617Y007913D01*
X006517Y008072D02*
X001117Y008072D01*
X001117Y008230D02*
X006517Y008230D01*
X006545Y008389D02*
X004107Y008389D01*
X004107Y008349D02*
X004107Y010025D01*
X004025Y010107D01*
X002349Y010107D01*
X002267Y010025D01*
X002267Y008349D01*
X002349Y008267D01*
X004025Y008267D01*
X004107Y008349D01*
X004107Y008547D02*
X006703Y008547D01*
X006767Y008706D02*
X004107Y008706D01*
X004107Y008864D02*
X006767Y008864D01*
X006767Y009023D02*
X004107Y009023D01*
X004107Y009182D02*
X006767Y009182D01*
X006767Y009340D02*
X004107Y009340D01*
X004107Y009499D02*
X006767Y009499D01*
X006767Y009657D02*
X004107Y009657D01*
X004107Y009816D02*
X006767Y009816D01*
X006767Y009974D02*
X004107Y009974D01*
X003489Y011084D02*
X006550Y011084D01*
X006682Y010926D02*
X001117Y010926D01*
X001117Y011084D02*
X002886Y011084D01*
X002650Y011243D02*
X001117Y011243D01*
X001117Y011401D02*
X002519Y011401D01*
X002454Y011560D02*
X001117Y011560D01*
X001117Y011718D02*
X002422Y011718D01*
X002422Y011877D02*
X001117Y011877D01*
X001117Y012035D02*
X002462Y012035D01*
X002528Y012194D02*
X001117Y012194D01*
X001117Y012352D02*
X002671Y012352D01*
X002935Y012511D02*
X001117Y012511D01*
X001117Y012670D02*
X003642Y012670D01*
X003763Y012828D02*
X001117Y012828D01*
X001117Y012987D02*
X003883Y012987D01*
X004003Y013145D02*
X001117Y013145D01*
X001117Y013304D02*
X004123Y013304D01*
X004243Y013462D02*
X001117Y013462D01*
X001117Y013621D02*
X004267Y013621D01*
X004267Y013779D02*
X001117Y013779D01*
X001117Y013938D02*
X004267Y013938D01*
X004218Y014096D02*
X004157Y014096D01*
X004607Y013938D02*
X004767Y013938D01*
X004767Y013779D02*
X004607Y013779D01*
X004607Y013621D02*
X004767Y013621D01*
X004653Y013462D02*
X007422Y013462D01*
X007581Y013304D02*
X004811Y013304D01*
X004970Y013145D02*
X007739Y013145D01*
X007898Y012987D02*
X005128Y012987D01*
X005287Y012828D02*
X008056Y012828D01*
X008215Y012670D02*
X005445Y012670D01*
X005604Y012511D02*
X008373Y012511D01*
X008532Y012352D02*
X005763Y012352D01*
X005921Y012194D02*
X008690Y012194D01*
X008849Y012035D02*
X006080Y012035D01*
X006238Y011877D02*
X009007Y011877D01*
X009166Y011718D02*
X006397Y011718D01*
X006555Y011560D02*
X009324Y011560D01*
X009483Y011401D02*
X006714Y011401D01*
X006872Y011243D02*
X009517Y011243D01*
X009517Y011084D02*
X008034Y011084D01*
X008193Y010926D02*
X009517Y010926D01*
X009517Y010767D02*
X008257Y010767D01*
X008257Y010608D02*
X009517Y010608D01*
X009517Y010450D02*
X008194Y010450D01*
X008035Y010291D02*
X009517Y010291D01*
X009517Y010133D02*
X007107Y010133D01*
X007107Y009974D02*
X009517Y009974D01*
X009517Y009816D02*
X007107Y009816D01*
X007107Y009657D02*
X009517Y009657D01*
X009517Y009499D02*
X007107Y009499D01*
X007107Y009340D02*
X009517Y009340D01*
X009517Y009182D02*
X007107Y009182D01*
X007107Y009023D02*
X009517Y009023D01*
X009517Y008864D02*
X007107Y008864D01*
X007107Y008706D02*
X009517Y008706D01*
X009517Y008547D02*
X008171Y008547D01*
X008111Y008607D02*
X007763Y008607D01*
X007517Y008361D01*
X007517Y008013D01*
X007763Y007767D01*
X008111Y007767D01*
X008357Y008013D01*
X008357Y008361D01*
X008111Y008607D01*
X008330Y008389D02*
X009517Y008389D01*
X009517Y008230D02*
X008357Y008230D01*
X008357Y008072D02*
X009517Y008072D01*
X009517Y007913D02*
X008257Y007913D01*
X007617Y007913D02*
X007257Y007913D01*
X007357Y008072D02*
X007517Y008072D01*
X007517Y008230D02*
X007357Y008230D01*
X007330Y008389D02*
X007545Y008389D01*
X007703Y008547D02*
X007171Y008547D01*
X006767Y010133D02*
X001117Y010133D01*
X001117Y010291D02*
X006767Y010291D01*
X006681Y010450D02*
X001117Y010450D01*
X001117Y010608D02*
X006617Y010608D01*
X006617Y010767D02*
X001117Y010767D01*
X001117Y009974D02*
X002267Y009974D01*
X002267Y009816D02*
X001117Y009816D01*
X001117Y009657D02*
X002267Y009657D01*
X002267Y009499D02*
X001117Y009499D01*
X001117Y009340D02*
X002267Y009340D01*
X002267Y009182D02*
X001117Y009182D01*
X001117Y009023D02*
X002267Y009023D01*
X002267Y008864D02*
X001117Y008864D01*
X001117Y008706D02*
X002267Y008706D01*
X002267Y008547D02*
X001117Y008547D01*
X001117Y008389D02*
X002267Y008389D01*
X002858Y007279D02*
X001117Y007279D01*
X001117Y007121D02*
X002639Y007121D01*
X002514Y006962D02*
X001117Y006962D01*
X001117Y006803D02*
X002449Y006803D01*
X002422Y006645D02*
X001117Y006645D01*
X001117Y006486D02*
X002422Y006486D01*
X002467Y006328D02*
X001117Y006328D01*
X001117Y006169D02*
X002532Y006169D01*
X002682Y006011D02*
X001117Y006011D01*
X001117Y005535D02*
X009517Y005535D01*
X009517Y005377D02*
X001117Y005377D01*
X001117Y005218D02*
X009517Y005218D01*
X010107Y004584D02*
X011518Y004584D01*
X011360Y004425D02*
X010107Y004425D01*
X010107Y004267D02*
X011287Y004267D01*
X011287Y004108D02*
X010107Y004108D01*
X010107Y003950D02*
X011359Y003950D01*
X011518Y003791D02*
X010107Y003791D01*
X010107Y003633D02*
X016037Y003633D01*
X016037Y003791D02*
X011857Y003791D01*
X012015Y003950D02*
X016134Y003950D01*
X016085Y003474D02*
X010107Y003474D01*
X008680Y001730D02*
X001153Y001730D01*
X001121Y001889D02*
X005017Y001889D01*
X005017Y002047D02*
X001117Y002047D01*
X001205Y001571D02*
X008838Y001571D01*
X011967Y004901D02*
X018211Y004901D01*
X018947Y004425D02*
X021516Y004425D01*
X021866Y004425D02*
X023007Y004425D01*
X023007Y004267D02*
X018850Y004267D01*
X019635Y005218D02*
X022246Y005218D01*
X022239Y005236D02*
X022293Y005105D01*
X022394Y005004D01*
X022526Y004949D01*
X022668Y004949D01*
X022800Y005004D01*
X022900Y005105D01*
X022955Y005236D01*
X022955Y005379D01*
X022900Y005510D01*
X022800Y005611D01*
X022668Y005665D01*
X022526Y005665D01*
X022394Y005611D01*
X022293Y005510D01*
X022239Y005379D01*
X022239Y005236D01*
X022239Y005377D02*
X019756Y005377D01*
X019789Y005535D02*
X020218Y005535D01*
X020224Y005532D02*
X020290Y005511D01*
X020358Y005500D01*
X020392Y005500D01*
X020426Y005500D01*
X020494Y005511D01*
X020560Y005532D01*
X020621Y005563D01*
X020677Y005604D01*
X020726Y005652D01*
X020766Y005708D01*
X020797Y005769D01*
X020819Y005835D01*
X020829Y005903D01*
X020829Y005937D01*
X020392Y005937D01*
X020392Y005500D01*
X020392Y005937D01*
X020392Y005937D01*
X019955Y005937D01*
X019955Y005903D01*
X019965Y005835D01*
X019987Y005769D01*
X020018Y005708D01*
X020058Y005652D01*
X020107Y005604D01*
X020163Y005563D01*
X020224Y005532D01*
X020392Y005535D02*
X020392Y005535D01*
X020392Y005694D02*
X020392Y005694D01*
X020392Y005852D02*
X020392Y005852D01*
X020392Y005937D02*
X020392Y005937D01*
X020392Y005937D01*
X019955Y005937D01*
X019955Y005972D01*
X019965Y006040D01*
X019987Y006105D01*
X020018Y006167D01*
X020058Y006222D01*
X020107Y006271D01*
X020163Y006311D01*
X020224Y006343D01*
X020270Y006358D01*
X020167Y006400D01*
X020055Y006512D01*
X019995Y006658D01*
X019995Y006816D01*
X020055Y006962D01*
X019750Y006962D01*
X019729Y006912D02*
X019789Y007058D01*
X019789Y007216D01*
X019729Y007362D01*
X019617Y007474D01*
X019471Y007535D01*
X019313Y007535D01*
X019167Y007474D01*
X019055Y007362D01*
X018995Y007216D01*
X018995Y007058D01*
X019055Y006912D01*
X019167Y006800D01*
X019313Y006740D01*
X019471Y006740D01*
X019617Y006800D01*
X019729Y006912D01*
X019620Y006803D02*
X019995Y006803D01*
X020000Y006645D02*
X019647Y006645D01*
X019617Y006674D02*
X019471Y006735D01*
X019313Y006735D01*
X019167Y006674D01*
X019055Y006562D01*
X018995Y006416D01*
X018995Y006258D01*
X019055Y006112D01*
X019167Y006000D01*
X019313Y005940D01*
X019471Y005940D01*
X019617Y006000D01*
X019729Y006112D01*
X019789Y006258D01*
X019789Y006416D01*
X019729Y006562D01*
X019617Y006674D01*
X019761Y006486D02*
X020081Y006486D01*
X020195Y006328D02*
X019789Y006328D01*
X019753Y006169D02*
X020020Y006169D01*
X019961Y006011D02*
X019628Y006011D01*
X019639Y005852D02*
X019963Y005852D01*
X020028Y005694D02*
X019758Y005694D01*
X020392Y005937D02*
X020829Y005937D01*
X020829Y005972D01*
X020819Y006040D01*
X020797Y006105D01*
X020766Y006167D01*
X020726Y006222D01*
X020677Y006271D01*
X020621Y006311D01*
X020560Y006343D01*
X020514Y006358D01*
X020617Y006400D01*
X020729Y006512D01*
X020789Y006658D01*
X020789Y006816D01*
X020729Y006962D01*
X023007Y006962D01*
X023007Y007121D02*
X020506Y007121D01*
X020471Y007135D02*
X020313Y007135D01*
X020167Y007074D01*
X020055Y006962D01*
X020167Y007200D02*
X020313Y007140D01*
X020471Y007140D01*
X020617Y007200D01*
X020729Y007312D01*
X020789Y007458D01*
X020789Y007616D01*
X020729Y007762D01*
X020617Y007874D01*
X020471Y007935D01*
X020313Y007935D01*
X020219Y007896D01*
X020107Y008008D01*
X020107Y008060D01*
X020167Y008000D01*
X020313Y007940D01*
X020471Y007940D01*
X020617Y008000D01*
X020729Y008112D01*
X020789Y008258D01*
X020789Y008416D01*
X020729Y008562D01*
X020617Y008674D01*
X020471Y008735D01*
X020313Y008735D01*
X020167Y008674D01*
X020107Y008615D01*
X020107Y013117D01*
X021258Y014267D01*
X021357Y014367D01*
X021357Y017117D01*
X021357Y017188D01*
X021388Y017114D01*
X021488Y017014D01*
X021620Y016959D01*
X021762Y016959D01*
X021894Y017014D01*
X021995Y017114D01*
X022049Y017246D01*
X022049Y017388D01*
X021995Y017520D01*
X021894Y017621D01*
X021762Y017675D01*
X021620Y017675D01*
X021488Y017621D01*
X021388Y017520D01*
X021333Y017388D01*
X021333Y017282D01*
X020107Y018508D01*
X020107Y019867D01*
X020107Y020008D01*
X019465Y020650D01*
X019557Y020743D01*
X019557Y021132D01*
X019282Y021407D01*
X018893Y021407D01*
X018617Y021132D01*
X018617Y020743D01*
X018893Y020467D01*
X019167Y020467D01*
X019767Y019867D01*
X019767Y018367D01*
X019867Y018267D01*
X021017Y017117D01*
X021017Y014508D01*
X019767Y013258D01*
X019767Y013117D01*
X019767Y008070D01*
X019729Y008162D01*
X019617Y008274D01*
X019471Y008335D01*
X019313Y008335D01*
X019167Y008274D01*
X019055Y008162D01*
X018995Y008016D01*
X018995Y007858D01*
X019055Y007712D01*
X019167Y007600D01*
X019313Y007540D01*
X019471Y007540D01*
X019617Y007600D01*
X019729Y007712D01*
X019786Y007849D01*
X019867Y007767D01*
X020001Y007633D01*
X019995Y007616D01*
X019995Y007458D01*
X020055Y007312D01*
X020167Y007200D01*
X020088Y007279D02*
X019764Y007279D01*
X019789Y007121D02*
X020279Y007121D01*
X020471Y007135D02*
X020617Y007074D01*
X020729Y006962D01*
X020789Y006803D02*
X023007Y006803D01*
X023007Y006645D02*
X020784Y006645D01*
X020703Y006486D02*
X023007Y006486D01*
X023007Y006328D02*
X020589Y006328D01*
X020764Y006169D02*
X023007Y006169D01*
X023007Y006011D02*
X020823Y006011D01*
X020821Y005852D02*
X023007Y005852D01*
X023007Y005694D02*
X020756Y005694D01*
X020566Y005535D02*
X022318Y005535D01*
X022338Y005059D02*
X021857Y005059D01*
X022012Y004901D02*
X023007Y004901D01*
X023007Y005059D02*
X022855Y005059D01*
X022947Y005218D02*
X023007Y005218D01*
X023007Y005377D02*
X022955Y005377D01*
X023007Y005535D02*
X022875Y005535D01*
X023007Y004742D02*
X022049Y004742D01*
X022014Y004584D02*
X023007Y004584D01*
X021526Y005059D02*
X012087Y005059D01*
X012127Y006011D02*
X014787Y006011D01*
X014854Y006169D02*
X012127Y006169D01*
X012127Y006328D02*
X015012Y006328D01*
X015362Y006328D02*
X016231Y006328D01*
X016272Y006287D02*
X016603Y006287D01*
X016837Y006522D01*
X016837Y006853D01*
X016603Y007087D01*
X016278Y007087D01*
X015357Y008008D01*
X015357Y008542D01*
X015587Y008772D01*
X015587Y009103D01*
X015357Y009333D01*
X015357Y009508D01*
X015258Y009607D01*
X014607Y010258D01*
X014607Y020367D01*
X014800Y020560D01*
X014893Y020467D01*
X015282Y020467D01*
X015557Y020743D01*
X015557Y021132D01*
X015282Y021407D01*
X014893Y021407D01*
X014617Y021132D01*
X014617Y020858D01*
X014557Y020798D01*
X014557Y021132D01*
X014282Y021407D01*
X013893Y021407D01*
X013617Y021132D01*
X013617Y020743D01*
X013893Y020467D01*
X014267Y020467D01*
X014267Y010258D01*
X014267Y010117D01*
X015017Y009367D01*
X015017Y009333D01*
X014787Y009103D01*
X014787Y008772D01*
X015017Y008542D01*
X015017Y007867D01*
X015117Y007767D01*
X016037Y006847D01*
X016037Y006522D01*
X016272Y006287D01*
X016073Y006486D02*
X012010Y006486D01*
X011853Y007787D02*
X011522Y007787D01*
X011287Y008022D01*
X011287Y008353D01*
X011522Y008587D01*
X011853Y008587D01*
X012087Y008353D01*
X012087Y008022D01*
X011853Y007787D01*
X011979Y007913D02*
X015017Y007913D01*
X015017Y008072D02*
X012087Y008072D01*
X012087Y008230D02*
X015017Y008230D01*
X015017Y008389D02*
X012051Y008389D01*
X011893Y008547D02*
X015012Y008547D01*
X014853Y008706D02*
X010107Y008706D01*
X010107Y008864D02*
X011444Y008864D01*
X011522Y008787D02*
X011287Y009022D01*
X011287Y009353D01*
X011522Y009587D01*
X011853Y009587D01*
X012087Y009353D01*
X012087Y009022D01*
X011853Y008787D01*
X011522Y008787D01*
X011482Y008547D02*
X010107Y008547D01*
X010107Y008389D02*
X011323Y008389D01*
X011287Y008230D02*
X010107Y008230D01*
X010107Y008072D02*
X011287Y008072D01*
X011396Y007913D02*
X010107Y007913D01*
X010107Y007755D02*
X015130Y007755D01*
X015117Y007767D02*
X015117Y007767D01*
X015288Y007596D02*
X010107Y007596D01*
X010107Y007438D02*
X015447Y007438D01*
X015605Y007279D02*
X010107Y007279D01*
X010107Y007121D02*
X015764Y007121D01*
X015922Y006962D02*
X010107Y006962D01*
X010107Y006803D02*
X016037Y006803D01*
X016037Y006645D02*
X010107Y006645D01*
X010107Y009023D02*
X011287Y009023D01*
X011287Y009182D02*
X010107Y009182D01*
X010107Y009340D02*
X011287Y009340D01*
X011433Y009499D02*
X010107Y009499D01*
X010107Y009657D02*
X014727Y009657D01*
X014886Y009499D02*
X011942Y009499D01*
X012087Y009340D02*
X015017Y009340D01*
X014866Y009182D02*
X012087Y009182D01*
X012087Y009023D02*
X014787Y009023D01*
X014787Y008864D02*
X011930Y008864D01*
X011870Y009747D02*
X011687Y009747D01*
X011687Y010187D01*
X011247Y010187D01*
X011247Y010005D01*
X011505Y009747D01*
X011687Y009747D01*
X011687Y010187D01*
X011687Y010187D01*
X011687Y010187D01*
X011247Y010187D01*
X011247Y010370D01*
X011505Y010627D01*
X011687Y010627D01*
X011687Y010188D01*
X011687Y010188D01*
X011687Y010627D01*
X011870Y010627D01*
X012127Y010370D01*
X012127Y010187D01*
X011688Y010187D01*
X011688Y010187D01*
X012127Y010187D01*
X012127Y010005D01*
X011870Y009747D01*
X011938Y009816D02*
X014568Y009816D01*
X014410Y009974D02*
X012096Y009974D01*
X012127Y010133D02*
X014267Y010133D01*
X014267Y010291D02*
X012127Y010291D01*
X012047Y010450D02*
X014267Y010450D01*
X014267Y010608D02*
X011888Y010608D01*
X011687Y010608D02*
X011687Y010608D01*
X011687Y010450D02*
X011687Y010450D01*
X011687Y010291D02*
X011687Y010291D01*
X011687Y010133D02*
X011687Y010133D01*
X011687Y009974D02*
X011687Y009974D01*
X011687Y009816D02*
X011687Y009816D01*
X011437Y009816D02*
X010107Y009816D01*
X010107Y009974D02*
X011278Y009974D01*
X011247Y010133D02*
X010107Y010133D01*
X010107Y010291D02*
X011247Y010291D01*
X011328Y010450D02*
X010107Y010450D01*
X010107Y010608D02*
X011486Y010608D01*
X010107Y010767D02*
X014267Y010767D01*
X014267Y010926D02*
X010107Y010926D01*
X010107Y011084D02*
X014267Y011084D01*
X014267Y011243D02*
X010107Y011243D01*
X010107Y011401D02*
X014267Y011401D01*
X014267Y011560D02*
X010055Y011560D01*
X009897Y011718D02*
X014267Y011718D01*
X014267Y011877D02*
X009738Y011877D01*
X009580Y012035D02*
X014267Y012035D01*
X014267Y012194D02*
X009421Y012194D01*
X009263Y012352D02*
X011457Y012352D01*
X011522Y012287D02*
X011853Y012287D01*
X012087Y012522D01*
X012087Y012853D01*
X011853Y013087D01*
X011522Y013087D01*
X011287Y012853D01*
X011287Y012522D01*
X011522Y012287D01*
X011298Y012511D02*
X009104Y012511D01*
X008945Y012670D02*
X011287Y012670D01*
X011287Y012828D02*
X008787Y012828D01*
X008628Y012987D02*
X011421Y012987D01*
X011522Y013287D02*
X011853Y013287D01*
X012087Y013522D01*
X012087Y013853D01*
X011853Y014087D01*
X011522Y014087D01*
X011287Y013853D01*
X011287Y013522D01*
X011522Y013287D01*
X011505Y013304D02*
X008311Y013304D01*
X008153Y013462D02*
X011347Y013462D01*
X011287Y013621D02*
X007994Y013621D01*
X007836Y013779D02*
X011287Y013779D01*
X011372Y013938D02*
X007677Y013938D01*
X007519Y014096D02*
X014267Y014096D01*
X014267Y013938D02*
X012002Y013938D01*
X012087Y013779D02*
X014267Y013779D01*
X014267Y013621D02*
X012087Y013621D01*
X012028Y013462D02*
X014267Y013462D01*
X014267Y013304D02*
X011869Y013304D01*
X011954Y012987D02*
X014267Y012987D01*
X014267Y013145D02*
X008470Y013145D01*
X008233Y014889D02*
X011267Y014889D01*
X011247Y014870D02*
X011247Y014687D01*
X011247Y014505D01*
X011505Y014247D01*
X011687Y014247D01*
X011687Y014687D01*
X011247Y014687D01*
X011687Y014687D01*
X011687Y014687D01*
X011687Y014687D01*
X011687Y014247D01*
X011870Y014247D01*
X012127Y014505D01*
X012127Y014687D01*
X011688Y014687D01*
X011688Y014687D01*
X012127Y014687D01*
X012127Y014870D01*
X011870Y015127D01*
X011687Y015127D01*
X011505Y015127D01*
X011247Y014870D01*
X011247Y014731D02*
X007131Y014731D01*
X007128Y014727D02*
X007397Y014997D01*
X007397Y015187D01*
X006938Y015187D01*
X006938Y015187D01*
X007397Y015187D01*
X007397Y015378D01*
X007128Y015647D01*
X006937Y015647D01*
X006747Y015647D01*
X006477Y015378D01*
X006477Y015187D01*
X006477Y014997D01*
X006747Y014727D01*
X006937Y014727D01*
X006937Y015187D01*
X006937Y015187D01*
X006477Y015187D01*
X006937Y015187D01*
X006937Y015187D01*
X006937Y014727D01*
X007128Y014727D01*
X006937Y014731D02*
X006937Y014731D01*
X006937Y014889D02*
X006937Y014889D01*
X006937Y015048D02*
X006937Y015048D01*
X006937Y015188D02*
X006937Y015647D01*
X006937Y015188D01*
X006937Y015188D01*
X006937Y015206D02*
X006937Y015206D01*
X006937Y015365D02*
X006937Y015365D01*
X006937Y015523D02*
X006937Y015523D01*
X006623Y015523D02*
X003607Y015523D01*
X003607Y015365D02*
X006477Y015365D01*
X006477Y015206D02*
X003607Y015206D01*
X003267Y015206D02*
X001117Y015206D01*
X001117Y015048D02*
X001679Y015048D01*
X001679Y014889D02*
X001117Y014889D01*
X001117Y014731D02*
X001679Y014731D01*
X001679Y014572D02*
X001117Y014572D01*
X001117Y014414D02*
X001679Y014414D01*
X001679Y014255D02*
X001117Y014255D01*
X001117Y014096D02*
X001718Y014096D01*
X002157Y014096D02*
X002218Y014096D01*
X002657Y014096D02*
X002718Y014096D01*
X003157Y014096D02*
X003218Y014096D01*
X003657Y014096D02*
X003718Y014096D01*
X004657Y014096D02*
X004718Y014096D01*
X004489Y013145D02*
X004429Y013145D01*
X004309Y012987D02*
X004648Y012987D01*
X004806Y012828D02*
X004189Y012828D01*
X004069Y012670D02*
X004965Y012670D01*
X005123Y012511D02*
X003949Y012511D01*
X003829Y012352D02*
X005282Y012352D01*
X005440Y012194D02*
X003847Y012194D01*
X003913Y012035D02*
X005599Y012035D01*
X005757Y011877D02*
X003952Y011877D01*
X003952Y011718D02*
X005916Y011718D01*
X006075Y011560D02*
X003921Y011560D01*
X003855Y011401D02*
X006233Y011401D01*
X006392Y011243D02*
X003724Y011243D01*
X003522Y012511D02*
X003439Y012511D01*
X005695Y014255D02*
X011497Y014255D01*
X011687Y014255D02*
X011687Y014255D01*
X011687Y014414D02*
X011687Y014414D01*
X011687Y014572D02*
X011687Y014572D01*
X011687Y014688D02*
X011687Y015127D01*
X011687Y014688D01*
X011687Y014688D01*
X011687Y014731D02*
X011687Y014731D01*
X011687Y014889D02*
X011687Y014889D01*
X011687Y015048D02*
X011687Y015048D01*
X011425Y015048D02*
X008357Y015048D01*
X008357Y015206D02*
X014267Y015206D01*
X014267Y015048D02*
X011949Y015048D01*
X012108Y014889D02*
X014267Y014889D01*
X014267Y014731D02*
X012127Y014731D01*
X012127Y014572D02*
X014267Y014572D01*
X014267Y014414D02*
X012036Y014414D01*
X011877Y014255D02*
X014267Y014255D01*
X014607Y014255D02*
X014787Y014255D01*
X014787Y014353D02*
X014787Y014022D01*
X015022Y013787D01*
X015353Y013787D01*
X015587Y014022D01*
X015587Y014353D01*
X015353Y014587D01*
X015022Y014587D01*
X014787Y014353D01*
X014848Y014414D02*
X014607Y014414D01*
X014607Y014572D02*
X015006Y014572D01*
X015368Y014572D02*
X016237Y014572D01*
X016272Y014537D02*
X016603Y014537D01*
X016837Y014772D01*
X016837Y015103D01*
X016603Y015337D01*
X016278Y015337D01*
X015357Y016258D01*
X015357Y016792D01*
X017017Y016792D01*
X017017Y016950D02*
X015516Y016950D01*
X015587Y017022D02*
X015357Y016792D01*
X015357Y016633D02*
X017017Y016633D01*
X017017Y016475D02*
X016716Y016475D01*
X016603Y016587D02*
X016272Y016587D01*
X016037Y016353D01*
X016037Y016022D01*
X016272Y015787D01*
X016603Y015787D01*
X016837Y016022D01*
X016837Y016353D01*
X016603Y016587D01*
X016837Y016316D02*
X017017Y016316D01*
X017017Y016157D02*
X016837Y016157D01*
X016815Y015999D02*
X017017Y015999D01*
X017017Y015840D02*
X016656Y015840D01*
X017017Y015682D02*
X015933Y015682D01*
X015775Y015840D02*
X016219Y015840D01*
X016060Y015999D02*
X015616Y015999D01*
X015458Y016157D02*
X016037Y016157D01*
X016037Y016316D02*
X015357Y016316D01*
X015357Y016475D02*
X016159Y016475D01*
X015587Y017022D02*
X015587Y017353D01*
X015353Y017587D01*
X015022Y017587D01*
X014787Y017353D01*
X014787Y017022D01*
X015017Y016792D01*
X014607Y016792D01*
X014607Y016950D02*
X014859Y016950D01*
X014787Y017109D02*
X014607Y017109D01*
X014607Y017267D02*
X014787Y017267D01*
X014860Y017426D02*
X014607Y017426D01*
X014607Y017584D02*
X015019Y017584D01*
X015356Y017584D02*
X017017Y017584D01*
X017017Y017426D02*
X015514Y017426D01*
X015587Y017267D02*
X017017Y017267D01*
X017017Y017109D02*
X015587Y017109D01*
X015017Y016792D02*
X015017Y016117D01*
X015117Y016017D01*
X016037Y015097D01*
X016037Y014772D01*
X016272Y014537D01*
X016078Y014731D02*
X014607Y014731D01*
X014607Y014889D02*
X016037Y014889D01*
X016037Y015048D02*
X014607Y015048D01*
X014607Y015206D02*
X015928Y015206D01*
X015769Y015365D02*
X014607Y015365D01*
X014607Y015523D02*
X015611Y015523D01*
X015452Y015682D02*
X014607Y015682D01*
X014607Y015840D02*
X015294Y015840D01*
X015135Y015999D02*
X014607Y015999D01*
X014607Y016157D02*
X015017Y016157D01*
X015017Y016316D02*
X014607Y016316D01*
X014607Y016475D02*
X015017Y016475D01*
X015017Y016633D02*
X014607Y016633D01*
X014267Y016633D02*
X012087Y016633D01*
X012087Y016522D02*
X011853Y016287D01*
X011522Y016287D01*
X011287Y016522D01*
X011287Y016853D01*
X011522Y017087D01*
X011853Y017087D01*
X012087Y016853D01*
X012087Y016522D01*
X012040Y016475D02*
X014267Y016475D01*
X014267Y016316D02*
X011882Y016316D01*
X011493Y016316D02*
X003607Y016316D01*
X003607Y016157D02*
X014267Y016157D01*
X014267Y015999D02*
X008107Y015999D01*
X008107Y015840D02*
X014267Y015840D01*
X014267Y015682D02*
X008107Y015682D01*
X008195Y015523D02*
X014267Y015523D01*
X014267Y015365D02*
X008354Y015365D01*
X007767Y015682D02*
X003607Y015682D01*
X003267Y015682D02*
X001117Y015682D01*
X001117Y015840D02*
X003267Y015840D01*
X003267Y015999D02*
X001117Y015999D01*
X001117Y016157D02*
X003267Y016157D01*
X003267Y016316D02*
X001117Y016316D01*
X001117Y016475D02*
X003267Y016475D01*
X003267Y016633D02*
X001117Y016633D01*
X001117Y016792D02*
X003267Y016792D01*
X003267Y016950D02*
X001117Y016950D01*
X001117Y017109D02*
X003267Y017109D01*
X003267Y017267D02*
X001117Y017267D01*
X001117Y017426D02*
X003267Y017426D01*
X003267Y017584D02*
X001117Y017584D01*
X001117Y017743D02*
X001694Y017743D01*
X001679Y017901D02*
X001117Y017901D01*
X001117Y018060D02*
X001679Y018060D01*
X001679Y018219D02*
X001117Y018219D01*
X001117Y018377D02*
X001679Y018377D01*
X001679Y018536D02*
X001117Y018536D01*
X001117Y018694D02*
X001679Y018694D01*
X001117Y018853D02*
X004763Y018853D01*
X004937Y018853D02*
X004937Y018853D01*
X004937Y018861D02*
X004937Y018249D01*
X004937Y018249D01*
X004937Y018861D01*
X004937Y018694D02*
X004937Y018694D01*
X004937Y018536D02*
X004937Y018536D01*
X004937Y018377D02*
X004937Y018377D01*
X004937Y018219D02*
X004937Y018219D01*
X004937Y018060D02*
X004937Y018060D01*
X004937Y017901D02*
X004937Y017901D01*
X004937Y017743D02*
X004937Y017743D01*
X004194Y017743D02*
X004181Y017743D01*
X003694Y017743D02*
X003681Y017743D01*
X003607Y017584D02*
X006588Y017584D01*
X006589Y017580D02*
X006611Y017511D01*
X006644Y017446D01*
X006686Y017388D01*
X006738Y017336D01*
X006796Y017294D01*
X006861Y017261D01*
X006930Y017239D01*
X007001Y017227D01*
X007037Y017227D01*
X007037Y017687D01*
X007037Y017687D01*
X006577Y017687D01*
X006577Y017651D01*
X006589Y017580D01*
X006577Y017687D02*
X007037Y017687D01*
X007037Y017687D01*
X007037Y017227D01*
X007074Y017227D01*
X007145Y017239D01*
X007214Y017261D01*
X007278Y017294D01*
X007337Y017336D01*
X007388Y017388D01*
X007431Y017446D01*
X007449Y017482D01*
X007663Y017267D01*
X008011Y017267D01*
X008257Y017513D01*
X008257Y017861D01*
X008011Y018107D01*
X007663Y018107D01*
X007449Y017893D01*
X007431Y017928D01*
X007388Y017987D01*
X007337Y018038D01*
X007278Y018081D01*
X007214Y018114D01*
X007145Y018136D01*
X007074Y018147D01*
X007037Y018147D01*
X007001Y018147D01*
X006930Y018136D01*
X006861Y018114D01*
X006796Y018081D01*
X006738Y018038D01*
X006686Y017987D01*
X006644Y017928D01*
X006611Y017864D01*
X006589Y017795D01*
X006577Y017724D01*
X006577Y017687D01*
X006580Y017743D02*
X005681Y017743D01*
X005695Y017901D02*
X006630Y017901D01*
X006768Y018060D02*
X005695Y018060D01*
X005695Y018219D02*
X014267Y018219D01*
X014267Y018377D02*
X011999Y018377D01*
X012127Y018505D02*
X012127Y018687D01*
X011688Y018687D01*
X011688Y018687D01*
X012127Y018687D01*
X012127Y018870D01*
X011870Y019127D01*
X011687Y019127D01*
X011505Y019127D01*
X011247Y018870D01*
X011247Y018687D01*
X011247Y018505D01*
X011505Y018247D01*
X011687Y018247D01*
X011687Y018687D01*
X011247Y018687D01*
X011687Y018687D01*
X011687Y018687D01*
X011687Y018687D01*
X011687Y018247D01*
X011870Y018247D01*
X012127Y018505D01*
X012127Y018536D02*
X014267Y018536D01*
X014267Y018694D02*
X012127Y018694D01*
X012127Y018853D02*
X014267Y018853D01*
X014267Y019011D02*
X011986Y019011D01*
X011687Y019011D02*
X011687Y019011D01*
X011687Y019127D02*
X011687Y018688D01*
X011687Y018688D01*
X011687Y019127D01*
X011687Y018853D02*
X011687Y018853D01*
X011687Y018694D02*
X011687Y018694D01*
X011687Y018536D02*
X011687Y018536D01*
X011687Y018377D02*
X011687Y018377D01*
X011375Y018377D02*
X005695Y018377D01*
X005695Y018536D02*
X011247Y018536D01*
X011247Y018694D02*
X005695Y018694D01*
X005111Y018853D02*
X011247Y018853D01*
X011389Y019011D02*
X001117Y019011D01*
X001117Y019170D02*
X014267Y019170D01*
X014267Y019328D02*
X001117Y019328D01*
X001117Y019487D02*
X014267Y019487D01*
X014267Y019645D02*
X001117Y019645D01*
X001117Y019804D02*
X014267Y019804D01*
X014267Y019963D02*
X001117Y019963D01*
X001117Y020121D02*
X014267Y020121D01*
X014267Y020280D02*
X001117Y020280D01*
X001117Y020438D02*
X014267Y020438D01*
X014607Y020280D02*
X017017Y020280D01*
X017017Y020438D02*
X014679Y020438D01*
X014607Y020121D02*
X017017Y020121D01*
X017017Y019963D02*
X014607Y019963D01*
X014607Y019804D02*
X017017Y019804D01*
X017017Y019645D02*
X014607Y019645D01*
X014607Y019487D02*
X016171Y019487D01*
X016272Y019587D02*
X016037Y019353D01*
X016037Y019022D01*
X016272Y018787D01*
X016603Y018787D01*
X016837Y019022D01*
X016837Y019353D01*
X016603Y019587D01*
X016272Y019587D01*
X016037Y019328D02*
X014607Y019328D01*
X014607Y019170D02*
X016037Y019170D01*
X016048Y019011D02*
X014607Y019011D01*
X014607Y018853D02*
X016206Y018853D01*
X016668Y018853D02*
X017017Y018853D01*
X017017Y019011D02*
X016827Y019011D01*
X016837Y019170D02*
X017017Y019170D01*
X017017Y019328D02*
X016837Y019328D01*
X016703Y019487D02*
X017017Y019487D01*
X017357Y019487D02*
X019147Y019487D01*
X019267Y019367D02*
X019267Y017449D01*
X019259Y017392D01*
X019267Y017381D01*
X019267Y017367D01*
X019309Y017326D01*
X019497Y017074D01*
X019471Y017085D01*
X019313Y017085D01*
X019167Y017024D01*
X019055Y016912D01*
X018995Y016766D01*
X018995Y016608D01*
X019055Y016462D01*
X019167Y016350D01*
X019313Y016290D01*
X019471Y016290D01*
X019617Y016350D01*
X019729Y016462D01*
X019789Y016608D01*
X019789Y016684D01*
X020006Y016395D01*
X019995Y016366D01*
X019995Y016208D01*
X020055Y016062D01*
X020167Y015950D01*
X020313Y015890D01*
X020471Y015890D01*
X020617Y015950D01*
X020729Y016062D01*
X020789Y016208D01*
X020789Y016366D01*
X020729Y016512D01*
X020617Y016624D01*
X020471Y016685D01*
X020313Y016685D01*
X020238Y016654D01*
X020159Y016758D01*
X020167Y016750D01*
X020313Y016690D01*
X020471Y016690D01*
X020617Y016750D01*
X020729Y016862D01*
X020789Y017008D01*
X020789Y017166D01*
X020729Y017312D01*
X020617Y017424D01*
X020471Y017485D01*
X020313Y017485D01*
X020167Y017424D01*
X020055Y017312D01*
X019995Y017166D01*
X019995Y017008D01*
X020023Y016940D01*
X019607Y017494D01*
X019607Y019367D01*
X019607Y019508D01*
X018465Y020650D01*
X018557Y020743D01*
X018557Y021132D01*
X018282Y021407D01*
X017893Y021407D01*
X017617Y021132D01*
X017617Y020743D01*
X017893Y020467D01*
X018167Y020467D01*
X019267Y019367D01*
X019267Y019328D02*
X017357Y019328D01*
X017357Y019170D02*
X019267Y019170D01*
X019267Y019011D02*
X017357Y019011D01*
X017357Y018853D02*
X019267Y018853D01*
X019267Y018694D02*
X017357Y018694D01*
X017357Y018536D02*
X019267Y018536D01*
X019267Y018377D02*
X018831Y018377D01*
X018777Y018431D02*
X018611Y018500D01*
X018432Y018500D01*
X018267Y018431D01*
X018140Y018304D01*
X018072Y018139D01*
X018072Y017960D01*
X018140Y017795D01*
X018267Y017668D01*
X018432Y017599D01*
X018611Y017599D01*
X018777Y017668D01*
X018903Y017795D01*
X018972Y017960D01*
X018972Y018139D01*
X018903Y018304D01*
X018777Y018431D01*
X018939Y018219D02*
X019267Y018219D01*
X019267Y018060D02*
X018972Y018060D01*
X018948Y017901D02*
X019267Y017901D01*
X019267Y017743D02*
X018852Y017743D01*
X019267Y017584D02*
X017357Y017584D01*
X017357Y017426D02*
X019264Y017426D01*
X019352Y017267D02*
X017357Y017267D01*
X017357Y017109D02*
X019471Y017109D01*
X019093Y016950D02*
X017357Y016950D01*
X017357Y016792D02*
X019005Y016792D01*
X018995Y016633D02*
X017357Y016633D01*
X017357Y016475D02*
X019050Y016475D01*
X019250Y016316D02*
X017357Y016316D01*
X017357Y016157D02*
X019100Y016157D01*
X019055Y016112D02*
X018995Y015966D01*
X018995Y015808D01*
X019055Y015662D01*
X019167Y015550D01*
X019313Y015490D01*
X019471Y015490D01*
X019617Y015550D01*
X019729Y015662D01*
X019789Y015808D01*
X019789Y015966D01*
X019729Y016112D01*
X019617Y016224D01*
X019471Y016285D01*
X019313Y016285D01*
X019167Y016224D01*
X019055Y016112D01*
X019008Y015999D02*
X017357Y015999D01*
X017357Y015840D02*
X018995Y015840D01*
X019047Y015682D02*
X017357Y015682D01*
X017357Y015523D02*
X019232Y015523D01*
X019313Y015485D02*
X019167Y015424D01*
X019055Y015312D01*
X018995Y015166D01*
X018995Y015008D01*
X019055Y014862D01*
X019167Y014750D01*
X019313Y014690D01*
X019471Y014690D01*
X019617Y014750D01*
X019729Y014862D01*
X019789Y015008D01*
X019789Y015166D01*
X019729Y015312D01*
X019617Y015424D01*
X019471Y015485D01*
X019313Y015485D01*
X019107Y015365D02*
X017357Y015365D01*
X017357Y015206D02*
X019011Y015206D01*
X018995Y015048D02*
X017357Y015048D01*
X017357Y014889D02*
X019044Y014889D01*
X019215Y014731D02*
X017357Y014731D01*
X017357Y014572D02*
X019115Y014572D01*
X019167Y014624D02*
X019055Y014512D01*
X018995Y014366D01*
X018995Y014208D01*
X019055Y014062D01*
X019167Y013950D01*
X019313Y013890D01*
X019471Y013890D01*
X019617Y013950D01*
X019729Y014062D01*
X019789Y014208D01*
X019789Y014366D01*
X019729Y014512D01*
X019617Y014624D01*
X019471Y014685D01*
X019313Y014685D01*
X019167Y014624D01*
X019014Y014414D02*
X017357Y014414D01*
X017357Y014255D02*
X018995Y014255D01*
X019041Y014096D02*
X017357Y014096D01*
X017357Y013938D02*
X019197Y013938D01*
X018863Y013621D02*
X020130Y013621D01*
X019972Y013462D02*
X018952Y013462D01*
X018972Y013415D02*
X018903Y013580D01*
X018777Y013707D01*
X018611Y013775D01*
X018432Y013775D01*
X018267Y013707D01*
X018140Y013580D01*
X018072Y013415D01*
X018072Y013236D01*
X018140Y013070D01*
X018267Y012944D01*
X018432Y012875D01*
X018611Y012875D01*
X018777Y012944D01*
X018903Y013070D01*
X018972Y013236D01*
X018972Y013415D01*
X018972Y013304D02*
X019813Y013304D01*
X019767Y013145D02*
X018935Y013145D01*
X018820Y012987D02*
X019767Y012987D01*
X019767Y012828D02*
X017357Y012828D01*
X017357Y012670D02*
X019767Y012670D01*
X019767Y012511D02*
X017357Y012511D01*
X017357Y012352D02*
X019767Y012352D01*
X019767Y012194D02*
X017357Y012194D01*
X017357Y012035D02*
X019767Y012035D01*
X019767Y011877D02*
X017357Y011877D01*
X017357Y011718D02*
X019767Y011718D01*
X019767Y011560D02*
X017300Y011560D01*
X017258Y011517D02*
X017357Y011617D01*
X017357Y020543D01*
X017557Y020743D01*
X017557Y021132D01*
X017282Y021407D01*
X016893Y021407D01*
X016617Y021132D01*
X016617Y020743D01*
X016893Y020467D01*
X017017Y020467D01*
X017017Y011758D01*
X016597Y011337D01*
X016272Y011337D01*
X016037Y011103D01*
X016037Y010772D01*
X016272Y010537D01*
X016603Y010537D01*
X016837Y010772D01*
X016837Y011097D01*
X017258Y011517D01*
X017142Y011401D02*
X019767Y011401D01*
X019767Y011243D02*
X016983Y011243D01*
X016837Y011084D02*
X019767Y011084D01*
X019767Y010926D02*
X016837Y010926D01*
X016833Y010767D02*
X019767Y010767D01*
X019767Y010608D02*
X016674Y010608D01*
X016201Y010608D02*
X014607Y010608D01*
X014607Y010450D02*
X019767Y010450D01*
X019767Y010291D02*
X014607Y010291D01*
X014732Y010133D02*
X019767Y010133D01*
X019767Y009974D02*
X014891Y009974D01*
X015049Y009816D02*
X019767Y009816D01*
X019767Y009657D02*
X018801Y009657D01*
X018777Y009681D02*
X018611Y009750D01*
X018432Y009750D01*
X018267Y009681D01*
X018140Y009554D01*
X018072Y009389D01*
X018072Y009210D01*
X018140Y009045D01*
X018267Y008918D01*
X018432Y008849D01*
X018611Y008849D01*
X018777Y008918D01*
X018903Y009045D01*
X018972Y009210D01*
X018972Y009389D01*
X018903Y009554D01*
X018777Y009681D01*
X018927Y009499D02*
X019767Y009499D01*
X019767Y009340D02*
X018972Y009340D01*
X018960Y009182D02*
X019767Y009182D01*
X019767Y009023D02*
X018882Y009023D01*
X018648Y008864D02*
X019767Y008864D01*
X019767Y008706D02*
X015522Y008706D01*
X015587Y008864D02*
X018396Y008864D01*
X018162Y009023D02*
X015587Y009023D01*
X015509Y009182D02*
X018084Y009182D01*
X018072Y009340D02*
X015357Y009340D01*
X015357Y009499D02*
X018117Y009499D01*
X018243Y009657D02*
X015208Y009657D01*
X015363Y008547D02*
X019767Y008547D01*
X019767Y008389D02*
X015357Y008389D01*
X015357Y008230D02*
X016165Y008230D01*
X016272Y008337D02*
X016037Y008103D01*
X016037Y007772D01*
X016272Y007537D01*
X016603Y007537D01*
X016837Y007772D01*
X016837Y008103D01*
X016603Y008337D01*
X016272Y008337D01*
X016037Y008072D02*
X015357Y008072D01*
X015452Y007913D02*
X016037Y007913D01*
X016054Y007755D02*
X015610Y007755D01*
X015769Y007596D02*
X016213Y007596D01*
X015927Y007438D02*
X019130Y007438D01*
X019177Y007596D02*
X016662Y007596D01*
X016820Y007755D02*
X019037Y007755D01*
X018995Y007913D02*
X016837Y007913D01*
X016837Y008072D02*
X019018Y008072D01*
X019123Y008230D02*
X016710Y008230D01*
X016086Y007279D02*
X019021Y007279D01*
X018995Y007121D02*
X016244Y007121D01*
X016728Y006962D02*
X019034Y006962D01*
X019164Y006803D02*
X016837Y006803D01*
X016837Y006645D02*
X019138Y006645D01*
X019024Y006486D02*
X016802Y006486D01*
X016643Y006328D02*
X018995Y006328D01*
X019031Y006169D02*
X015521Y006169D01*
X015587Y006011D02*
X019157Y006011D01*
X019145Y005852D02*
X015587Y005852D01*
X015509Y005694D02*
X019027Y005694D01*
X019654Y007438D02*
X020003Y007438D01*
X019995Y007596D02*
X019607Y007596D01*
X019747Y007755D02*
X019880Y007755D01*
X019767Y008072D02*
X019767Y008072D01*
X019767Y008230D02*
X019661Y008230D01*
X020202Y007913D02*
X020261Y007913D01*
X020523Y007913D02*
X023007Y007913D01*
X023007Y007755D02*
X020732Y007755D01*
X020789Y007596D02*
X023007Y007596D01*
X023007Y007438D02*
X020781Y007438D01*
X020696Y007279D02*
X023007Y007279D01*
X023007Y008072D02*
X020689Y008072D01*
X020778Y008230D02*
X021569Y008230D01*
X021620Y008209D02*
X021762Y008209D01*
X021894Y008264D01*
X021995Y008364D01*
X022049Y008496D01*
X022049Y008638D01*
X021995Y008770D01*
X021894Y008871D01*
X021762Y008925D01*
X021620Y008925D01*
X021488Y008871D01*
X021388Y008770D01*
X021333Y008638D01*
X021333Y008496D01*
X021388Y008364D01*
X021488Y008264D01*
X021620Y008209D01*
X021814Y008230D02*
X023007Y008230D01*
X023007Y008389D02*
X022005Y008389D01*
X022049Y008547D02*
X023007Y008547D01*
X023007Y008706D02*
X022021Y008706D01*
X021900Y008864D02*
X022360Y008864D01*
X022394Y008831D02*
X022526Y008776D01*
X022668Y008776D01*
X022800Y008831D01*
X022900Y008931D01*
X022955Y009063D01*
X022955Y009205D01*
X022900Y009337D01*
X022800Y009438D01*
X022668Y009492D01*
X022526Y009492D01*
X022394Y009438D01*
X022293Y009337D01*
X022239Y009205D01*
X022239Y009063D01*
X022293Y008931D01*
X022394Y008831D01*
X022255Y009023D02*
X020107Y009023D01*
X020107Y008864D02*
X021482Y008864D01*
X021361Y008706D02*
X020541Y008706D01*
X020735Y008547D02*
X021333Y008547D01*
X021378Y008389D02*
X020789Y008389D01*
X020243Y008706D02*
X020107Y008706D01*
X020107Y009182D02*
X022239Y009182D01*
X022296Y009340D02*
X020107Y009340D01*
X020107Y009499D02*
X023007Y009499D01*
X023007Y009657D02*
X020822Y009657D01*
X020816Y009655D02*
X020982Y009723D01*
X021108Y009850D01*
X021177Y010015D01*
X021177Y010194D01*
X021108Y010360D01*
X020982Y010486D01*
X020816Y010555D01*
X020637Y010555D01*
X020472Y010486D01*
X020345Y010360D01*
X020277Y010194D01*
X020277Y010015D01*
X020345Y009850D01*
X020472Y009723D01*
X020637Y009655D01*
X020816Y009655D01*
X020631Y009657D02*
X020107Y009657D01*
X020107Y009816D02*
X020379Y009816D01*
X020294Y009974D02*
X020107Y009974D01*
X020107Y010133D02*
X020277Y010133D01*
X020317Y010291D02*
X020107Y010291D01*
X020107Y010450D02*
X020436Y010450D01*
X020107Y010608D02*
X023007Y010608D01*
X023007Y010450D02*
X021018Y010450D01*
X021136Y010291D02*
X023007Y010291D01*
X023007Y010133D02*
X021177Y010133D01*
X021160Y009974D02*
X023007Y009974D01*
X023007Y009816D02*
X021074Y009816D01*
X020107Y010767D02*
X023007Y010767D01*
X023007Y010926D02*
X020107Y010926D01*
X020107Y011084D02*
X023007Y011084D01*
X023007Y011243D02*
X020107Y011243D01*
X020107Y011401D02*
X023007Y011401D01*
X023007Y011560D02*
X020107Y011560D01*
X020107Y011718D02*
X023007Y011718D01*
X023007Y011877D02*
X020107Y011877D01*
X020107Y012035D02*
X023007Y012035D01*
X023007Y012194D02*
X021037Y012194D01*
X020982Y012138D02*
X021108Y012265D01*
X021177Y012430D01*
X021177Y012610D01*
X021108Y012775D01*
X020982Y012901D01*
X020816Y012970D01*
X020637Y012970D01*
X020472Y012901D01*
X020345Y012775D01*
X020277Y012610D01*
X020277Y012430D01*
X020345Y012265D01*
X020472Y012138D01*
X020637Y012070D01*
X020816Y012070D01*
X020982Y012138D01*
X021144Y012352D02*
X023007Y012352D01*
X023007Y012511D02*
X021177Y012511D01*
X021152Y012670D02*
X023007Y012670D01*
X023007Y012828D02*
X021055Y012828D01*
X021488Y013187D02*
X021388Y013288D01*
X021333Y013419D01*
X021333Y013562D01*
X021388Y013693D01*
X021488Y013794D01*
X021620Y013849D01*
X021762Y013849D01*
X021894Y013794D01*
X021995Y013693D01*
X022049Y013562D01*
X022049Y013419D01*
X021995Y013288D01*
X021894Y013187D01*
X021762Y013132D01*
X021620Y013132D01*
X021488Y013187D01*
X021589Y013145D02*
X020136Y013145D01*
X020107Y012987D02*
X023007Y012987D01*
X023007Y013145D02*
X021793Y013145D01*
X022001Y013304D02*
X023007Y013304D01*
X023007Y013462D02*
X022049Y013462D01*
X022025Y013621D02*
X023007Y013621D01*
X023007Y013779D02*
X022825Y013779D01*
X022800Y013754D02*
X022900Y013855D01*
X022955Y013986D01*
X022955Y014129D01*
X022900Y014260D01*
X022800Y014361D01*
X022668Y014415D01*
X022526Y014415D01*
X022394Y014361D01*
X022293Y014260D01*
X022239Y014129D01*
X022239Y013986D01*
X022293Y013855D01*
X022394Y013754D01*
X022526Y013699D01*
X022668Y013699D01*
X022800Y013754D01*
X022935Y013938D02*
X023007Y013938D01*
X023007Y014096D02*
X022955Y014096D01*
X022903Y014255D02*
X023007Y014255D01*
X023007Y014414D02*
X022673Y014414D01*
X022521Y014414D02*
X021357Y014414D01*
X021357Y014572D02*
X023007Y014572D01*
X023007Y014731D02*
X021357Y014731D01*
X021357Y014889D02*
X023007Y014889D01*
X023007Y015048D02*
X021357Y015048D01*
X021357Y015206D02*
X023007Y015206D01*
X023007Y015365D02*
X021357Y015365D01*
X021357Y015523D02*
X023007Y015523D01*
X023007Y015682D02*
X021357Y015682D01*
X021357Y015840D02*
X023007Y015840D01*
X023007Y015999D02*
X021357Y015999D01*
X021357Y016157D02*
X023007Y016157D01*
X023007Y016316D02*
X021357Y016316D01*
X021357Y016475D02*
X023007Y016475D01*
X023007Y016633D02*
X021357Y016633D01*
X021357Y016792D02*
X023007Y016792D01*
X023007Y016950D02*
X021357Y016950D01*
X021357Y017109D02*
X021393Y017109D01*
X021017Y017109D02*
X020789Y017109D01*
X020765Y016950D02*
X021017Y016950D01*
X021017Y016792D02*
X020658Y016792D01*
X020596Y016633D02*
X021017Y016633D01*
X021017Y016475D02*
X020745Y016475D01*
X020789Y016316D02*
X021017Y016316D01*
X021017Y016157D02*
X020768Y016157D01*
X020666Y015999D02*
X021017Y015999D01*
X021017Y015840D02*
X020578Y015840D01*
X020617Y015824D02*
X020471Y015885D01*
X020313Y015885D01*
X020167Y015824D01*
X020055Y015712D01*
X019995Y015566D01*
X019995Y015408D01*
X020055Y015262D01*
X020167Y015150D01*
X020270Y015108D01*
X020224Y015093D01*
X020163Y015061D01*
X020107Y015021D01*
X020058Y014972D01*
X020018Y014917D01*
X019987Y014855D01*
X019965Y014790D01*
X019955Y014722D01*
X019955Y014687D01*
X019955Y014653D01*
X019965Y014585D01*
X019987Y014519D01*
X020018Y014458D01*
X020058Y014402D01*
X020107Y014354D01*
X020163Y014313D01*
X020224Y014282D01*
X020290Y014261D01*
X020358Y014250D01*
X020392Y014250D01*
X020426Y014250D01*
X020494Y014261D01*
X020560Y014282D01*
X020621Y014313D01*
X020677Y014354D01*
X020726Y014402D01*
X020766Y014458D01*
X020797Y014519D01*
X020819Y014585D01*
X020829Y014653D01*
X020829Y014687D01*
X020392Y014687D01*
X020392Y014250D01*
X020392Y014687D01*
X020392Y014687D01*
X019955Y014687D01*
X020392Y014687D01*
X020392Y014687D01*
X020392Y014687D01*
X020829Y014687D01*
X020829Y014722D01*
X020819Y014790D01*
X020797Y014855D01*
X020766Y014917D01*
X020726Y014972D01*
X020677Y015021D01*
X020621Y015061D01*
X020560Y015093D01*
X020514Y015108D01*
X020617Y015150D01*
X020729Y015262D01*
X020789Y015408D01*
X020789Y015566D01*
X020729Y015712D01*
X020617Y015824D01*
X020742Y015682D02*
X021017Y015682D01*
X021017Y015523D02*
X020789Y015523D01*
X020771Y015365D02*
X021017Y015365D01*
X021017Y015206D02*
X020673Y015206D01*
X020640Y015048D02*
X021017Y015048D01*
X021017Y014889D02*
X020780Y014889D01*
X020828Y014731D02*
X021017Y014731D01*
X021017Y014572D02*
X020815Y014572D01*
X020734Y014414D02*
X020923Y014414D01*
X020765Y014255D02*
X020459Y014255D01*
X020392Y014255D02*
X020392Y014255D01*
X020325Y014255D02*
X019789Y014255D01*
X019770Y014414D02*
X020050Y014414D01*
X019969Y014572D02*
X019669Y014572D01*
X019569Y014731D02*
X019956Y014731D01*
X020004Y014889D02*
X019740Y014889D01*
X019789Y015048D02*
X020144Y015048D01*
X020111Y015206D02*
X019773Y015206D01*
X019677Y015365D02*
X020013Y015365D01*
X019995Y015523D02*
X019552Y015523D01*
X019737Y015682D02*
X020042Y015682D01*
X020206Y015840D02*
X019789Y015840D01*
X019776Y015999D02*
X020118Y015999D01*
X020016Y016157D02*
X019684Y016157D01*
X019534Y016316D02*
X019995Y016316D01*
X019947Y016475D02*
X019734Y016475D01*
X019789Y016633D02*
X019828Y016633D01*
X020015Y016950D02*
X020019Y016950D01*
X019995Y017109D02*
X019896Y017109D01*
X019777Y017267D02*
X020036Y017267D01*
X020171Y017426D02*
X019658Y017426D01*
X019607Y017584D02*
X020550Y017584D01*
X020613Y017426D02*
X020708Y017426D01*
X020748Y017267D02*
X020867Y017267D01*
X021031Y017584D02*
X021452Y017584D01*
X021349Y017426D02*
X021189Y017426D01*
X020872Y017743D02*
X022268Y017743D01*
X022293Y017681D02*
X022394Y017581D01*
X022526Y017526D01*
X022668Y017526D01*
X022800Y017581D01*
X022900Y017681D01*
X022955Y017813D01*
X022955Y017955D01*
X022900Y018087D01*
X022800Y018188D01*
X022668Y018242D01*
X022526Y018242D01*
X022394Y018188D01*
X022293Y018087D01*
X022239Y017955D01*
X022239Y017813D01*
X022293Y017681D01*
X022390Y017584D02*
X021931Y017584D01*
X022034Y017426D02*
X023007Y017426D01*
X023007Y017584D02*
X022803Y017584D01*
X022926Y017743D02*
X023007Y017743D01*
X023007Y017901D02*
X022955Y017901D01*
X022912Y018060D02*
X023007Y018060D01*
X023007Y018219D02*
X022725Y018219D01*
X022468Y018219D02*
X020396Y018219D01*
X020238Y018377D02*
X023007Y018377D01*
X023007Y018536D02*
X021044Y018536D01*
X020982Y018473D02*
X021108Y018600D01*
X021177Y018765D01*
X021177Y018944D01*
X021108Y019110D01*
X020982Y019236D01*
X020816Y019305D01*
X020637Y019305D01*
X020472Y019236D01*
X020345Y019110D01*
X020277Y018944D01*
X020277Y018765D01*
X020345Y018600D01*
X020472Y018473D01*
X020637Y018405D01*
X020816Y018405D01*
X020982Y018473D01*
X021147Y018694D02*
X023007Y018694D01*
X023007Y018853D02*
X021177Y018853D01*
X021149Y019011D02*
X023007Y019011D01*
X023007Y019170D02*
X021048Y019170D01*
X020405Y019170D02*
X020107Y019170D01*
X020107Y019328D02*
X023007Y019328D01*
X023007Y019487D02*
X020107Y019487D01*
X020107Y019645D02*
X022996Y019645D01*
X022954Y019804D02*
X020107Y019804D01*
X020107Y019963D02*
X022872Y019963D01*
X022749Y020121D02*
X019994Y020121D01*
X019835Y020280D02*
X022590Y020280D01*
X022432Y020438D02*
X019677Y020438D01*
X019763Y020597D02*
X019518Y020597D01*
X019557Y020755D02*
X019617Y020755D01*
X019617Y020743D02*
X019893Y020467D01*
X020282Y020467D01*
X020557Y020743D01*
X020557Y021132D01*
X020282Y021407D01*
X019893Y021407D01*
X019617Y021132D01*
X019617Y020743D01*
X019617Y020914D02*
X019557Y020914D01*
X019557Y021072D02*
X019617Y021072D01*
X019716Y021231D02*
X019458Y021231D01*
X019300Y021389D02*
X019875Y021389D01*
X020300Y021389D02*
X020875Y021389D01*
X020893Y021407D02*
X020617Y021132D01*
X020617Y020743D01*
X020893Y020467D01*
X021282Y020467D01*
X021557Y020743D01*
X021557Y021132D01*
X021282Y021407D01*
X020893Y021407D01*
X020716Y021231D02*
X020458Y021231D01*
X020557Y021072D02*
X020617Y021072D01*
X020617Y020914D02*
X020557Y020914D01*
X020557Y020755D02*
X020617Y020755D01*
X020763Y020597D02*
X020411Y020597D01*
X019672Y019963D02*
X019152Y019963D01*
X018994Y020121D02*
X019513Y020121D01*
X019355Y020280D02*
X018835Y020280D01*
X018677Y020438D02*
X019196Y020438D01*
X018763Y020597D02*
X018518Y020597D01*
X018557Y020755D02*
X018617Y020755D01*
X018617Y020914D02*
X018557Y020914D01*
X018557Y021072D02*
X018617Y021072D01*
X018716Y021231D02*
X018458Y021231D01*
X018300Y021389D02*
X018875Y021389D01*
X017875Y021389D02*
X017300Y021389D01*
X017458Y021231D02*
X017716Y021231D01*
X017617Y021072D02*
X017557Y021072D01*
X017557Y020914D02*
X017617Y020914D01*
X017617Y020755D02*
X017557Y020755D01*
X017411Y020597D02*
X017763Y020597D01*
X017357Y020438D02*
X018196Y020438D01*
X018355Y020280D02*
X017357Y020280D01*
X017357Y020121D02*
X018513Y020121D01*
X018672Y019963D02*
X017357Y019963D01*
X017357Y019804D02*
X018830Y019804D01*
X018989Y019645D02*
X017357Y019645D01*
X017017Y018694D02*
X014607Y018694D01*
X014607Y018536D02*
X017017Y018536D01*
X017017Y018377D02*
X014607Y018377D01*
X014607Y018219D02*
X017017Y018219D01*
X017017Y018060D02*
X014607Y018060D01*
X014607Y017901D02*
X017017Y017901D01*
X017017Y017743D02*
X014607Y017743D01*
X014267Y017743D02*
X012087Y017743D01*
X012087Y017853D02*
X011853Y018087D01*
X011522Y018087D01*
X011287Y017853D01*
X011287Y017522D01*
X011522Y017287D01*
X011853Y017287D01*
X012087Y017522D01*
X012087Y017853D01*
X012039Y017901D02*
X014267Y017901D01*
X014267Y018060D02*
X011880Y018060D01*
X011494Y018060D02*
X008059Y018060D01*
X008217Y017901D02*
X011336Y017901D01*
X011287Y017743D02*
X008257Y017743D01*
X008257Y017584D02*
X011287Y017584D01*
X011383Y017426D02*
X008170Y017426D01*
X007616Y018060D02*
X007307Y018060D01*
X007444Y017901D02*
X007458Y017901D01*
X007037Y017901D02*
X007037Y017901D01*
X007037Y017743D02*
X007037Y017743D01*
X007037Y017688D02*
X007037Y018147D01*
X007037Y017688D01*
X007037Y017688D01*
X007037Y017584D02*
X007037Y017584D01*
X007037Y017426D02*
X007037Y017426D01*
X007037Y017267D02*
X007037Y017267D01*
X006848Y017267D02*
X003607Y017267D01*
X003607Y017109D02*
X014267Y017109D01*
X014267Y017267D02*
X007226Y017267D01*
X007416Y017426D02*
X007505Y017426D01*
X007037Y018060D02*
X007037Y018060D01*
X006659Y017426D02*
X003607Y017426D01*
X003194Y017743D02*
X003181Y017743D01*
X002694Y017743D02*
X002681Y017743D01*
X002194Y017743D02*
X002181Y017743D01*
X003607Y016950D02*
X011385Y016950D01*
X011287Y016792D02*
X003607Y016792D01*
X003607Y016633D02*
X011287Y016633D01*
X011334Y016475D02*
X003607Y016475D01*
X003267Y015523D02*
X001117Y015523D01*
X001117Y015365D02*
X003267Y015365D01*
X005695Y015048D02*
X006477Y015048D01*
X006585Y014889D02*
X005695Y014889D01*
X005695Y014731D02*
X006744Y014731D01*
X007290Y014889D02*
X007642Y014889D01*
X007517Y015048D02*
X007397Y015048D01*
X007397Y015206D02*
X007517Y015206D01*
X007521Y015365D02*
X007397Y015365D01*
X007252Y015523D02*
X007679Y015523D01*
X005695Y014572D02*
X011247Y014572D01*
X011339Y014414D02*
X005695Y014414D01*
X007177Y011084D02*
X007640Y011084D01*
X007482Y010926D02*
X007393Y010926D01*
X007394Y010450D02*
X007481Y010450D01*
X007639Y010291D02*
X007179Y010291D01*
X011918Y012352D02*
X014267Y012352D01*
X014267Y012511D02*
X012077Y012511D01*
X012087Y012670D02*
X014267Y012670D01*
X014267Y012828D02*
X012087Y012828D01*
X014607Y012828D02*
X017017Y012828D01*
X017017Y012670D02*
X014607Y012670D01*
X014607Y012511D02*
X017017Y012511D01*
X017017Y012352D02*
X014607Y012352D01*
X014607Y012194D02*
X016128Y012194D01*
X016037Y012103D02*
X016037Y011772D01*
X016272Y011537D01*
X016603Y011537D01*
X016837Y011772D01*
X016837Y012103D01*
X016603Y012337D01*
X016272Y012337D01*
X016037Y012103D01*
X016037Y012035D02*
X014607Y012035D01*
X014607Y011877D02*
X016037Y011877D01*
X016091Y011718D02*
X014607Y011718D01*
X014607Y011560D02*
X016249Y011560D01*
X016177Y011243D02*
X014607Y011243D01*
X014607Y011401D02*
X016661Y011401D01*
X016625Y011560D02*
X016819Y011560D01*
X016784Y011718D02*
X016978Y011718D01*
X017017Y011877D02*
X016837Y011877D01*
X016837Y012035D02*
X017017Y012035D01*
X017017Y012194D02*
X016746Y012194D01*
X017017Y012987D02*
X014607Y012987D01*
X014607Y013145D02*
X017017Y013145D01*
X017017Y013304D02*
X014607Y013304D01*
X014607Y013462D02*
X017017Y013462D01*
X017017Y013621D02*
X014607Y013621D01*
X014607Y013779D02*
X017017Y013779D01*
X017017Y013938D02*
X015504Y013938D01*
X015587Y014096D02*
X017017Y014096D01*
X017017Y014255D02*
X015587Y014255D01*
X015527Y014414D02*
X017017Y014414D01*
X017017Y014572D02*
X016638Y014572D01*
X016796Y014731D02*
X017017Y014731D01*
X017017Y014889D02*
X016837Y014889D01*
X016837Y015048D02*
X017017Y015048D01*
X017017Y015206D02*
X016734Y015206D01*
X017017Y015365D02*
X016250Y015365D01*
X016092Y015523D02*
X017017Y015523D01*
X017357Y013779D02*
X020289Y013779D01*
X020447Y013938D02*
X019587Y013938D01*
X019743Y014096D02*
X020606Y014096D01*
X020928Y013938D02*
X022259Y013938D01*
X022239Y014096D02*
X021087Y014096D01*
X021245Y014255D02*
X022291Y014255D01*
X022368Y013779D02*
X021909Y013779D01*
X021474Y013779D02*
X020770Y013779D01*
X020611Y013621D02*
X021358Y013621D01*
X021333Y013462D02*
X020453Y013462D01*
X020294Y013304D02*
X021381Y013304D01*
X020398Y012828D02*
X020107Y012828D01*
X020107Y012670D02*
X020302Y012670D01*
X020277Y012511D02*
X020107Y012511D01*
X020107Y012352D02*
X020309Y012352D01*
X020416Y012194D02*
X020107Y012194D01*
X018224Y012987D02*
X017357Y012987D01*
X017357Y013145D02*
X018109Y013145D01*
X018072Y013304D02*
X017357Y013304D01*
X017357Y013462D02*
X018092Y013462D01*
X018181Y013621D02*
X017357Y013621D01*
X014871Y013938D02*
X014607Y013938D01*
X014607Y014096D02*
X014787Y014096D01*
X014267Y016792D02*
X012087Y016792D01*
X011990Y016950D02*
X014267Y016950D01*
X014267Y017426D02*
X011991Y017426D01*
X012087Y017584D02*
X014267Y017584D01*
X017357Y017743D02*
X018192Y017743D01*
X018096Y017901D02*
X017357Y017901D01*
X017357Y018060D02*
X018072Y018060D01*
X018105Y018219D02*
X017357Y018219D01*
X017357Y018377D02*
X018213Y018377D01*
X019470Y019645D02*
X019767Y019645D01*
X019767Y019487D02*
X019607Y019487D01*
X019607Y019328D02*
X019767Y019328D01*
X019767Y019170D02*
X019607Y019170D01*
X019607Y019011D02*
X019767Y019011D01*
X019767Y018853D02*
X019607Y018853D01*
X019607Y018694D02*
X019767Y018694D01*
X019767Y018536D02*
X019607Y018536D01*
X019607Y018377D02*
X019767Y018377D01*
X019916Y018219D02*
X019607Y018219D01*
X019607Y018060D02*
X020074Y018060D01*
X020233Y017901D02*
X019607Y017901D01*
X019607Y017743D02*
X020391Y017743D01*
X020555Y018060D02*
X022282Y018060D01*
X022239Y017901D02*
X020714Y017901D01*
X020409Y018536D02*
X020107Y018536D01*
X020107Y018694D02*
X020306Y018694D01*
X020277Y018853D02*
X020107Y018853D01*
X020107Y019011D02*
X020304Y019011D01*
X019767Y019804D02*
X019311Y019804D01*
X021411Y020597D02*
X022273Y020597D01*
X022300Y020570D02*
X022300Y020570D01*
X022243Y020627D02*
X022243Y020627D01*
X022169Y020755D02*
X021557Y020755D01*
X021557Y020914D02*
X022083Y020914D01*
X022088Y020896D02*
X022088Y020896D01*
X022041Y021072D02*
X021557Y021072D01*
X021458Y021231D02*
X022007Y021231D01*
X022007Y021196D02*
X022007Y021196D01*
X022004Y021389D02*
X021300Y021389D01*
X021785Y021706D02*
X001684Y021706D01*
X001400Y021548D02*
X021951Y021548D01*
X022049Y017267D02*
X023007Y017267D01*
X023007Y017109D02*
X021989Y017109D01*
X020392Y014572D02*
X020392Y014572D01*
X020392Y014414D02*
X020392Y014414D01*
X016037Y011084D02*
X014607Y011084D01*
X014607Y010926D02*
X016037Y010926D01*
X016042Y010767D02*
X014607Y010767D01*
X022897Y009340D02*
X023007Y009340D01*
X023007Y009182D02*
X022955Y009182D01*
X022938Y009023D02*
X023007Y009023D01*
X023007Y008864D02*
X022834Y008864D01*
X021896Y001254D02*
X001499Y001254D01*
X002811Y002364D02*
X004563Y002364D01*
X004274Y002998D02*
X003100Y002998D01*
X002970Y003157D02*
X004405Y003157D01*
X005343Y020467D02*
X005732Y020467D01*
X006007Y020743D01*
X006007Y021132D01*
X005732Y021407D01*
X005343Y021407D01*
X005067Y021132D01*
X005067Y020743D01*
X005343Y020467D01*
X005213Y020597D02*
X001117Y020597D01*
X001117Y020755D02*
X005067Y020755D01*
X005067Y020914D02*
X001117Y020914D01*
X001130Y021072D02*
X005067Y021072D01*
X005166Y021231D02*
X001181Y021231D01*
X001265Y021389D02*
X005325Y021389D01*
X005750Y021389D02*
X006325Y021389D01*
X006343Y021407D02*
X006067Y021132D01*
X006067Y020743D01*
X006343Y020467D01*
X006732Y020467D01*
X007007Y020743D01*
X007007Y021132D01*
X006732Y021407D01*
X006343Y021407D01*
X006166Y021231D02*
X005908Y021231D01*
X006007Y021072D02*
X006067Y021072D01*
X006067Y020914D02*
X006007Y020914D01*
X006007Y020755D02*
X006067Y020755D01*
X006213Y020597D02*
X005861Y020597D01*
X006750Y021389D02*
X007325Y021389D01*
X007343Y021407D02*
X007067Y021132D01*
X007067Y020743D01*
X007343Y020467D01*
X007732Y020467D01*
X008007Y020743D01*
X008007Y021132D01*
X007732Y021407D01*
X007343Y021407D01*
X007166Y021231D02*
X006908Y021231D01*
X007007Y021072D02*
X007067Y021072D01*
X007067Y020914D02*
X007007Y020914D01*
X007007Y020755D02*
X007067Y020755D01*
X007213Y020597D02*
X006861Y020597D01*
X007750Y021389D02*
X008325Y021389D01*
X008343Y021407D02*
X008067Y021132D01*
X008067Y020743D01*
X008343Y020467D01*
X008732Y020467D01*
X009007Y020743D01*
X009007Y021132D01*
X008732Y021407D01*
X008343Y021407D01*
X008166Y021231D02*
X007908Y021231D01*
X008007Y021072D02*
X008067Y021072D01*
X008067Y020914D02*
X008007Y020914D01*
X008007Y020755D02*
X008067Y020755D01*
X008213Y020597D02*
X007861Y020597D01*
X008750Y021389D02*
X009325Y021389D01*
X009343Y021407D02*
X009067Y021132D01*
X009067Y020743D01*
X009343Y020467D01*
X009732Y020467D01*
X010007Y020743D01*
X010007Y021132D01*
X009732Y021407D01*
X009343Y021407D01*
X009166Y021231D02*
X008908Y021231D01*
X009007Y021072D02*
X009067Y021072D01*
X009067Y020914D02*
X009007Y020914D01*
X009007Y020755D02*
X009067Y020755D01*
X009213Y020597D02*
X008861Y020597D01*
X009861Y020597D02*
X010213Y020597D01*
X010343Y020467D02*
X010067Y020743D01*
X010067Y021132D01*
X010343Y021407D01*
X010732Y021407D01*
X011007Y021132D01*
X011007Y020743D01*
X010732Y020467D01*
X010343Y020467D01*
X010067Y020755D02*
X010007Y020755D01*
X010007Y020914D02*
X010067Y020914D01*
X010067Y021072D02*
X010007Y021072D01*
X009908Y021231D02*
X010166Y021231D01*
X010325Y021389D02*
X009750Y021389D01*
X010750Y021389D02*
X011325Y021389D01*
X011343Y021407D02*
X011067Y021132D01*
X011067Y020743D01*
X011343Y020467D01*
X011732Y020467D01*
X012007Y020743D01*
X012007Y021132D01*
X011732Y021407D01*
X011343Y021407D01*
X011166Y021231D02*
X010908Y021231D01*
X011007Y021072D02*
X011067Y021072D01*
X011067Y020914D02*
X011007Y020914D01*
X011007Y020755D02*
X011067Y020755D01*
X011213Y020597D02*
X010861Y020597D01*
X011861Y020597D02*
X012213Y020597D01*
X012343Y020467D02*
X012732Y020467D01*
X013007Y020743D01*
X013007Y021132D01*
X012732Y021407D01*
X012343Y021407D01*
X012067Y021132D01*
X012067Y020743D01*
X012343Y020467D01*
X012067Y020755D02*
X012007Y020755D01*
X012007Y020914D02*
X012067Y020914D01*
X012067Y021072D02*
X012007Y021072D01*
X011908Y021231D02*
X012166Y021231D01*
X012325Y021389D02*
X011750Y021389D01*
X012750Y021389D02*
X013875Y021389D01*
X013716Y021231D02*
X012908Y021231D01*
X013007Y021072D02*
X013617Y021072D01*
X013617Y020914D02*
X013007Y020914D01*
X013007Y020755D02*
X013617Y020755D01*
X013763Y020597D02*
X012861Y020597D01*
X014300Y021389D02*
X014875Y021389D01*
X014716Y021231D02*
X014458Y021231D01*
X014557Y021072D02*
X014617Y021072D01*
X014617Y020914D02*
X014557Y020914D01*
X015300Y021389D02*
X015875Y021389D01*
X015893Y021407D02*
X015617Y021132D01*
X015617Y020743D01*
X015893Y020467D01*
X016282Y020467D01*
X016557Y020743D01*
X016557Y021132D01*
X016282Y021407D01*
X015893Y021407D01*
X015716Y021231D02*
X015458Y021231D01*
X015557Y021072D02*
X015617Y021072D01*
X015617Y020914D02*
X015557Y020914D01*
X015557Y020755D02*
X015617Y020755D01*
X015763Y020597D02*
X015411Y020597D01*
X016300Y021389D02*
X016875Y021389D01*
X016716Y021231D02*
X016458Y021231D01*
X016557Y021072D02*
X016617Y021072D01*
X016617Y020914D02*
X016557Y020914D01*
X016557Y020755D02*
X016617Y020755D01*
X016763Y020597D02*
X016411Y020597D01*
M02*
