G75*
G70*
%OFA0B0*%
%FSLAX24Y24*%
%IPPOS*%
%LPD*%
%AMOC8*
5,1,8,0,0,1.08239X$1,22.5*
%
%ADD10R,0.0236X0.0866*%
%ADD11C,0.0000*%
D10*
X001937Y014626D03*
X002437Y014626D03*
X002937Y014626D03*
X003437Y014626D03*
X003937Y014626D03*
X004437Y014626D03*
X004937Y014626D03*
X005437Y014626D03*
X005437Y018248D03*
X004937Y018248D03*
X004437Y018248D03*
X003937Y018248D03*
X003437Y018248D03*
X002937Y018248D03*
X002437Y018248D03*
X001937Y018248D03*
D11*
X001937Y000937D02*
X021602Y000937D01*
X021648Y000939D01*
X021694Y000944D01*
X021739Y000953D01*
X021783Y000966D01*
X021826Y000982D01*
X021868Y001001D01*
X021908Y001023D01*
X021946Y001049D01*
X021983Y001077D01*
X022016Y001109D01*
X022048Y001142D01*
X022076Y001179D01*
X022102Y001217D01*
X022124Y001257D01*
X022143Y001299D01*
X022159Y001342D01*
X022172Y001386D01*
X022181Y001431D01*
X022186Y001477D01*
X022188Y001523D01*
X022480Y002230D02*
X022894Y002644D01*
X023187Y003352D02*
X023187Y003687D01*
X023187Y019523D01*
X022894Y020230D02*
X022480Y020644D01*
X022480Y020645D02*
X022438Y020689D01*
X022400Y020735D01*
X022364Y020784D01*
X022331Y020835D01*
X022302Y020887D01*
X022275Y020942D01*
X022252Y020997D01*
X022232Y021055D01*
X022216Y021113D01*
X022203Y021172D01*
X022194Y021231D01*
X022189Y021292D01*
X022187Y021352D01*
X022188Y021352D02*
X022186Y021398D01*
X022181Y021444D01*
X022172Y021489D01*
X022159Y021533D01*
X022143Y021576D01*
X022124Y021618D01*
X022102Y021658D01*
X022076Y021696D01*
X022048Y021733D01*
X022016Y021766D01*
X021983Y021798D01*
X021946Y021826D01*
X021908Y021852D01*
X021868Y021874D01*
X021826Y021893D01*
X021783Y021909D01*
X021739Y021922D01*
X021694Y021931D01*
X021648Y021936D01*
X021602Y021938D01*
X021602Y021937D02*
X001937Y021937D01*
X001877Y021935D01*
X001816Y021930D01*
X001757Y021921D01*
X001698Y021908D01*
X001639Y021892D01*
X001582Y021872D01*
X001527Y021849D01*
X001472Y021822D01*
X001420Y021793D01*
X001369Y021760D01*
X001320Y021724D01*
X001274Y021686D01*
X001230Y021644D01*
X001188Y021600D01*
X001150Y021554D01*
X001114Y021505D01*
X001081Y021454D01*
X001052Y021402D01*
X001025Y021347D01*
X001002Y021292D01*
X000982Y021235D01*
X000966Y021176D01*
X000953Y021117D01*
X000944Y021058D01*
X000939Y020997D01*
X000937Y020937D01*
X000937Y001937D01*
X000939Y001877D01*
X000944Y001816D01*
X000953Y001757D01*
X000966Y001698D01*
X000982Y001639D01*
X001002Y001582D01*
X001025Y001527D01*
X001052Y001472D01*
X001081Y001420D01*
X001114Y001369D01*
X001150Y001320D01*
X001188Y001274D01*
X001230Y001230D01*
X001274Y001188D01*
X001320Y001150D01*
X001369Y001114D01*
X001420Y001081D01*
X001472Y001052D01*
X001527Y001025D01*
X001582Y001002D01*
X001639Y000982D01*
X001698Y000966D01*
X001757Y000953D01*
X001816Y000944D01*
X001877Y000939D01*
X001937Y000937D01*
X022894Y002645D02*
X022936Y002689D01*
X022974Y002735D01*
X023010Y002784D01*
X023043Y002835D01*
X023072Y002887D01*
X023099Y002942D01*
X023122Y002997D01*
X023142Y003055D01*
X023158Y003113D01*
X023171Y003172D01*
X023180Y003231D01*
X023185Y003292D01*
X023187Y003352D01*
X023187Y003437D02*
X023187Y003687D01*
X022480Y002230D02*
X022438Y002186D01*
X022400Y002140D01*
X022364Y002091D01*
X022331Y002040D01*
X022302Y001988D01*
X022275Y001933D01*
X022252Y001878D01*
X022232Y001820D01*
X022216Y001762D01*
X022203Y001703D01*
X022194Y001644D01*
X022189Y001583D01*
X022187Y001523D01*
X023187Y019523D02*
X023185Y019583D01*
X023180Y019644D01*
X023171Y019703D01*
X023158Y019762D01*
X023142Y019820D01*
X023122Y019878D01*
X023099Y019933D01*
X023072Y019988D01*
X023043Y020040D01*
X023010Y020091D01*
X022974Y020140D01*
X022936Y020186D01*
X022894Y020230D01*
M02*
