G75*
G70*
%OFA0B0*%
%FSLAX24Y24*%
%IPPOS*%
%LPD*%
%AMOC8*
5,1,8,0,0,1.08239X$1,22.5*
%
%ADD10OC8,0.0520*%
%ADD11R,0.1560X0.1560*%
%ADD12C,0.1250*%
%ADD13OC8,0.0660*%
%ADD14C,0.0000*%
%ADD15OC8,0.0560*%
%ADD16C,0.0515*%
%ADD17C,0.0436*%
%ADD18C,0.0620*%
%ADD19C,0.0560*%
%ADD20C,0.0600*%
%ADD21C,0.0060*%
%ADD22C,0.0160*%
D10*
X011687Y004187D03*
X011687Y005187D03*
X011687Y006187D03*
X011687Y008187D03*
X011687Y009187D03*
X011687Y010187D03*
X011687Y012687D03*
X011687Y013687D03*
X011687Y014687D03*
X011687Y016687D03*
X011687Y017687D03*
X011687Y018687D03*
X015187Y017187D03*
X016437Y016187D03*
X016437Y014937D03*
X015187Y014187D03*
X016437Y011937D03*
X016437Y010937D03*
X015187Y008937D03*
X016437Y007937D03*
X016437Y006687D03*
X015187Y005937D03*
X016437Y003687D03*
X016437Y019187D03*
D11*
X003187Y009187D03*
D12*
X003187Y006587D03*
X003187Y011787D03*
D13*
X005537Y020937D03*
X006537Y020937D03*
X007537Y020937D03*
X008537Y020937D03*
X009537Y020937D03*
X010537Y020937D03*
X011537Y020937D03*
X012537Y020937D03*
X014087Y020937D03*
X015087Y020937D03*
X016087Y020937D03*
X017087Y020937D03*
X018087Y020937D03*
X019087Y020937D03*
X020087Y020937D03*
X021087Y020937D03*
X021137Y001937D03*
X020137Y001937D03*
X019137Y001937D03*
X018137Y001937D03*
X017137Y001937D03*
X016137Y001937D03*
X014137Y001937D03*
X013137Y001937D03*
X012137Y001937D03*
X011137Y001937D03*
X010137Y001937D03*
X009137Y001937D03*
D14*
X001937Y000937D02*
X001877Y000939D01*
X001816Y000944D01*
X001757Y000953D01*
X001698Y000966D01*
X001639Y000982D01*
X001582Y001002D01*
X001527Y001025D01*
X001472Y001052D01*
X001420Y001081D01*
X001369Y001114D01*
X001320Y001150D01*
X001274Y001188D01*
X001230Y001230D01*
X001188Y001274D01*
X001150Y001320D01*
X001114Y001369D01*
X001081Y001420D01*
X001052Y001472D01*
X001025Y001527D01*
X001002Y001582D01*
X000982Y001639D01*
X000966Y001698D01*
X000953Y001757D01*
X000944Y001816D01*
X000939Y001877D01*
X000937Y001937D01*
X000937Y020937D01*
X000939Y020997D01*
X000944Y021058D01*
X000953Y021117D01*
X000966Y021176D01*
X000982Y021235D01*
X001002Y021292D01*
X001025Y021347D01*
X001052Y021402D01*
X001081Y021454D01*
X001114Y021505D01*
X001150Y021554D01*
X001188Y021600D01*
X001230Y021644D01*
X001274Y021686D01*
X001320Y021724D01*
X001369Y021760D01*
X001420Y021793D01*
X001472Y021822D01*
X001527Y021849D01*
X001582Y021872D01*
X001639Y021892D01*
X001698Y021908D01*
X001757Y021921D01*
X001816Y021930D01*
X001877Y021935D01*
X001937Y021937D01*
X021602Y021937D01*
X021602Y021938D02*
X021648Y021936D01*
X021694Y021931D01*
X021739Y021922D01*
X021783Y021909D01*
X021826Y021893D01*
X021868Y021874D01*
X021908Y021852D01*
X021946Y021826D01*
X021983Y021798D01*
X022016Y021766D01*
X022048Y021733D01*
X022076Y021696D01*
X022102Y021658D01*
X022124Y021618D01*
X022143Y021576D01*
X022159Y021533D01*
X022172Y021489D01*
X022181Y021444D01*
X022186Y021398D01*
X022188Y021352D01*
X022480Y020644D02*
X022894Y020230D01*
X023187Y019523D02*
X023187Y003687D01*
X023187Y003352D01*
X023187Y003437D02*
X023187Y003687D01*
X023187Y003352D02*
X023185Y003292D01*
X023180Y003231D01*
X023171Y003172D01*
X023158Y003113D01*
X023142Y003055D01*
X023122Y002997D01*
X023099Y002942D01*
X023072Y002887D01*
X023043Y002835D01*
X023010Y002784D01*
X022974Y002735D01*
X022936Y002689D01*
X022894Y002645D01*
X022894Y002644D02*
X022480Y002230D01*
X022438Y002186D01*
X022400Y002140D01*
X022364Y002091D01*
X022331Y002040D01*
X022302Y001988D01*
X022275Y001933D01*
X022252Y001878D01*
X022232Y001820D01*
X022216Y001762D01*
X022203Y001703D01*
X022194Y001644D01*
X022189Y001583D01*
X022187Y001523D01*
X022188Y001523D02*
X022186Y001477D01*
X022181Y001431D01*
X022172Y001386D01*
X022159Y001342D01*
X022143Y001299D01*
X022124Y001257D01*
X022102Y001217D01*
X022076Y001179D01*
X022048Y001142D01*
X022016Y001109D01*
X021983Y001077D01*
X021946Y001049D01*
X021908Y001023D01*
X021868Y001001D01*
X021826Y000982D01*
X021783Y000966D01*
X021739Y000953D01*
X021694Y000944D01*
X021648Y000939D01*
X021602Y000937D01*
X001937Y000937D01*
X023187Y019523D02*
X023185Y019583D01*
X023180Y019644D01*
X023171Y019703D01*
X023158Y019762D01*
X023142Y019820D01*
X023122Y019878D01*
X023099Y019933D01*
X023072Y019988D01*
X023043Y020040D01*
X023010Y020091D01*
X022974Y020140D01*
X022936Y020186D01*
X022894Y020230D01*
X022480Y020645D02*
X022438Y020689D01*
X022400Y020735D01*
X022364Y020784D01*
X022331Y020835D01*
X022302Y020887D01*
X022275Y020942D01*
X022252Y020997D01*
X022232Y021055D01*
X022216Y021113D01*
X022203Y021172D01*
X022194Y021231D01*
X022189Y021292D01*
X022187Y021352D01*
D15*
X007837Y017687D03*
X007937Y015187D03*
X006937Y015187D03*
X007837Y010687D03*
X007937Y008187D03*
X006937Y008187D03*
D16*
X019392Y007937D03*
X019392Y007137D03*
X019392Y006337D03*
X019392Y005537D03*
X020392Y005937D03*
X020392Y006737D03*
X020392Y007537D03*
X020392Y008337D03*
X019392Y014287D03*
X019392Y015087D03*
X019392Y015887D03*
X019392Y016687D03*
X020392Y016287D03*
X020392Y015487D03*
X020392Y014687D03*
X020392Y017087D03*
D17*
X021691Y017317D03*
X022597Y017884D03*
X022597Y014057D03*
X021691Y013490D03*
X022597Y009134D03*
X021691Y008567D03*
X022597Y005307D03*
X021691Y004740D03*
D18*
X020727Y003770D03*
X018522Y004575D03*
X018522Y009300D03*
X020727Y010105D03*
X020727Y012520D03*
X018522Y013325D03*
X018522Y018050D03*
X020727Y018855D03*
D19*
X007037Y017687D03*
X007037Y010687D03*
D20*
X005267Y004577D02*
X004667Y004577D01*
X004667Y002797D02*
X005267Y002797D01*
X002707Y002797D02*
X002107Y002797D01*
X002107Y004577D02*
X002707Y004577D01*
D21*
X003187Y006587D02*
X003187Y006687D01*
X005437Y006687D01*
X006937Y008187D01*
X011687Y009187D02*
X012437Y008437D01*
X012437Y005937D01*
X015187Y005937D01*
X016687Y005937D01*
X017437Y006687D01*
X020187Y006687D01*
X020392Y006737D01*
X021691Y004740D02*
X021687Y004687D01*
X021437Y004437D01*
X019437Y004437D01*
X018687Y003687D01*
X016437Y003687D01*
X012437Y005937D02*
X011687Y005187D01*
X016437Y007937D02*
X018187Y007937D01*
X019437Y009187D01*
X022437Y009187D01*
X022597Y009134D01*
X021437Y013187D02*
X019437Y013187D01*
X018187Y011937D01*
X016437Y011937D01*
X016687Y014187D02*
X015187Y014187D01*
X012437Y014187D01*
X012437Y016937D01*
X011687Y017687D01*
X014187Y017187D02*
X015187Y017187D01*
X014187Y017187D02*
X014187Y020937D01*
X014087Y020937D01*
X016087Y020937D02*
X016437Y020937D01*
X016437Y019187D01*
X017687Y016187D02*
X019437Y017937D01*
X022437Y017937D01*
X022597Y017884D01*
X020392Y015487D02*
X020187Y015437D01*
X017937Y015437D01*
X016687Y014187D01*
X016437Y016187D02*
X017687Y016187D01*
X021437Y013187D02*
X021687Y013437D01*
X021691Y013490D01*
X012437Y014187D02*
X012187Y014187D01*
X011687Y013687D01*
D22*
X001207Y001565D02*
X001357Y001357D01*
X001565Y001207D01*
X001565Y001207D01*
X001809Y001127D01*
X001937Y001117D01*
X021527Y001117D01*
X021601Y001117D01*
X021681Y001125D01*
X021827Y001186D01*
X021939Y001298D01*
X022000Y001444D01*
X022007Y001523D01*
X022007Y001523D01*
X022007Y001528D01*
X022007Y001598D01*
X022007Y001598D01*
X022007Y001678D01*
X022007Y001678D01*
X022088Y001979D01*
X022088Y001979D01*
X022243Y002248D01*
X022243Y002248D01*
X022300Y002305D01*
X022300Y002305D01*
X022714Y002719D01*
X022729Y002734D01*
X022767Y002772D01*
X022838Y002852D01*
X022945Y003038D01*
X023000Y003244D01*
X023007Y003351D01*
X023007Y003762D01*
X023007Y019523D01*
X023000Y019630D01*
X022945Y019837D01*
X022838Y020022D01*
X022767Y020103D01*
X022714Y020156D01*
X022714Y020156D01*
X022300Y020570D01*
X022300Y020570D01*
X022243Y020627D01*
X022088Y020896D01*
X022088Y020896D01*
X022007Y021196D01*
X022007Y021196D01*
X022007Y021277D01*
X022007Y021277D01*
X022007Y021345D01*
X022007Y021351D01*
X022007Y021352D01*
X022000Y021431D01*
X021939Y021577D01*
X021827Y021689D01*
X021681Y021750D01*
X021602Y021757D01*
X021527Y021757D01*
X001937Y021757D01*
X001809Y021747D01*
X001565Y021668D01*
X001357Y021517D01*
X001207Y021310D01*
X001127Y021066D01*
X001117Y020937D01*
X001117Y002012D01*
X001117Y002000D01*
X001117Y001937D01*
X001127Y001809D01*
X001207Y001565D01*
X001205Y001571D02*
X008838Y001571D01*
X008943Y001467D02*
X009332Y001467D01*
X009607Y001743D01*
X009607Y002132D01*
X009332Y002407D01*
X008943Y002407D01*
X008667Y002132D01*
X008667Y001743D01*
X008943Y001467D01*
X008680Y001730D02*
X001153Y001730D01*
X001121Y001889D02*
X008667Y001889D01*
X008667Y002047D02*
X001117Y002047D01*
X001117Y002206D02*
X008741Y002206D01*
X008900Y002364D02*
X005371Y002364D01*
X005355Y002357D02*
X005517Y002424D01*
X005640Y002548D01*
X005707Y002710D01*
X005707Y002885D01*
X005640Y003047D01*
X005517Y003170D01*
X005355Y003237D01*
X004580Y003237D01*
X004418Y003170D01*
X004294Y003047D01*
X004227Y002885D01*
X004227Y002710D01*
X004294Y002548D01*
X004418Y002424D01*
X004580Y002357D01*
X005355Y002357D01*
X005615Y002523D02*
X022518Y002523D01*
X022360Y002364D02*
X021375Y002364D01*
X021332Y002407D02*
X020943Y002407D01*
X020667Y002132D01*
X020667Y001743D01*
X020943Y001467D01*
X021332Y001467D01*
X021607Y001743D01*
X021607Y002132D01*
X021332Y002407D01*
X021534Y002206D02*
X022219Y002206D01*
X022127Y002047D02*
X021607Y002047D01*
X021607Y001889D02*
X022064Y001889D01*
X022021Y001730D02*
X021595Y001730D01*
X021436Y001571D02*
X022007Y001571D01*
X021987Y001413D02*
X001317Y001413D01*
X001499Y001254D02*
X021896Y001254D01*
X020838Y001571D02*
X020436Y001571D01*
X020332Y001467D02*
X020607Y001743D01*
X020607Y002132D01*
X020332Y002407D01*
X019943Y002407D01*
X019667Y002132D01*
X019667Y001743D01*
X019943Y001467D01*
X020332Y001467D01*
X020595Y001730D02*
X020680Y001730D01*
X020667Y001889D02*
X020607Y001889D01*
X020607Y002047D02*
X020667Y002047D01*
X020741Y002206D02*
X020534Y002206D01*
X020375Y002364D02*
X020900Y002364D01*
X020765Y003280D02*
X020841Y003292D01*
X020915Y003316D01*
X020984Y003351D01*
X021046Y003396D01*
X021100Y003451D01*
X021146Y003513D01*
X021181Y003582D01*
X021205Y003655D01*
X021217Y003731D01*
X021217Y003747D01*
X020750Y003747D01*
X020750Y003793D01*
X021217Y003793D01*
X021217Y003809D01*
X021205Y003885D01*
X021181Y003958D01*
X021146Y004027D01*
X021100Y004089D01*
X021046Y004144D01*
X020984Y004189D01*
X020915Y004224D01*
X020841Y004248D01*
X020765Y004260D01*
X020750Y004260D01*
X020750Y003794D01*
X020703Y003794D01*
X020703Y004260D01*
X020688Y004260D01*
X020612Y004248D01*
X020539Y004224D01*
X020470Y004189D01*
X020407Y004144D01*
X020353Y004089D01*
X020308Y004027D01*
X020273Y003958D01*
X020249Y003885D01*
X020237Y003809D01*
X020237Y003793D01*
X020703Y003793D01*
X020703Y003747D01*
X020237Y003747D01*
X020237Y003731D01*
X020249Y003655D01*
X020273Y003582D01*
X020308Y003513D01*
X020353Y003451D01*
X020407Y003396D01*
X020470Y003351D01*
X020539Y003316D01*
X020612Y003292D01*
X020688Y003280D01*
X020703Y003280D01*
X020703Y003746D01*
X020750Y003746D01*
X020750Y003280D01*
X020765Y003280D01*
X020750Y003315D02*
X020703Y003315D01*
X020703Y003474D02*
X020750Y003474D01*
X020750Y003633D02*
X020703Y003633D01*
X020703Y003791D02*
X019031Y003791D01*
X018873Y003633D02*
X020256Y003633D01*
X020336Y003474D02*
X016790Y003474D01*
X016833Y003517D02*
X016603Y003287D01*
X016272Y003287D01*
X016037Y003522D01*
X016037Y003853D01*
X016272Y004087D01*
X016603Y004087D01*
X016833Y003857D01*
X018617Y003857D01*
X019367Y004607D01*
X019508Y004607D01*
X021359Y004607D01*
X021333Y004669D01*
X021333Y004812D01*
X021388Y004943D01*
X021488Y005044D01*
X021620Y005099D01*
X021762Y005099D01*
X021894Y005044D01*
X021995Y004943D01*
X022049Y004812D01*
X022049Y004669D01*
X021995Y004538D01*
X021894Y004437D01*
X021762Y004382D01*
X021623Y004382D01*
X021607Y004367D01*
X021508Y004267D01*
X019508Y004267D01*
X018857Y003617D01*
X018758Y003517D01*
X016833Y003517D01*
X016631Y003315D02*
X020540Y003315D01*
X020914Y003315D02*
X023005Y003315D01*
X023007Y003474D02*
X021117Y003474D01*
X021197Y003633D02*
X023007Y003633D01*
X023007Y003791D02*
X020750Y003791D01*
X020750Y003950D02*
X020703Y003950D01*
X020703Y004108D02*
X020750Y004108D01*
X021081Y004108D02*
X023007Y004108D01*
X023007Y003950D02*
X021184Y003950D01*
X021333Y004742D02*
X018983Y004742D01*
X018976Y004763D02*
X019000Y004690D01*
X019012Y004614D01*
X019012Y004598D01*
X018546Y004598D01*
X018546Y004552D01*
X019012Y004552D01*
X019012Y004536D01*
X019000Y004460D01*
X018976Y004387D01*
X018941Y004318D01*
X018896Y004256D01*
X018841Y004201D01*
X018779Y004156D01*
X018710Y004121D01*
X018637Y004097D01*
X018561Y004085D01*
X018545Y004085D01*
X018545Y004551D01*
X018499Y004551D01*
X018499Y004085D01*
X018483Y004085D01*
X018407Y004097D01*
X018334Y004121D01*
X018265Y004156D01*
X018203Y004201D01*
X018148Y004256D01*
X018103Y004318D01*
X018068Y004387D01*
X018044Y004460D01*
X018032Y004536D01*
X018032Y004552D01*
X018498Y004552D01*
X018498Y004598D01*
X018032Y004598D01*
X018032Y004614D01*
X018044Y004690D01*
X018068Y004763D01*
X018103Y004832D01*
X018148Y004894D01*
X018203Y004949D01*
X018265Y004994D01*
X018334Y005029D01*
X018407Y005053D01*
X018483Y005065D01*
X018499Y005065D01*
X018499Y004599D01*
X018545Y004599D01*
X018545Y005065D01*
X018561Y005065D01*
X018637Y005053D01*
X018710Y005029D01*
X018779Y004994D01*
X018841Y004949D01*
X018896Y004894D01*
X018941Y004832D01*
X018976Y004763D01*
X018889Y004901D02*
X021370Y004901D01*
X021526Y005059D02*
X018596Y005059D01*
X018545Y005059D02*
X018499Y005059D01*
X018448Y005059D02*
X012087Y005059D01*
X012087Y005022D02*
X012087Y005347D01*
X012508Y005767D01*
X014792Y005767D01*
X015022Y005537D01*
X015353Y005537D01*
X015583Y005767D01*
X016758Y005767D01*
X016857Y005867D01*
X017508Y006517D01*
X018993Y006517D01*
X018987Y006505D01*
X018965Y006440D01*
X018955Y006372D01*
X018955Y006337D01*
X018955Y006303D01*
X018965Y006235D01*
X018987Y006169D01*
X017160Y006169D01*
X017318Y006328D02*
X018955Y006328D01*
X018955Y006337D02*
X019392Y006337D01*
X019392Y005900D01*
X019392Y006337D01*
X019392Y006337D01*
X019392Y006337D01*
X019392Y006337D01*
X019829Y006337D01*
X019829Y006303D01*
X019819Y006235D01*
X019797Y006169D01*
X020062Y006169D01*
X020055Y006162D02*
X019995Y006016D01*
X019995Y005858D01*
X020055Y005712D01*
X020167Y005600D01*
X020313Y005540D01*
X020471Y005540D01*
X020617Y005600D01*
X020729Y005712D01*
X020789Y005858D01*
X020789Y006016D01*
X020729Y006162D01*
X020617Y006274D01*
X020471Y006335D01*
X020313Y006335D01*
X020167Y006274D01*
X020055Y006162D01*
X019995Y006011D02*
X019684Y006011D01*
X019677Y006004D02*
X019726Y006052D01*
X019766Y006108D01*
X019797Y006169D01*
X019829Y006328D02*
X020296Y006328D01*
X020313Y006340D02*
X020167Y006400D01*
X020055Y006512D01*
X020053Y006517D01*
X019791Y006517D01*
X019797Y006505D01*
X019819Y006440D01*
X019829Y006372D01*
X019829Y006337D01*
X019392Y006337D01*
X018955Y006337D01*
X018981Y006486D02*
X017477Y006486D01*
X017154Y006645D02*
X016837Y006645D01*
X016837Y006522D02*
X016603Y006287D01*
X016272Y006287D01*
X016037Y006522D01*
X016037Y006853D01*
X016272Y007087D01*
X016603Y007087D01*
X016837Y006853D01*
X016837Y006522D01*
X016802Y006486D02*
X016996Y006486D01*
X016837Y006328D02*
X016643Y006328D01*
X016679Y006169D02*
X015521Y006169D01*
X015583Y006107D02*
X015353Y006337D01*
X015022Y006337D01*
X014792Y006107D01*
X012607Y006107D01*
X012607Y008508D01*
X012508Y008607D01*
X012087Y009028D01*
X012087Y009353D01*
X011853Y009587D01*
X011522Y009587D01*
X011287Y009353D01*
X011287Y009022D01*
X011522Y008787D01*
X011847Y008787D01*
X012267Y008367D01*
X012267Y006008D01*
X011847Y005587D01*
X011522Y005587D01*
X011287Y005353D01*
X011287Y005022D01*
X011522Y004787D01*
X011853Y004787D01*
X012087Y005022D01*
X011967Y004901D02*
X018155Y004901D01*
X018061Y004742D02*
X005718Y004742D01*
X005712Y004762D02*
X005735Y004690D01*
X005747Y004615D01*
X005747Y004597D01*
X004988Y004597D01*
X004988Y004557D01*
X005747Y004557D01*
X005747Y004540D01*
X005735Y004465D01*
X005712Y004393D01*
X005678Y004326D01*
X005633Y004265D01*
X005580Y004211D01*
X005519Y004167D01*
X005452Y004132D01*
X005380Y004109D01*
X005305Y004097D01*
X004987Y004097D01*
X004987Y004557D01*
X004947Y004557D01*
X004947Y004097D01*
X004630Y004097D01*
X004555Y004109D01*
X004483Y004132D01*
X004416Y004167D01*
X004355Y004211D01*
X004301Y004265D01*
X004257Y004326D01*
X004222Y004393D01*
X004199Y004465D01*
X004187Y004540D01*
X004187Y004557D01*
X004947Y004557D01*
X004947Y004597D01*
X004187Y004597D01*
X004187Y004615D01*
X004199Y004690D01*
X004222Y004762D01*
X004257Y004829D01*
X004301Y004890D01*
X004355Y004943D01*
X004416Y004988D01*
X004483Y005022D01*
X004555Y005045D01*
X004630Y005057D01*
X004947Y005057D01*
X004947Y004598D01*
X004987Y004598D01*
X004987Y005057D01*
X005305Y005057D01*
X005380Y005045D01*
X005452Y005022D01*
X005519Y004988D01*
X005580Y004943D01*
X005633Y004890D01*
X005678Y004829D01*
X005712Y004762D01*
X005623Y004901D02*
X011408Y004901D01*
X011287Y005059D02*
X001117Y005059D01*
X001117Y004901D02*
X001752Y004901D01*
X001741Y004890D02*
X001697Y004829D01*
X001662Y004762D01*
X001639Y004690D01*
X001627Y004615D01*
X001627Y004597D01*
X002387Y004597D01*
X002387Y004557D01*
X002427Y004557D01*
X002427Y004097D01*
X002745Y004097D01*
X002820Y004109D01*
X002892Y004132D01*
X002959Y004167D01*
X003020Y004211D01*
X003073Y004265D01*
X003118Y004326D01*
X003152Y004393D01*
X003175Y004465D01*
X003187Y004540D01*
X003187Y004557D01*
X002428Y004557D01*
X002428Y004597D01*
X003187Y004597D01*
X003187Y004615D01*
X003175Y004690D01*
X003152Y004762D01*
X003118Y004829D01*
X003073Y004890D01*
X003020Y004943D01*
X002959Y004988D01*
X002892Y005022D01*
X002820Y005045D01*
X002745Y005057D01*
X002427Y005057D01*
X002427Y004598D01*
X002387Y004598D01*
X002387Y005057D01*
X002070Y005057D01*
X001995Y005045D01*
X001923Y005022D01*
X001856Y004988D01*
X001795Y004943D01*
X001741Y004890D01*
X001656Y004742D02*
X001117Y004742D01*
X001117Y004584D02*
X002387Y004584D01*
X002387Y004557D02*
X001627Y004557D01*
X001627Y004540D01*
X001639Y004465D01*
X001662Y004393D01*
X001697Y004326D01*
X001741Y004265D01*
X001795Y004211D01*
X001856Y004167D01*
X001923Y004132D01*
X001995Y004109D01*
X002070Y004097D01*
X002387Y004097D01*
X002387Y004557D01*
X002428Y004584D02*
X004947Y004584D01*
X004988Y004584D02*
X011462Y004584D01*
X011505Y004627D02*
X011247Y004370D01*
X011247Y004187D01*
X011247Y004005D01*
X011505Y003747D01*
X011687Y003747D01*
X011687Y004187D01*
X011247Y004187D01*
X011687Y004187D01*
X011687Y004187D01*
X011687Y004187D01*
X011687Y003747D01*
X011870Y003747D01*
X012127Y004005D01*
X012127Y004187D01*
X011688Y004187D01*
X011688Y004187D01*
X012127Y004187D01*
X012127Y004370D01*
X011870Y004627D01*
X011687Y004627D01*
X011505Y004627D01*
X011687Y004627D02*
X011687Y004188D01*
X011687Y004188D01*
X011687Y004627D01*
X011687Y004584D02*
X011687Y004584D01*
X011687Y004425D02*
X011687Y004425D01*
X011687Y004267D02*
X011687Y004267D01*
X011687Y004108D02*
X011687Y004108D01*
X011687Y003950D02*
X011687Y003950D01*
X011687Y003791D02*
X011687Y003791D01*
X011461Y003791D02*
X001117Y003791D01*
X001117Y003633D02*
X016037Y003633D01*
X016037Y003791D02*
X011913Y003791D01*
X012072Y003950D02*
X016134Y003950D01*
X016085Y003474D02*
X001117Y003474D01*
X001117Y003315D02*
X016244Y003315D01*
X016741Y003950D02*
X018709Y003950D01*
X018671Y004108D02*
X018868Y004108D01*
X018904Y004267D02*
X019026Y004267D01*
X018989Y004425D02*
X019185Y004425D01*
X019343Y004584D02*
X018546Y004584D01*
X018498Y004584D02*
X011913Y004584D01*
X012072Y004425D02*
X018055Y004425D01*
X018140Y004267D02*
X012127Y004267D01*
X012127Y004108D02*
X018373Y004108D01*
X018499Y004108D02*
X018545Y004108D01*
X018545Y004267D02*
X018499Y004267D01*
X018499Y004425D02*
X018545Y004425D01*
X018545Y004742D02*
X018499Y004742D01*
X018499Y004901D02*
X018545Y004901D01*
X019058Y005252D02*
X019107Y005204D01*
X019163Y005163D01*
X019224Y005132D01*
X019290Y005111D01*
X019358Y005100D01*
X019392Y005100D01*
X019426Y005100D01*
X019494Y005111D01*
X019560Y005132D01*
X019621Y005163D01*
X019677Y005204D01*
X019726Y005252D01*
X019766Y005308D01*
X019797Y005369D01*
X019819Y005435D01*
X019829Y005503D01*
X019829Y005537D01*
X019392Y005537D01*
X019392Y005100D01*
X019392Y005537D01*
X019392Y005537D01*
X018955Y005537D01*
X018955Y005503D01*
X018965Y005435D01*
X018987Y005369D01*
X019018Y005308D01*
X019058Y005252D01*
X019093Y005218D02*
X012087Y005218D01*
X012117Y005377D02*
X018984Y005377D01*
X018955Y005535D02*
X012275Y005535D01*
X012434Y005694D02*
X014865Y005694D01*
X014854Y006169D02*
X012607Y006169D01*
X012607Y006328D02*
X015012Y006328D01*
X015362Y006328D02*
X016231Y006328D01*
X016073Y006486D02*
X012607Y006486D01*
X012607Y006645D02*
X016037Y006645D01*
X016037Y006803D02*
X012607Y006803D01*
X012607Y006962D02*
X016146Y006962D01*
X016728Y006962D02*
X018990Y006962D01*
X018987Y006969D02*
X019018Y006908D01*
X019055Y006857D01*
X017508Y006857D01*
X017367Y006857D01*
X016617Y006107D01*
X015583Y006107D01*
X015509Y005694D02*
X018983Y005694D01*
X018987Y005705D02*
X018965Y005640D01*
X018955Y005572D01*
X018955Y005537D01*
X019392Y005537D01*
X019392Y005537D01*
X019392Y005537D01*
X019829Y005537D01*
X019829Y005572D01*
X019819Y005640D01*
X019797Y005705D01*
X019766Y005767D01*
X019726Y005822D01*
X019677Y005871D01*
X019621Y005911D01*
X019571Y005937D01*
X019621Y005963D01*
X019677Y006004D01*
X019696Y005852D02*
X019997Y005852D01*
X020074Y005694D02*
X019801Y005694D01*
X019829Y005535D02*
X022270Y005535D01*
X022288Y005561D02*
X022244Y005496D01*
X022214Y005424D01*
X022199Y005347D01*
X022199Y005308D01*
X022596Y005308D01*
X022596Y005307D01*
X022199Y005307D01*
X022199Y005268D01*
X022214Y005191D01*
X022244Y005119D01*
X022288Y005054D01*
X022343Y004998D01*
X022408Y004955D01*
X022481Y004925D01*
X022558Y004909D01*
X022597Y004909D01*
X022636Y004909D01*
X022713Y004925D01*
X022785Y004955D01*
X022851Y004998D01*
X022906Y005054D01*
X022950Y005119D01*
X022980Y005191D01*
X022995Y005268D01*
X022995Y005307D01*
X022597Y005307D01*
X022597Y004909D01*
X022597Y005307D01*
X022597Y005307D01*
X022597Y005308D01*
X022597Y005308D01*
X022597Y005705D01*
X022636Y005705D01*
X022713Y005690D01*
X022785Y005660D01*
X022851Y005617D01*
X022906Y005561D01*
X022950Y005496D01*
X022980Y005424D01*
X022995Y005347D01*
X022995Y005308D01*
X022597Y005308D01*
X022597Y005705D01*
X022558Y005705D01*
X022481Y005690D01*
X022408Y005660D01*
X022343Y005617D01*
X022288Y005561D01*
X022205Y005377D02*
X019800Y005377D01*
X019691Y005218D02*
X022209Y005218D01*
X022284Y005059D02*
X021857Y005059D01*
X022012Y004901D02*
X023007Y004901D01*
X023007Y005059D02*
X022910Y005059D01*
X022985Y005218D02*
X023007Y005218D01*
X023007Y005377D02*
X022989Y005377D01*
X023007Y005535D02*
X022923Y005535D01*
X023007Y005694D02*
X022696Y005694D01*
X022597Y005694D02*
X022597Y005694D01*
X022498Y005694D02*
X020710Y005694D01*
X020787Y005852D02*
X023007Y005852D01*
X023007Y006011D02*
X020789Y006011D01*
X020722Y006169D02*
X023007Y006169D01*
X023007Y006328D02*
X020488Y006328D01*
X020471Y006340D02*
X020313Y006340D01*
X020471Y006340D02*
X020617Y006400D01*
X020729Y006512D01*
X020789Y006658D01*
X020789Y006816D01*
X020729Y006962D01*
X023007Y006962D01*
X023007Y007121D02*
X020506Y007121D01*
X020471Y007135D02*
X020313Y007135D01*
X020167Y007074D01*
X020055Y006962D01*
X019794Y006962D01*
X019797Y006969D02*
X019819Y007035D01*
X019829Y007103D01*
X019829Y007137D01*
X019392Y007137D01*
X018955Y007137D01*
X018955Y007103D01*
X018965Y007035D01*
X018987Y006969D01*
X018955Y007121D02*
X012607Y007121D01*
X012607Y007279D02*
X018978Y007279D01*
X018987Y007305D02*
X018965Y007240D01*
X018955Y007172D01*
X018955Y007137D01*
X019392Y007137D01*
X019392Y007137D01*
X019392Y007137D01*
X019829Y007137D01*
X019829Y007172D01*
X019819Y007240D01*
X019797Y007305D01*
X019766Y007367D01*
X019726Y007422D01*
X019677Y007471D01*
X019621Y007511D01*
X019560Y007543D01*
X019514Y007558D01*
X019617Y007600D01*
X019729Y007712D01*
X019789Y007858D01*
X019789Y008016D01*
X019729Y008162D01*
X019617Y008274D01*
X019471Y008335D01*
X019313Y008335D01*
X019167Y008274D01*
X019055Y008162D01*
X018995Y008016D01*
X018995Y007858D01*
X019055Y007712D01*
X019167Y007600D01*
X019270Y007558D01*
X019224Y007543D01*
X019163Y007511D01*
X019107Y007471D01*
X019058Y007422D01*
X019018Y007367D01*
X018987Y007305D01*
X019074Y007438D02*
X012607Y007438D01*
X012607Y007596D02*
X016213Y007596D01*
X016272Y007537D02*
X016603Y007537D01*
X016833Y007767D01*
X018258Y007767D01*
X018357Y007867D01*
X019508Y009017D01*
X022258Y009017D01*
X022293Y008931D01*
X022394Y008831D01*
X022526Y008776D01*
X022668Y008776D01*
X022800Y008831D01*
X022900Y008931D01*
X022955Y009063D01*
X022955Y009205D01*
X022900Y009337D01*
X022800Y009438D01*
X022668Y009492D01*
X022526Y009492D01*
X022394Y009438D01*
X022313Y009357D01*
X019508Y009357D01*
X019367Y009357D01*
X018117Y008107D01*
X016833Y008107D01*
X016603Y008337D01*
X016272Y008337D01*
X016037Y008103D01*
X016037Y007772D01*
X016272Y007537D01*
X016054Y007755D02*
X012607Y007755D01*
X012607Y007913D02*
X016037Y007913D01*
X016037Y008072D02*
X012607Y008072D01*
X012607Y008230D02*
X016165Y008230D01*
X016710Y008230D02*
X018240Y008230D01*
X018398Y008389D02*
X012607Y008389D01*
X012568Y008547D02*
X015012Y008547D01*
X015022Y008537D02*
X015353Y008537D01*
X015587Y008772D01*
X015587Y009103D01*
X015353Y009337D01*
X015022Y009337D01*
X014787Y009103D01*
X014787Y008772D01*
X015022Y008537D01*
X014853Y008706D02*
X012409Y008706D01*
X012251Y008864D02*
X014787Y008864D01*
X014787Y009023D02*
X012092Y009023D01*
X012087Y009182D02*
X014866Y009182D01*
X015509Y009182D02*
X018045Y009182D01*
X018044Y009185D02*
X018068Y009111D01*
X018103Y009043D01*
X018148Y008980D01*
X018203Y008926D01*
X018265Y008880D01*
X018334Y008845D01*
X018407Y008822D01*
X018483Y008809D01*
X018499Y008809D01*
X018499Y009276D01*
X018545Y009276D01*
X018545Y008809D01*
X018561Y008809D01*
X018637Y008822D01*
X018710Y008845D01*
X018779Y008880D01*
X018841Y008926D01*
X018896Y008980D01*
X018941Y009043D01*
X018976Y009111D01*
X019000Y009185D01*
X019012Y009261D01*
X019012Y009276D01*
X018546Y009276D01*
X018546Y009323D01*
X019012Y009323D01*
X019012Y009338D01*
X019000Y009414D01*
X018976Y009488D01*
X018941Y009556D01*
X018896Y009619D01*
X018841Y009673D01*
X018779Y009719D01*
X018710Y009754D01*
X018637Y009777D01*
X018561Y009790D01*
X018545Y009790D01*
X018545Y009323D01*
X018499Y009323D01*
X018499Y009790D01*
X018483Y009790D01*
X018407Y009777D01*
X018334Y009754D01*
X018265Y009719D01*
X018203Y009673D01*
X018148Y009619D01*
X018103Y009556D01*
X018068Y009488D01*
X018044Y009414D01*
X018032Y009338D01*
X018032Y009323D01*
X018498Y009323D01*
X018498Y009276D01*
X018032Y009276D01*
X018032Y009261D01*
X018044Y009185D01*
X018032Y009340D02*
X012087Y009340D01*
X011942Y009499D02*
X018073Y009499D01*
X018187Y009657D02*
X004147Y009657D01*
X004147Y009499D02*
X011433Y009499D01*
X011287Y009340D02*
X004147Y009340D01*
X004147Y009187D02*
X004147Y009991D01*
X004135Y010037D01*
X004111Y010078D01*
X004078Y010111D01*
X004037Y010135D01*
X003991Y010147D01*
X003187Y010147D01*
X002384Y010147D01*
X002338Y010135D01*
X002297Y010111D01*
X002263Y010078D01*
X002240Y010037D01*
X002227Y009991D01*
X002227Y009187D01*
X002227Y008384D01*
X002240Y008338D01*
X002263Y008297D01*
X002297Y008263D01*
X002338Y008240D01*
X002384Y008227D01*
X003187Y008227D01*
X003187Y009187D01*
X003187Y009187D01*
X002227Y009187D01*
X003187Y009187D01*
X003187Y009187D01*
X003187Y008227D01*
X003991Y008227D01*
X004037Y008240D01*
X004078Y008263D01*
X004111Y008297D01*
X004135Y008338D01*
X004147Y008384D01*
X004147Y009187D01*
X003188Y009187D01*
X003188Y009187D01*
X004147Y009187D01*
X004147Y009182D02*
X011287Y009182D01*
X011287Y009023D02*
X004147Y009023D01*
X004147Y008864D02*
X011444Y008864D01*
X011505Y008627D02*
X011247Y008370D01*
X011247Y008187D01*
X011247Y008005D01*
X011505Y007747D01*
X011687Y007747D01*
X011687Y008187D01*
X011247Y008187D01*
X011687Y008187D01*
X011687Y008187D01*
X011687Y008187D01*
X011687Y007747D01*
X011870Y007747D01*
X012127Y008005D01*
X012127Y008187D01*
X011688Y008187D01*
X011688Y008187D01*
X012127Y008187D01*
X012127Y008370D01*
X011870Y008627D01*
X011687Y008627D01*
X011505Y008627D01*
X011425Y008547D02*
X008228Y008547D01*
X008128Y008647D02*
X007937Y008647D01*
X007747Y008647D01*
X007477Y008378D01*
X007477Y008187D01*
X007477Y007997D01*
X007747Y007727D01*
X007937Y007727D01*
X007937Y008187D01*
X007937Y008187D01*
X007477Y008187D01*
X007937Y008187D01*
X007937Y008187D01*
X007937Y007727D01*
X008128Y007727D01*
X008397Y007997D01*
X008397Y008187D01*
X007938Y008187D01*
X007938Y008187D01*
X008397Y008187D01*
X008397Y008378D01*
X008128Y008647D01*
X007937Y008647D02*
X007937Y008188D01*
X007937Y008647D01*
X007937Y008547D02*
X007937Y008547D01*
X007937Y008389D02*
X007937Y008389D01*
X007937Y008230D02*
X007937Y008230D01*
X007937Y008188D02*
X007937Y008188D01*
X007937Y008072D02*
X007937Y008072D01*
X007937Y007913D02*
X007937Y007913D01*
X007937Y007755D02*
X007937Y007755D01*
X007719Y007755D02*
X006745Y007755D01*
X006761Y007770D02*
X006763Y007767D01*
X007111Y007767D01*
X007357Y008013D01*
X007357Y008361D01*
X007111Y008607D01*
X006763Y008607D01*
X006517Y008361D01*
X006517Y008013D01*
X006520Y008011D01*
X005367Y006857D01*
X003903Y006857D01*
X003836Y007021D01*
X003621Y007236D01*
X003339Y007352D01*
X003035Y007352D01*
X002754Y007236D01*
X002539Y007021D01*
X002422Y006739D01*
X002422Y006435D01*
X002539Y006154D01*
X002754Y005939D01*
X003035Y005822D01*
X003339Y005822D01*
X003621Y005939D01*
X003836Y006154D01*
X003952Y006435D01*
X003952Y006517D01*
X005508Y006517D01*
X005607Y006617D01*
X006761Y007770D01*
X006587Y007596D02*
X012267Y007596D01*
X012267Y007438D02*
X006428Y007438D01*
X006269Y007279D02*
X012267Y007279D01*
X012267Y007121D02*
X006111Y007121D01*
X005952Y006962D02*
X012267Y006962D01*
X012267Y006803D02*
X005794Y006803D01*
X005635Y006645D02*
X012267Y006645D01*
X012267Y006486D02*
X011954Y006486D01*
X011853Y006587D02*
X012087Y006353D01*
X012087Y006022D01*
X011853Y005787D01*
X011522Y005787D01*
X011287Y006022D01*
X011287Y006353D01*
X011522Y006587D01*
X011853Y006587D01*
X012087Y006328D02*
X012267Y006328D01*
X012267Y006169D02*
X012087Y006169D01*
X012076Y006011D02*
X012267Y006011D01*
X012112Y005852D02*
X011918Y005852D01*
X011953Y005694D02*
X001117Y005694D01*
X001117Y005852D02*
X002963Y005852D01*
X002682Y006011D02*
X001117Y006011D01*
X001117Y006169D02*
X002532Y006169D01*
X002467Y006328D02*
X001117Y006328D01*
X001117Y006486D02*
X002422Y006486D01*
X002422Y006645D02*
X001117Y006645D01*
X001117Y006803D02*
X002449Y006803D01*
X002514Y006962D02*
X001117Y006962D01*
X001117Y007121D02*
X002639Y007121D01*
X002858Y007279D02*
X001117Y007279D01*
X001117Y007438D02*
X005947Y007438D01*
X006106Y007596D02*
X001117Y007596D01*
X001117Y007755D02*
X006264Y007755D01*
X006423Y007913D02*
X001117Y007913D01*
X001117Y008072D02*
X006517Y008072D01*
X006517Y008230D02*
X004002Y008230D01*
X004147Y008389D02*
X006545Y008389D01*
X006703Y008547D02*
X004147Y008547D01*
X004147Y008706D02*
X011928Y008706D01*
X011949Y008547D02*
X012087Y008547D01*
X012108Y008389D02*
X012245Y008389D01*
X012267Y008230D02*
X012127Y008230D01*
X012127Y008072D02*
X012267Y008072D01*
X012267Y007913D02*
X012035Y007913D01*
X011877Y007755D02*
X012267Y007755D01*
X011687Y007755D02*
X011687Y007755D01*
X011687Y007913D02*
X011687Y007913D01*
X011687Y008072D02*
X011687Y008072D01*
X011687Y008188D02*
X011687Y008627D01*
X011687Y008188D01*
X011687Y008188D01*
X011687Y008230D02*
X011687Y008230D01*
X011687Y008389D02*
X011687Y008389D01*
X011687Y008547D02*
X011687Y008547D01*
X011267Y008389D02*
X008386Y008389D01*
X008397Y008230D02*
X011247Y008230D01*
X011247Y008072D02*
X008397Y008072D01*
X008314Y007913D02*
X011339Y007913D01*
X011498Y007755D02*
X008155Y007755D01*
X007561Y007913D02*
X007257Y007913D01*
X007357Y008072D02*
X007477Y008072D01*
X007477Y008230D02*
X007357Y008230D01*
X007330Y008389D02*
X007488Y008389D01*
X007647Y008547D02*
X007171Y008547D01*
X005789Y007279D02*
X003516Y007279D01*
X003736Y007121D02*
X005630Y007121D01*
X005472Y006962D02*
X003860Y006962D01*
X003952Y006486D02*
X011421Y006486D01*
X011287Y006328D02*
X003908Y006328D01*
X003842Y006169D02*
X011287Y006169D01*
X011298Y006011D02*
X003693Y006011D01*
X003411Y005852D02*
X011457Y005852D01*
X011469Y005535D02*
X001117Y005535D01*
X001117Y005377D02*
X011311Y005377D01*
X011287Y005218D02*
X001117Y005218D01*
X001117Y004425D02*
X001652Y004425D01*
X001740Y004267D02*
X001117Y004267D01*
X001117Y004108D02*
X002001Y004108D01*
X002387Y004108D02*
X002427Y004108D01*
X002427Y004267D02*
X002387Y004267D01*
X002387Y004425D02*
X002427Y004425D01*
X002427Y004742D02*
X002387Y004742D01*
X002387Y004901D02*
X002427Y004901D01*
X003063Y004901D02*
X004312Y004901D01*
X004216Y004742D02*
X003158Y004742D01*
X003163Y004425D02*
X004212Y004425D01*
X004300Y004267D02*
X003075Y004267D01*
X002814Y004108D02*
X004561Y004108D01*
X004947Y004108D02*
X004987Y004108D01*
X004987Y004267D02*
X004947Y004267D01*
X004947Y004425D02*
X004987Y004425D01*
X004987Y004742D02*
X004947Y004742D01*
X004947Y004901D02*
X004987Y004901D01*
X005723Y004425D02*
X011303Y004425D01*
X011247Y004267D02*
X005635Y004267D01*
X005374Y004108D02*
X011247Y004108D01*
X011303Y003950D02*
X001117Y003950D01*
X001858Y003170D02*
X001734Y003047D01*
X001667Y002885D01*
X001667Y002710D01*
X001734Y002548D01*
X001858Y002424D01*
X002020Y002357D01*
X002795Y002357D01*
X002957Y002424D01*
X003080Y002548D01*
X003147Y002710D01*
X003147Y002885D01*
X003080Y003047D01*
X002957Y003170D01*
X002795Y003237D01*
X002020Y003237D01*
X001858Y003170D01*
X001845Y003157D02*
X001117Y003157D01*
X001117Y002998D02*
X001714Y002998D01*
X001667Y002840D02*
X001117Y002840D01*
X001117Y002681D02*
X001679Y002681D01*
X001760Y002523D02*
X001117Y002523D01*
X001117Y002364D02*
X002003Y002364D01*
X002811Y002364D02*
X004563Y002364D01*
X004320Y002523D02*
X003055Y002523D01*
X003135Y002681D02*
X004239Y002681D01*
X004227Y002840D02*
X003147Y002840D01*
X003100Y002998D02*
X004274Y002998D01*
X004405Y003157D02*
X002970Y003157D01*
X005530Y003157D02*
X022977Y003157D01*
X022922Y002998D02*
X005660Y002998D01*
X005707Y002840D02*
X022827Y002840D01*
X022677Y002681D02*
X005695Y002681D01*
X009375Y002364D02*
X009900Y002364D01*
X009943Y002407D02*
X009667Y002132D01*
X009667Y001743D01*
X009943Y001467D01*
X010332Y001467D01*
X010607Y001743D01*
X010607Y002132D01*
X010332Y002407D01*
X009943Y002407D01*
X009741Y002206D02*
X009534Y002206D01*
X009607Y002047D02*
X009667Y002047D01*
X009667Y001889D02*
X009607Y001889D01*
X009595Y001730D02*
X009680Y001730D01*
X009838Y001571D02*
X009436Y001571D01*
X010436Y001571D02*
X010838Y001571D01*
X010943Y001467D02*
X011332Y001467D01*
X011607Y001743D01*
X011607Y002132D01*
X011332Y002407D01*
X010943Y002407D01*
X010667Y002132D01*
X010667Y001743D01*
X010943Y001467D01*
X010680Y001730D02*
X010595Y001730D01*
X010607Y001889D02*
X010667Y001889D01*
X010667Y002047D02*
X010607Y002047D01*
X010534Y002206D02*
X010741Y002206D01*
X010900Y002364D02*
X010375Y002364D01*
X011375Y002364D02*
X011843Y002364D01*
X011926Y002447D02*
X011627Y002149D01*
X011627Y001956D01*
X012119Y001956D01*
X012119Y002447D01*
X011926Y002447D01*
X012119Y002364D02*
X012156Y002364D01*
X012156Y002447D02*
X012156Y001956D01*
X012119Y001956D01*
X012119Y001919D01*
X012156Y001919D01*
X012156Y001956D01*
X012647Y001956D01*
X013119Y001956D01*
X013119Y002447D01*
X012926Y002447D01*
X012637Y002159D01*
X012349Y002447D01*
X012156Y002447D01*
X012156Y002206D02*
X012119Y002206D01*
X012119Y002047D02*
X012156Y002047D01*
X012156Y001919D02*
X012647Y001919D01*
X013119Y001919D01*
X013156Y001919D01*
X013156Y001956D01*
X013119Y001956D01*
X013119Y001919D01*
X013119Y001427D01*
X012926Y001427D01*
X012637Y001716D01*
X012349Y001427D01*
X012156Y001427D01*
X012156Y001919D01*
X012156Y001889D02*
X012119Y001889D01*
X012119Y001919D02*
X012119Y001427D01*
X011926Y001427D01*
X011627Y001726D01*
X011627Y001919D01*
X012119Y001919D01*
X012119Y001730D02*
X012156Y001730D01*
X012156Y001571D02*
X012119Y001571D01*
X011782Y001571D02*
X011436Y001571D01*
X011595Y001730D02*
X011627Y001730D01*
X011627Y001889D02*
X011607Y001889D01*
X011607Y002047D02*
X011627Y002047D01*
X011684Y002206D02*
X011534Y002206D01*
X012432Y002364D02*
X012843Y002364D01*
X012684Y002206D02*
X012590Y002206D01*
X013119Y002206D02*
X013156Y002206D01*
X013156Y002364D02*
X013119Y002364D01*
X013156Y002447D02*
X013156Y001956D01*
X013647Y001956D01*
X013647Y002149D01*
X013349Y002447D01*
X013156Y002447D01*
X013156Y002047D02*
X013119Y002047D01*
X013156Y001919D02*
X013647Y001919D01*
X013647Y001726D01*
X013349Y001427D01*
X013156Y001427D01*
X013156Y001919D01*
X013156Y001889D02*
X013119Y001889D01*
X013119Y001730D02*
X013156Y001730D01*
X013156Y001571D02*
X013119Y001571D01*
X012782Y001571D02*
X012493Y001571D01*
X013493Y001571D02*
X013838Y001571D01*
X013943Y001467D02*
X013667Y001743D01*
X013667Y002132D01*
X013943Y002407D01*
X014332Y002407D01*
X014607Y002132D01*
X014607Y001743D01*
X014332Y001467D01*
X013943Y001467D01*
X013680Y001730D02*
X013647Y001730D01*
X013647Y001889D02*
X013667Y001889D01*
X013667Y002047D02*
X013647Y002047D01*
X013590Y002206D02*
X013741Y002206D01*
X013900Y002364D02*
X013432Y002364D01*
X014375Y002364D02*
X015900Y002364D01*
X015943Y002407D02*
X015667Y002132D01*
X015667Y001743D01*
X015943Y001467D01*
X016332Y001467D01*
X016607Y001743D01*
X016607Y002132D01*
X016332Y002407D01*
X015943Y002407D01*
X015741Y002206D02*
X014534Y002206D01*
X014607Y002047D02*
X015667Y002047D01*
X015667Y001889D02*
X014607Y001889D01*
X014595Y001730D02*
X015680Y001730D01*
X015838Y001571D02*
X014436Y001571D01*
X016436Y001571D02*
X016838Y001571D01*
X016943Y001467D02*
X017332Y001467D01*
X017607Y001743D01*
X017607Y002132D01*
X017332Y002407D01*
X016943Y002407D01*
X016667Y002132D01*
X016667Y001743D01*
X016943Y001467D01*
X016680Y001730D02*
X016595Y001730D01*
X016607Y001889D02*
X016667Y001889D01*
X016667Y002047D02*
X016607Y002047D01*
X016534Y002206D02*
X016741Y002206D01*
X016900Y002364D02*
X016375Y002364D01*
X017375Y002364D02*
X017900Y002364D01*
X017943Y002407D02*
X017667Y002132D01*
X017667Y001743D01*
X017943Y001467D01*
X018332Y001467D01*
X018607Y001743D01*
X018607Y002132D01*
X018332Y002407D01*
X017943Y002407D01*
X017741Y002206D02*
X017534Y002206D01*
X017607Y002047D02*
X017667Y002047D01*
X017667Y001889D02*
X017607Y001889D01*
X017595Y001730D02*
X017680Y001730D01*
X017838Y001571D02*
X017436Y001571D01*
X018436Y001571D02*
X018838Y001571D01*
X018943Y001467D02*
X019332Y001467D01*
X019607Y001743D01*
X019607Y002132D01*
X019332Y002407D01*
X018943Y002407D01*
X018667Y002132D01*
X018667Y001743D01*
X018943Y001467D01*
X018680Y001730D02*
X018595Y001730D01*
X018607Y001889D02*
X018667Y001889D01*
X018667Y002047D02*
X018607Y002047D01*
X018534Y002206D02*
X018741Y002206D01*
X018900Y002364D02*
X018375Y002364D01*
X019375Y002364D02*
X019900Y002364D01*
X019741Y002206D02*
X019534Y002206D01*
X019607Y002047D02*
X019667Y002047D01*
X019667Y001889D02*
X019607Y001889D01*
X019595Y001730D02*
X019680Y001730D01*
X019838Y001571D02*
X019436Y001571D01*
X019190Y003950D02*
X020270Y003950D01*
X020372Y004108D02*
X019349Y004108D01*
X019507Y004267D02*
X023007Y004267D01*
X023007Y004425D02*
X021866Y004425D01*
X022014Y004584D02*
X023007Y004584D01*
X023007Y004742D02*
X022049Y004742D01*
X022597Y005059D02*
X022597Y005059D01*
X022597Y005218D02*
X022597Y005218D01*
X022597Y005377D02*
X022597Y005377D01*
X022597Y005535D02*
X022597Y005535D01*
X023007Y006486D02*
X020703Y006486D01*
X020784Y006645D02*
X023007Y006645D01*
X023007Y006803D02*
X020789Y006803D01*
X020729Y006962D02*
X020617Y007074D01*
X020471Y007135D01*
X020471Y007140D02*
X020617Y007200D01*
X020729Y007312D01*
X020789Y007458D01*
X020789Y007616D01*
X020729Y007762D01*
X020617Y007874D01*
X020514Y007917D01*
X020560Y007932D01*
X020621Y007963D01*
X020677Y008004D01*
X020726Y008052D01*
X020766Y008108D01*
X020797Y008169D01*
X020819Y008235D01*
X020829Y008303D01*
X020829Y008337D01*
X020392Y008337D01*
X019955Y008337D01*
X019955Y008303D01*
X019965Y008235D01*
X019987Y008169D01*
X020018Y008108D01*
X020058Y008052D01*
X020107Y008004D01*
X020163Y007963D01*
X020224Y007932D01*
X020270Y007917D01*
X020167Y007874D01*
X020055Y007762D01*
X019995Y007616D01*
X019995Y007458D01*
X020055Y007312D01*
X020167Y007200D01*
X020313Y007140D01*
X020471Y007140D01*
X020279Y007121D02*
X019829Y007121D01*
X019797Y006969D02*
X019766Y006908D01*
X019729Y006857D01*
X020012Y006857D01*
X020055Y006962D01*
X020088Y007279D02*
X019806Y007279D01*
X019710Y007438D02*
X020003Y007438D01*
X019995Y007596D02*
X019607Y007596D01*
X019747Y007755D02*
X020052Y007755D01*
X020261Y007913D02*
X019789Y007913D01*
X019767Y008072D02*
X020044Y008072D01*
X019967Y008230D02*
X019661Y008230D01*
X019955Y008337D02*
X019955Y008372D01*
X019965Y008440D01*
X019987Y008505D01*
X020018Y008567D01*
X020058Y008622D01*
X020107Y008671D01*
X020163Y008711D01*
X020224Y008743D01*
X020290Y008764D01*
X020358Y008775D01*
X020392Y008775D01*
X020392Y008338D01*
X020392Y008338D01*
X020392Y008775D01*
X020426Y008775D01*
X020494Y008764D01*
X020560Y008743D01*
X020621Y008711D01*
X020677Y008671D01*
X020726Y008622D01*
X020766Y008567D01*
X020797Y008505D01*
X020819Y008440D01*
X020829Y008372D01*
X020829Y008337D01*
X020392Y008337D01*
X020392Y008337D01*
X020392Y008337D01*
X019955Y008337D01*
X019957Y008389D02*
X018879Y008389D01*
X018721Y008230D02*
X019123Y008230D01*
X019018Y008072D02*
X018562Y008072D01*
X018404Y007913D02*
X018995Y007913D01*
X019037Y007755D02*
X016820Y007755D01*
X016662Y007596D02*
X019177Y007596D01*
X019038Y008547D02*
X020008Y008547D01*
X020155Y008706D02*
X019196Y008706D01*
X019355Y008864D02*
X021426Y008864D01*
X021437Y008876D02*
X021382Y008821D01*
X021338Y008756D01*
X021308Y008683D01*
X021293Y008606D01*
X021293Y008567D01*
X021293Y008528D01*
X021308Y008451D01*
X021338Y008379D01*
X021382Y008313D01*
X021437Y008258D01*
X021503Y008214D01*
X021575Y008184D01*
X021652Y008169D01*
X021691Y008169D01*
X021691Y008567D01*
X021293Y008567D01*
X021691Y008567D01*
X021691Y008567D01*
X021691Y008567D01*
X021691Y008169D01*
X021730Y008169D01*
X021807Y008184D01*
X021880Y008214D01*
X021945Y008258D01*
X022000Y008313D01*
X022044Y008379D01*
X022074Y008451D01*
X022089Y008528D01*
X022089Y008567D01*
X021692Y008567D01*
X021692Y008567D01*
X022089Y008567D01*
X022089Y008606D01*
X022074Y008683D01*
X022044Y008756D01*
X022000Y008821D01*
X021945Y008876D01*
X021880Y008920D01*
X021807Y008950D01*
X021730Y008965D01*
X021691Y008965D01*
X021652Y008965D01*
X021575Y008950D01*
X021503Y008920D01*
X021437Y008876D01*
X021318Y008706D02*
X020629Y008706D01*
X020776Y008547D02*
X021293Y008547D01*
X021334Y008389D02*
X020827Y008389D01*
X020817Y008230D02*
X021479Y008230D01*
X021691Y008230D02*
X021691Y008230D01*
X021691Y008389D02*
X021691Y008389D01*
X021691Y008547D02*
X021691Y008547D01*
X021691Y008568D02*
X021691Y008965D01*
X021691Y008568D01*
X021691Y008568D01*
X021691Y008706D02*
X021691Y008706D01*
X021691Y008864D02*
X021691Y008864D01*
X021957Y008864D02*
X022360Y008864D01*
X022065Y008706D02*
X023007Y008706D01*
X023007Y008864D02*
X022834Y008864D01*
X022938Y009023D02*
X023007Y009023D01*
X023007Y009182D02*
X022955Y009182D01*
X023007Y009340D02*
X022897Y009340D01*
X023007Y009499D02*
X018970Y009499D01*
X019012Y009340D02*
X019350Y009340D01*
X019191Y009182D02*
X018999Y009182D01*
X019033Y009023D02*
X018927Y009023D01*
X018874Y008864D02*
X018748Y008864D01*
X018716Y008706D02*
X015522Y008706D01*
X015587Y008864D02*
X018296Y008864D01*
X018499Y008864D02*
X018545Y008864D01*
X018545Y009023D02*
X018499Y009023D01*
X018499Y009182D02*
X018545Y009182D01*
X018545Y009340D02*
X018499Y009340D01*
X018499Y009499D02*
X018545Y009499D01*
X018545Y009657D02*
X018499Y009657D01*
X018857Y009657D02*
X020525Y009657D01*
X020539Y009651D02*
X020612Y009627D01*
X020688Y009615D01*
X020703Y009615D01*
X020703Y010081D01*
X020237Y010081D01*
X020237Y010066D01*
X020249Y009990D01*
X020273Y009916D01*
X020308Y009848D01*
X020353Y009785D01*
X020407Y009731D01*
X020470Y009686D01*
X020539Y009651D01*
X020703Y009657D02*
X020750Y009657D01*
X020750Y009615D02*
X020765Y009615D01*
X020841Y009627D01*
X020915Y009651D01*
X020984Y009686D01*
X021046Y009731D01*
X021100Y009785D01*
X021146Y009848D01*
X021181Y009916D01*
X021205Y009990D01*
X021217Y010066D01*
X021217Y010081D01*
X020750Y010081D01*
X020750Y009615D01*
X020928Y009657D02*
X023007Y009657D01*
X023007Y009816D02*
X021122Y009816D01*
X021200Y009974D02*
X023007Y009974D01*
X023007Y010133D02*
X021217Y010133D01*
X021217Y010128D02*
X021217Y010143D01*
X021205Y010219D01*
X021181Y010293D01*
X021146Y010361D01*
X021100Y010424D01*
X021046Y010478D01*
X020984Y010524D01*
X020915Y010559D01*
X020841Y010583D01*
X020765Y010595D01*
X020750Y010595D01*
X020750Y010128D01*
X020703Y010128D01*
X020703Y010081D01*
X020750Y010081D01*
X020750Y010128D01*
X021217Y010128D01*
X021181Y010291D02*
X023007Y010291D01*
X023007Y010450D02*
X021074Y010450D01*
X020750Y010450D02*
X020703Y010450D01*
X020703Y010595D02*
X020688Y010595D01*
X020612Y010583D01*
X020539Y010559D01*
X020470Y010524D01*
X020407Y010478D01*
X020353Y010424D01*
X020308Y010361D01*
X020273Y010293D01*
X020249Y010219D01*
X020237Y010143D01*
X020237Y010128D01*
X020703Y010128D01*
X020703Y010595D01*
X020703Y010291D02*
X020750Y010291D01*
X020750Y010133D02*
X020703Y010133D01*
X020703Y009974D02*
X020750Y009974D01*
X020750Y009816D02*
X020703Y009816D01*
X020331Y009816D02*
X011881Y009816D01*
X011853Y009787D02*
X012087Y010022D01*
X012087Y010353D01*
X011853Y010587D01*
X011522Y010587D01*
X011287Y010353D01*
X011287Y010022D01*
X011522Y009787D01*
X011853Y009787D01*
X012040Y009974D02*
X020254Y009974D01*
X020237Y010133D02*
X012087Y010133D01*
X012087Y010291D02*
X020272Y010291D01*
X020379Y010450D02*
X011990Y010450D01*
X011384Y010450D02*
X008250Y010450D01*
X008297Y010497D02*
X008028Y010227D01*
X007837Y010227D01*
X007837Y010687D01*
X007837Y010687D01*
X007837Y010227D01*
X007647Y010227D01*
X007403Y010472D01*
X007393Y010449D01*
X007275Y010331D01*
X007121Y010267D01*
X006954Y010267D01*
X006799Y010331D01*
X006681Y010449D01*
X006617Y010604D01*
X006617Y010771D01*
X006681Y010925D01*
X006799Y011043D01*
X006954Y011107D01*
X007121Y011107D01*
X007275Y011043D01*
X007393Y010925D01*
X007403Y010903D01*
X007647Y011147D01*
X007837Y011147D01*
X007837Y010688D01*
X007837Y010688D01*
X007837Y011147D01*
X008028Y011147D01*
X008297Y010878D01*
X008297Y010687D01*
X007838Y010687D01*
X007838Y010687D01*
X008297Y010687D01*
X008297Y010497D01*
X008297Y010608D02*
X016201Y010608D01*
X016272Y010537D02*
X016603Y010537D01*
X016837Y010772D01*
X016837Y011103D01*
X016603Y011337D01*
X016272Y011337D01*
X016037Y011103D01*
X016037Y010772D01*
X016272Y010537D01*
X016042Y010767D02*
X008297Y010767D01*
X008250Y010926D02*
X016037Y010926D01*
X016037Y011084D02*
X008091Y011084D01*
X007837Y011084D02*
X007837Y011084D01*
X007837Y010926D02*
X007837Y010926D01*
X007837Y010767D02*
X007837Y010767D01*
X007837Y010608D02*
X007837Y010608D01*
X007837Y010450D02*
X007837Y010450D01*
X007837Y010291D02*
X007837Y010291D01*
X007583Y010291D02*
X007179Y010291D01*
X007394Y010450D02*
X007424Y010450D01*
X007425Y010926D02*
X007393Y010926D01*
X007584Y011084D02*
X007177Y011084D01*
X006898Y011084D02*
X003489Y011084D01*
X003621Y011139D02*
X003836Y011354D01*
X003952Y011635D01*
X003952Y011939D01*
X003836Y012221D01*
X003621Y012436D01*
X003339Y012552D01*
X003035Y012552D01*
X002754Y012436D01*
X002539Y012221D01*
X002422Y011939D01*
X002422Y011635D01*
X002539Y011354D01*
X002754Y011139D01*
X003035Y011022D01*
X003339Y011022D01*
X003621Y011139D01*
X003724Y011243D02*
X016177Y011243D01*
X016272Y011537D02*
X016603Y011537D01*
X016833Y011767D01*
X018258Y011767D01*
X018357Y011867D01*
X019508Y013017D01*
X021508Y013017D01*
X021607Y013117D01*
X021623Y013132D01*
X021762Y013132D01*
X021894Y013187D01*
X021995Y013288D01*
X022049Y013419D01*
X022049Y013562D01*
X021995Y013693D01*
X021894Y013794D01*
X021762Y013849D01*
X021620Y013849D01*
X021488Y013794D01*
X021388Y013693D01*
X021333Y013562D01*
X021333Y013419D01*
X021359Y013357D01*
X019508Y013357D01*
X019367Y013357D01*
X018117Y012107D01*
X016833Y012107D01*
X016603Y012337D01*
X016272Y012337D01*
X016037Y012103D01*
X016037Y011772D01*
X016272Y011537D01*
X016249Y011560D02*
X003921Y011560D01*
X003952Y011718D02*
X016091Y011718D01*
X016037Y011877D02*
X003952Y011877D01*
X003913Y012035D02*
X016037Y012035D01*
X016128Y012194D02*
X003847Y012194D01*
X003704Y012352D02*
X011400Y012352D01*
X011505Y012247D02*
X011247Y012505D01*
X011247Y012687D01*
X011687Y012687D01*
X011687Y012687D01*
X011687Y012687D01*
X011687Y012247D01*
X011505Y012247D01*
X011687Y012247D02*
X011870Y012247D01*
X012127Y012505D01*
X012127Y012687D01*
X011688Y012687D01*
X011688Y012687D01*
X012127Y012687D01*
X012127Y012870D01*
X011870Y013127D01*
X011687Y013127D01*
X011505Y013127D01*
X011247Y012870D01*
X011247Y012687D01*
X011687Y012687D01*
X011687Y012247D01*
X011687Y012352D02*
X011687Y012352D01*
X011687Y012511D02*
X011687Y012511D01*
X011687Y012670D02*
X011687Y012670D01*
X011687Y012688D02*
X011687Y013127D01*
X011687Y012688D01*
X011687Y012688D01*
X011687Y012828D02*
X011687Y012828D01*
X011687Y012987D02*
X011687Y012987D01*
X011364Y012987D02*
X001117Y012987D01*
X001117Y013145D02*
X018065Y013145D01*
X018068Y013137D02*
X018103Y013068D01*
X018148Y013006D01*
X018203Y012951D01*
X018265Y012906D01*
X018334Y012871D01*
X018407Y012847D01*
X018483Y012835D01*
X018499Y012835D01*
X018499Y013301D01*
X018545Y013301D01*
X018545Y012835D01*
X018561Y012835D01*
X018637Y012847D01*
X018710Y012871D01*
X018779Y012906D01*
X018841Y012951D01*
X018896Y013006D01*
X018941Y013068D01*
X018976Y013137D01*
X019000Y013210D01*
X019012Y013286D01*
X019012Y013302D01*
X018546Y013302D01*
X018546Y013348D01*
X019012Y013348D01*
X019012Y013364D01*
X019000Y013440D01*
X018976Y013513D01*
X018941Y013582D01*
X018896Y013644D01*
X018841Y013699D01*
X018779Y013744D01*
X018710Y013779D01*
X018637Y013803D01*
X018561Y013815D01*
X018545Y013815D01*
X018545Y013349D01*
X018499Y013349D01*
X018499Y013815D01*
X018483Y013815D01*
X018407Y013803D01*
X018334Y013779D01*
X018265Y013744D01*
X018203Y013699D01*
X018148Y013644D01*
X018103Y013582D01*
X018068Y013513D01*
X018044Y013440D01*
X018032Y013364D01*
X018032Y013348D01*
X018498Y013348D01*
X018498Y013302D01*
X018032Y013302D01*
X018032Y013286D01*
X018044Y013210D01*
X018068Y013137D01*
X018167Y012987D02*
X012010Y012987D01*
X012127Y012828D02*
X018838Y012828D01*
X018876Y012987D02*
X018996Y012987D01*
X018979Y013145D02*
X019155Y013145D01*
X019313Y013304D02*
X018546Y013304D01*
X018498Y013304D02*
X011869Y013304D01*
X011853Y013287D02*
X012087Y013522D01*
X012087Y013847D01*
X012258Y014017D01*
X012367Y014017D01*
X012508Y014017D01*
X014792Y014017D01*
X015022Y013787D01*
X015353Y013787D01*
X015583Y014017D01*
X016758Y014017D01*
X016857Y014117D01*
X018008Y015267D01*
X018993Y015267D01*
X018987Y015255D01*
X018965Y015190D01*
X018955Y015122D01*
X018955Y015087D01*
X018955Y015053D01*
X018965Y014985D01*
X018987Y014919D01*
X019018Y014858D01*
X019058Y014802D01*
X019107Y014754D01*
X019163Y014713D01*
X019214Y014687D01*
X019163Y014661D01*
X019107Y014621D01*
X019058Y014572D01*
X017312Y014572D01*
X017154Y014414D02*
X018973Y014414D01*
X018965Y014390D02*
X018955Y014322D01*
X018955Y014287D01*
X018955Y014253D01*
X018965Y014185D01*
X018987Y014119D01*
X019018Y014058D01*
X019058Y014002D01*
X019107Y013954D01*
X019163Y013913D01*
X019224Y013882D01*
X019290Y013861D01*
X019358Y013850D01*
X019392Y013850D01*
X019426Y013850D01*
X019494Y013861D01*
X019560Y013882D01*
X019621Y013913D01*
X019677Y013954D01*
X019726Y014002D01*
X019766Y014058D01*
X019797Y014119D01*
X019819Y014185D01*
X019829Y014253D01*
X019829Y014287D01*
X019392Y014287D01*
X019392Y013850D01*
X019392Y014287D01*
X019392Y014287D01*
X018955Y014287D01*
X019392Y014287D01*
X019392Y014287D01*
X019392Y014287D01*
X019829Y014287D01*
X019829Y014322D01*
X019819Y014390D01*
X019797Y014455D01*
X019766Y014517D01*
X019726Y014572D01*
X020010Y014572D01*
X019995Y014608D02*
X020055Y014462D01*
X020167Y014350D01*
X020313Y014290D01*
X020471Y014290D01*
X020617Y014350D01*
X020729Y014462D01*
X020789Y014608D01*
X020789Y014766D01*
X020729Y014912D01*
X020617Y015024D01*
X020471Y015085D01*
X020313Y015085D01*
X020167Y015024D01*
X020055Y014912D01*
X019995Y014766D01*
X019995Y014608D01*
X019995Y014731D02*
X019645Y014731D01*
X019621Y014713D02*
X019677Y014754D01*
X019726Y014802D01*
X019766Y014858D01*
X019797Y014919D01*
X019819Y014985D01*
X019829Y015053D01*
X019829Y015087D01*
X019392Y015087D01*
X019392Y014650D01*
X019392Y015087D01*
X019392Y015087D01*
X018955Y015087D01*
X019392Y015087D01*
X019392Y015087D01*
X019392Y015087D01*
X019829Y015087D01*
X019829Y015122D01*
X019819Y015190D01*
X019797Y015255D01*
X019791Y015267D01*
X020053Y015267D01*
X020055Y015262D01*
X020167Y015150D01*
X020313Y015090D01*
X020471Y015090D01*
X020617Y015150D01*
X020729Y015262D01*
X020789Y015408D01*
X020789Y015566D01*
X020729Y015712D01*
X020617Y015824D01*
X020471Y015885D01*
X020313Y015885D01*
X020167Y015824D01*
X020055Y015712D01*
X020012Y015607D01*
X019729Y015607D01*
X019766Y015658D01*
X019797Y015719D01*
X019819Y015785D01*
X019829Y015853D01*
X019829Y015887D01*
X019392Y015887D01*
X018955Y015887D01*
X018955Y015853D01*
X018965Y015785D01*
X018987Y015719D01*
X019018Y015658D01*
X019055Y015607D01*
X018008Y015607D01*
X017867Y015607D01*
X016617Y014357D01*
X015583Y014357D01*
X015353Y014587D01*
X015022Y014587D01*
X014792Y014357D01*
X012607Y014357D01*
X012607Y017008D01*
X012508Y017107D01*
X012087Y017528D01*
X012087Y017853D01*
X011853Y018087D01*
X011522Y018087D01*
X011287Y017853D01*
X011287Y017522D01*
X011522Y017287D01*
X011847Y017287D01*
X012267Y016867D01*
X012267Y014357D01*
X012117Y014357D01*
X012017Y014258D01*
X011847Y014087D01*
X011522Y014087D01*
X011287Y013853D01*
X011287Y013522D01*
X011522Y013287D01*
X011853Y013287D01*
X012028Y013462D02*
X018051Y013462D01*
X018131Y013621D02*
X012087Y013621D01*
X012087Y013779D02*
X018334Y013779D01*
X018499Y013779D02*
X018545Y013779D01*
X018545Y013621D02*
X018499Y013621D01*
X018499Y013462D02*
X018545Y013462D01*
X018545Y013145D02*
X018499Y013145D01*
X018499Y012987D02*
X018545Y012987D01*
X018679Y012670D02*
X012127Y012670D01*
X012127Y012511D02*
X018521Y012511D01*
X018362Y012352D02*
X011975Y012352D01*
X011247Y012511D02*
X003439Y012511D01*
X002935Y012511D02*
X001117Y012511D01*
X001117Y012670D02*
X011247Y012670D01*
X011247Y012828D02*
X001117Y012828D01*
X001117Y012352D02*
X002671Y012352D01*
X002528Y012194D02*
X001117Y012194D01*
X001117Y012035D02*
X002462Y012035D01*
X002422Y011877D02*
X001117Y011877D01*
X001117Y011718D02*
X002422Y011718D01*
X002454Y011560D02*
X001117Y011560D01*
X001117Y011401D02*
X002519Y011401D01*
X002650Y011243D02*
X001117Y011243D01*
X001117Y011084D02*
X002886Y011084D01*
X003187Y010147D02*
X003187Y009188D01*
X003187Y009188D01*
X003187Y010147D01*
X003187Y010133D02*
X003187Y010133D01*
X003187Y009974D02*
X003187Y009974D01*
X003187Y009816D02*
X003187Y009816D01*
X003187Y009657D02*
X003187Y009657D01*
X003187Y009499D02*
X003187Y009499D01*
X003187Y009340D02*
X003187Y009340D01*
X003187Y009182D02*
X003187Y009182D01*
X003187Y009023D02*
X003187Y009023D01*
X003187Y008864D02*
X003187Y008864D01*
X003187Y008706D02*
X003187Y008706D01*
X003187Y008547D02*
X003187Y008547D01*
X003187Y008389D02*
X003187Y008389D01*
X003187Y008230D02*
X003187Y008230D01*
X002372Y008230D02*
X001117Y008230D01*
X001117Y008389D02*
X002227Y008389D01*
X002227Y008547D02*
X001117Y008547D01*
X001117Y008706D02*
X002227Y008706D01*
X002227Y008864D02*
X001117Y008864D01*
X001117Y009023D02*
X002227Y009023D01*
X002227Y009182D02*
X001117Y009182D01*
X001117Y009340D02*
X002227Y009340D01*
X002227Y009499D02*
X001117Y009499D01*
X001117Y009657D02*
X002227Y009657D01*
X002227Y009816D02*
X001117Y009816D01*
X001117Y009974D02*
X002227Y009974D01*
X002334Y010133D02*
X001117Y010133D01*
X001117Y010291D02*
X006896Y010291D01*
X006681Y010450D02*
X001117Y010450D01*
X001117Y010608D02*
X006617Y010608D01*
X006617Y010767D02*
X001117Y010767D01*
X001117Y010926D02*
X006682Y010926D01*
X008092Y010291D02*
X011287Y010291D01*
X011287Y010133D02*
X004041Y010133D01*
X004147Y009974D02*
X011335Y009974D01*
X011493Y009816D02*
X004147Y009816D01*
X003855Y011401D02*
X023007Y011401D01*
X023007Y011243D02*
X016698Y011243D01*
X016837Y011084D02*
X023007Y011084D01*
X023007Y010926D02*
X016837Y010926D01*
X016833Y010767D02*
X023007Y010767D01*
X023007Y010608D02*
X016674Y010608D01*
X016625Y011560D02*
X023007Y011560D01*
X023007Y011718D02*
X016784Y011718D01*
X016746Y012194D02*
X018204Y012194D01*
X018367Y011877D02*
X023007Y011877D01*
X023007Y012035D02*
X020799Y012035D01*
X020765Y012030D02*
X020841Y012042D01*
X020915Y012066D01*
X020984Y012101D01*
X021046Y012146D01*
X021100Y012201D01*
X021146Y012263D01*
X021181Y012332D01*
X021205Y012405D01*
X021217Y012481D01*
X021217Y012497D01*
X020750Y012497D01*
X020750Y012543D01*
X021217Y012543D01*
X021217Y012559D01*
X021205Y012635D01*
X021181Y012708D01*
X021146Y012777D01*
X021100Y012839D01*
X021046Y012894D01*
X020984Y012939D01*
X020915Y012974D01*
X020841Y012998D01*
X020765Y013010D01*
X020750Y013010D01*
X020750Y012544D01*
X020703Y012544D01*
X020703Y013010D01*
X020688Y013010D01*
X020612Y012998D01*
X020539Y012974D01*
X020470Y012939D01*
X020407Y012894D01*
X020353Y012839D01*
X020308Y012777D01*
X020273Y012708D01*
X020249Y012635D01*
X020237Y012559D01*
X020237Y012543D01*
X020703Y012543D01*
X020703Y012497D01*
X020237Y012497D01*
X020237Y012481D01*
X020249Y012405D01*
X020273Y012332D01*
X020308Y012263D01*
X020353Y012201D01*
X020407Y012146D01*
X020470Y012101D01*
X020539Y012066D01*
X020612Y012042D01*
X020688Y012030D01*
X020703Y012030D01*
X020703Y012496D01*
X020750Y012496D01*
X020750Y012030D01*
X020765Y012030D01*
X020750Y012035D02*
X020703Y012035D01*
X020654Y012035D02*
X018526Y012035D01*
X018684Y012194D02*
X020360Y012194D01*
X020266Y012352D02*
X018843Y012352D01*
X019001Y012511D02*
X020703Y012511D01*
X020750Y012511D02*
X023007Y012511D01*
X023007Y012670D02*
X021193Y012670D01*
X021109Y012828D02*
X023007Y012828D01*
X023007Y012987D02*
X020876Y012987D01*
X020750Y012987D02*
X020703Y012987D01*
X020577Y012987D02*
X019477Y012987D01*
X019318Y012828D02*
X020345Y012828D01*
X020260Y012670D02*
X019160Y012670D01*
X018993Y013462D02*
X021333Y013462D01*
X021358Y013621D02*
X018913Y013621D01*
X018710Y013779D02*
X021474Y013779D01*
X021909Y013779D02*
X022312Y013779D01*
X022288Y013804D02*
X022343Y013748D01*
X022408Y013705D01*
X022481Y013675D01*
X022558Y013659D01*
X022597Y013659D01*
X022636Y013659D01*
X022713Y013675D01*
X022785Y013705D01*
X022851Y013748D01*
X022906Y013804D01*
X022950Y013869D01*
X022980Y013941D01*
X022995Y014018D01*
X022995Y014057D01*
X022597Y014057D01*
X022597Y013659D01*
X022597Y014057D01*
X022597Y014057D01*
X022597Y014058D01*
X022597Y014058D01*
X022597Y014455D01*
X022636Y014455D01*
X022713Y014440D01*
X022785Y014410D01*
X022851Y014367D01*
X022906Y014311D01*
X022950Y014246D01*
X022980Y014174D01*
X022995Y014097D01*
X022995Y014058D01*
X022597Y014058D01*
X022597Y014455D01*
X022558Y014455D01*
X022481Y014440D01*
X022408Y014410D01*
X022343Y014367D01*
X022288Y014311D01*
X022244Y014246D01*
X022214Y014174D01*
X022199Y014097D01*
X022199Y014058D01*
X022596Y014058D01*
X022596Y014057D01*
X022199Y014057D01*
X022199Y014018D01*
X022214Y013941D01*
X022244Y013869D01*
X022288Y013804D01*
X022215Y013938D02*
X019655Y013938D01*
X019786Y014096D02*
X022199Y014096D01*
X022250Y014255D02*
X019829Y014255D01*
X019811Y014414D02*
X020104Y014414D01*
X019726Y014572D02*
X019677Y014621D01*
X019621Y014661D01*
X019571Y014687D01*
X019621Y014713D01*
X019392Y014731D02*
X019392Y014731D01*
X019392Y014650D02*
X019392Y014288D01*
X019392Y014288D01*
X019392Y014650D01*
X019392Y014572D02*
X019392Y014572D01*
X019392Y014414D02*
X019392Y014414D01*
X019392Y014255D02*
X019392Y014255D01*
X019392Y014096D02*
X019392Y014096D01*
X019392Y013938D02*
X019392Y013938D01*
X019129Y013938D02*
X015504Y013938D01*
X015527Y014414D02*
X016673Y014414D01*
X016603Y014537D02*
X016837Y014772D01*
X016837Y015103D01*
X016603Y015337D01*
X016272Y015337D01*
X016037Y015103D01*
X016037Y014772D01*
X016272Y014537D01*
X016603Y014537D01*
X016638Y014572D02*
X016832Y014572D01*
X016796Y014731D02*
X016990Y014731D01*
X016837Y014889D02*
X017149Y014889D01*
X017307Y015048D02*
X016837Y015048D01*
X016734Y015206D02*
X017466Y015206D01*
X017624Y015365D02*
X012607Y015365D01*
X012607Y015523D02*
X017783Y015523D01*
X017947Y015206D02*
X018971Y015206D01*
X018955Y015048D02*
X017788Y015048D01*
X017630Y014889D02*
X019002Y014889D01*
X019139Y014731D02*
X017471Y014731D01*
X016995Y014255D02*
X018955Y014255D01*
X018965Y014390D02*
X018987Y014455D01*
X019018Y014517D01*
X019058Y014572D01*
X019392Y014889D02*
X019392Y014889D01*
X019392Y015048D02*
X019392Y015048D01*
X019782Y014889D02*
X020045Y014889D01*
X020223Y015048D02*
X019829Y015048D01*
X019813Y015206D02*
X020111Y015206D01*
X020561Y015048D02*
X023007Y015048D01*
X023007Y015206D02*
X020673Y015206D01*
X020771Y015365D02*
X023007Y015365D01*
X023007Y015523D02*
X020789Y015523D01*
X020742Y015682D02*
X023007Y015682D01*
X023007Y015840D02*
X020578Y015840D01*
X020617Y015950D02*
X020729Y016062D01*
X020789Y016208D01*
X020789Y016366D01*
X020729Y016512D01*
X020617Y016624D01*
X020514Y016667D01*
X020560Y016682D01*
X020621Y016713D01*
X020677Y016754D01*
X020726Y016802D01*
X020766Y016858D01*
X020797Y016919D01*
X020819Y016985D01*
X020829Y017053D01*
X020829Y017087D01*
X020392Y017087D01*
X019955Y017087D01*
X019955Y017053D01*
X019965Y016985D01*
X019987Y016919D01*
X020018Y016858D01*
X020058Y016802D01*
X020107Y016754D01*
X020163Y016713D01*
X020224Y016682D01*
X020270Y016667D01*
X020167Y016624D01*
X020055Y016512D01*
X019995Y016366D01*
X019995Y016208D01*
X020055Y016062D01*
X020167Y015950D01*
X020313Y015890D01*
X020471Y015890D01*
X020617Y015950D01*
X020666Y015999D02*
X023007Y015999D01*
X023007Y016157D02*
X020768Y016157D01*
X020789Y016316D02*
X023007Y016316D01*
X023007Y016475D02*
X020745Y016475D01*
X020596Y016633D02*
X023007Y016633D01*
X023007Y016792D02*
X020715Y016792D01*
X020807Y016950D02*
X021537Y016950D01*
X021503Y016964D02*
X021575Y016934D01*
X021652Y016919D01*
X021691Y016919D01*
X021691Y017317D01*
X021293Y017317D01*
X021293Y017278D01*
X021308Y017201D01*
X021338Y017129D01*
X021382Y017063D01*
X021437Y017008D01*
X021503Y016964D01*
X021691Y016950D02*
X021691Y016950D01*
X021691Y016919D02*
X021730Y016919D01*
X021807Y016934D01*
X021880Y016964D01*
X021945Y017008D01*
X022000Y017063D01*
X022044Y017129D01*
X022074Y017201D01*
X022089Y017278D01*
X022089Y017317D01*
X021692Y017317D01*
X021692Y017317D01*
X022089Y017317D01*
X022089Y017356D01*
X022074Y017433D01*
X022044Y017506D01*
X022000Y017571D01*
X021945Y017626D01*
X021880Y017670D01*
X021807Y017700D01*
X021730Y017715D01*
X021691Y017715D01*
X021652Y017715D01*
X021575Y017700D01*
X021503Y017670D01*
X021437Y017626D01*
X021382Y017571D01*
X021338Y017506D01*
X021308Y017433D01*
X021293Y017356D01*
X021293Y017317D01*
X021691Y017317D01*
X021691Y017317D01*
X021691Y017317D01*
X021691Y016919D01*
X021845Y016950D02*
X023007Y016950D01*
X023007Y017109D02*
X022031Y017109D01*
X022087Y017267D02*
X023007Y017267D01*
X023007Y017426D02*
X022076Y017426D01*
X021987Y017584D02*
X022390Y017584D01*
X022394Y017581D02*
X022526Y017526D01*
X022668Y017526D01*
X022800Y017581D01*
X022900Y017681D01*
X022955Y017813D01*
X022955Y017955D01*
X022900Y018087D01*
X022800Y018188D01*
X022668Y018242D01*
X022526Y018242D01*
X022394Y018188D01*
X022314Y018107D01*
X019508Y018107D01*
X019367Y018107D01*
X017617Y016357D01*
X016833Y016357D01*
X016603Y016587D01*
X016272Y016587D01*
X016037Y016353D01*
X016037Y016022D01*
X016272Y015787D01*
X016603Y015787D01*
X016833Y016017D01*
X017758Y016017D01*
X017857Y016117D01*
X019508Y017767D01*
X022258Y017767D01*
X022293Y017681D01*
X022394Y017581D01*
X022268Y017743D02*
X019483Y017743D01*
X019325Y017584D02*
X021395Y017584D01*
X021307Y017426D02*
X020670Y017426D01*
X020677Y017421D02*
X020621Y017461D01*
X020560Y017493D01*
X020494Y017514D01*
X020426Y017525D01*
X020392Y017525D01*
X020358Y017525D01*
X020290Y017514D01*
X020224Y017493D01*
X020163Y017461D01*
X020107Y017421D01*
X020058Y017372D01*
X020018Y017317D01*
X019987Y017255D01*
X019965Y017190D01*
X019955Y017122D01*
X019955Y017087D01*
X020392Y017087D01*
X020392Y017087D01*
X020392Y017087D01*
X020829Y017087D01*
X020829Y017122D01*
X020819Y017190D01*
X020797Y017255D01*
X020766Y017317D01*
X020726Y017372D01*
X020677Y017421D01*
X020791Y017267D02*
X021295Y017267D01*
X021352Y017109D02*
X020829Y017109D01*
X020392Y017109D02*
X020392Y017109D01*
X020392Y017088D02*
X020392Y017525D01*
X020392Y017088D01*
X020392Y017088D01*
X020392Y017267D02*
X020392Y017267D01*
X020392Y017426D02*
X020392Y017426D01*
X020114Y017426D02*
X019166Y017426D01*
X019008Y017267D02*
X019993Y017267D01*
X019955Y017109D02*
X018849Y017109D01*
X018691Y016950D02*
X019093Y016950D01*
X019055Y016912D02*
X018995Y016766D01*
X018995Y016608D01*
X019055Y016462D01*
X019167Y016350D01*
X019270Y016308D01*
X019224Y016293D01*
X019163Y016261D01*
X019107Y016221D01*
X019058Y016172D01*
X019018Y016117D01*
X018987Y016055D01*
X018965Y015990D01*
X018955Y015922D01*
X018955Y015887D01*
X019392Y015887D01*
X019392Y015887D01*
X019392Y015887D01*
X019829Y015887D01*
X019829Y015922D01*
X019819Y015990D01*
X019797Y016055D01*
X019766Y016117D01*
X019726Y016172D01*
X019677Y016221D01*
X019621Y016261D01*
X019560Y016293D01*
X019514Y016308D01*
X019617Y016350D01*
X019729Y016462D01*
X019789Y016608D01*
X019789Y016766D01*
X019729Y016912D01*
X019617Y017024D01*
X019471Y017085D01*
X019313Y017085D01*
X019167Y017024D01*
X019055Y016912D01*
X019005Y016792D02*
X018532Y016792D01*
X018374Y016633D02*
X018995Y016633D01*
X019050Y016475D02*
X018215Y016475D01*
X018056Y016316D02*
X019250Y016316D01*
X019048Y016157D02*
X017898Y016157D01*
X017734Y016475D02*
X016716Y016475D01*
X016815Y015999D02*
X018968Y015999D01*
X018957Y015840D02*
X016656Y015840D01*
X016219Y015840D02*
X012607Y015840D01*
X012607Y015682D02*
X019006Y015682D01*
X019534Y016316D02*
X019995Y016316D01*
X020016Y016157D02*
X019736Y016157D01*
X019816Y015999D02*
X020118Y015999D01*
X020206Y015840D02*
X019827Y015840D01*
X019778Y015682D02*
X020042Y015682D01*
X020039Y016475D02*
X019734Y016475D01*
X019789Y016633D02*
X020188Y016633D01*
X020069Y016792D02*
X019779Y016792D01*
X019691Y016950D02*
X019977Y016950D01*
X019003Y017743D02*
X018905Y017743D01*
X018896Y017730D02*
X018941Y017793D01*
X018976Y017861D01*
X019000Y017935D01*
X019012Y018011D01*
X019012Y018026D01*
X018546Y018026D01*
X018546Y018073D01*
X019012Y018073D01*
X019012Y018088D01*
X019000Y018164D01*
X018976Y018238D01*
X018941Y018306D01*
X018896Y018369D01*
X018841Y018423D01*
X018779Y018469D01*
X018710Y018504D01*
X018637Y018527D01*
X018561Y018540D01*
X018545Y018540D01*
X018545Y018073D01*
X018499Y018073D01*
X018499Y018540D01*
X018483Y018540D01*
X018407Y018527D01*
X018334Y018504D01*
X018265Y018469D01*
X018203Y018423D01*
X018148Y018369D01*
X018103Y018306D01*
X018068Y018238D01*
X018044Y018164D01*
X018032Y018088D01*
X018032Y018073D01*
X018498Y018073D01*
X018498Y018026D01*
X018032Y018026D01*
X018032Y018011D01*
X018044Y017935D01*
X018068Y017861D01*
X018103Y017793D01*
X018148Y017730D01*
X018203Y017676D01*
X018265Y017630D01*
X018334Y017595D01*
X018407Y017572D01*
X018483Y017559D01*
X018499Y017559D01*
X018499Y018026D01*
X018545Y018026D01*
X018545Y017559D01*
X018561Y017559D01*
X018637Y017572D01*
X018710Y017595D01*
X018779Y017630D01*
X018841Y017676D01*
X018896Y017730D01*
X018844Y017584D02*
X018676Y017584D01*
X018545Y017584D02*
X018499Y017584D01*
X018368Y017584D02*
X015356Y017584D01*
X015353Y017587D02*
X015587Y017353D01*
X015587Y017022D01*
X015353Y016787D01*
X015022Y016787D01*
X014792Y017017D01*
X014117Y017017D01*
X014017Y017117D01*
X014017Y017258D01*
X014017Y020467D01*
X013893Y020467D01*
X013617Y020743D01*
X013617Y021132D01*
X013893Y021407D01*
X014282Y021407D01*
X014557Y021132D01*
X014557Y020743D01*
X014357Y020543D01*
X014357Y017357D01*
X014792Y017357D01*
X015022Y017587D01*
X015353Y017587D01*
X015514Y017426D02*
X018685Y017426D01*
X018527Y017267D02*
X015587Y017267D01*
X015587Y017109D02*
X018368Y017109D01*
X018210Y016950D02*
X015516Y016950D01*
X015357Y016792D02*
X018051Y016792D01*
X017893Y016633D02*
X012607Y016633D01*
X012607Y016475D02*
X016159Y016475D01*
X016037Y016316D02*
X012607Y016316D01*
X012607Y016157D02*
X016037Y016157D01*
X016060Y015999D02*
X012607Y015999D01*
X012267Y015999D02*
X001117Y015999D01*
X001117Y016157D02*
X012267Y016157D01*
X012267Y016316D02*
X011938Y016316D01*
X011870Y016247D02*
X011687Y016247D01*
X011687Y016687D01*
X011247Y016687D01*
X011247Y016505D01*
X011505Y016247D01*
X011687Y016247D01*
X011687Y016687D01*
X011687Y016687D01*
X011687Y016687D01*
X011247Y016687D01*
X011247Y016870D01*
X011505Y017127D01*
X011687Y017127D01*
X011687Y016688D01*
X011687Y016688D01*
X011687Y017127D01*
X011870Y017127D01*
X012127Y016870D01*
X012127Y016687D01*
X011688Y016687D01*
X011688Y016687D01*
X012127Y016687D01*
X012127Y016505D01*
X011870Y016247D01*
X011687Y016316D02*
X011687Y016316D01*
X011687Y016475D02*
X011687Y016475D01*
X011687Y016633D02*
X011687Y016633D01*
X011687Y016792D02*
X011687Y016792D01*
X011687Y016950D02*
X011687Y016950D01*
X011687Y017109D02*
X011687Y017109D01*
X011487Y017109D02*
X001117Y017109D01*
X001117Y017267D02*
X007607Y017267D01*
X007647Y017227D02*
X007837Y017227D01*
X007837Y017687D01*
X007837Y017687D01*
X007837Y017227D01*
X008028Y017227D01*
X008297Y017497D01*
X008297Y017687D01*
X007838Y017687D01*
X007838Y017687D01*
X008297Y017687D01*
X008297Y017878D01*
X008028Y018147D01*
X007837Y018147D01*
X007647Y018147D01*
X007403Y017903D01*
X007393Y017925D01*
X007275Y018043D01*
X007121Y018107D01*
X006954Y018107D01*
X006799Y018043D01*
X006681Y017925D01*
X006617Y017771D01*
X006617Y017604D01*
X006681Y017449D01*
X006799Y017331D01*
X006954Y017267D01*
X007121Y017267D01*
X007275Y017331D01*
X007393Y017449D01*
X007403Y017472D01*
X007647Y017227D01*
X007837Y017267D02*
X007837Y017267D01*
X007837Y017426D02*
X007837Y017426D01*
X007837Y017584D02*
X007837Y017584D01*
X007837Y017688D02*
X007837Y018147D01*
X007837Y017688D01*
X007837Y017688D01*
X007837Y017743D02*
X007837Y017743D01*
X007837Y017901D02*
X007837Y017901D01*
X007837Y018060D02*
X007837Y018060D01*
X007560Y018060D02*
X007235Y018060D01*
X006840Y018060D02*
X001117Y018060D01*
X001117Y017901D02*
X006671Y017901D01*
X006617Y017743D02*
X001117Y017743D01*
X001117Y017584D02*
X006625Y017584D01*
X006705Y017426D02*
X001117Y017426D01*
X001117Y016950D02*
X011328Y016950D01*
X011247Y016792D02*
X001117Y016792D01*
X001117Y016633D02*
X011247Y016633D01*
X011278Y016475D02*
X001117Y016475D01*
X001117Y016316D02*
X011436Y016316D01*
X012097Y016475D02*
X012267Y016475D01*
X012267Y016633D02*
X012127Y016633D01*
X012127Y016792D02*
X012267Y016792D01*
X012184Y016950D02*
X012047Y016950D01*
X012025Y017109D02*
X011888Y017109D01*
X011867Y017267D02*
X008068Y017267D01*
X008226Y017426D02*
X011383Y017426D01*
X011287Y017584D02*
X008297Y017584D01*
X008297Y017743D02*
X011287Y017743D01*
X011336Y017901D02*
X008274Y017901D01*
X008115Y018060D02*
X011494Y018060D01*
X011522Y018287D02*
X011853Y018287D01*
X012087Y018522D01*
X012087Y018853D01*
X011853Y019087D01*
X011522Y019087D01*
X011287Y018853D01*
X011287Y018522D01*
X011522Y018287D01*
X011432Y018377D02*
X001117Y018377D01*
X001117Y018219D02*
X014017Y018219D01*
X014017Y018377D02*
X011943Y018377D01*
X012087Y018536D02*
X014017Y018536D01*
X014017Y018694D02*
X012087Y018694D01*
X012087Y018853D02*
X014017Y018853D01*
X014017Y019011D02*
X011929Y019011D01*
X011446Y019011D02*
X001117Y019011D01*
X001117Y018853D02*
X011287Y018853D01*
X011287Y018694D02*
X001117Y018694D01*
X001117Y018536D02*
X011287Y018536D01*
X011880Y018060D02*
X014017Y018060D01*
X014017Y017901D02*
X012039Y017901D01*
X012087Y017743D02*
X014017Y017743D01*
X014017Y017584D02*
X012087Y017584D01*
X012189Y017426D02*
X014017Y017426D01*
X014017Y017267D02*
X012348Y017267D01*
X012506Y017109D02*
X014025Y017109D01*
X014357Y017426D02*
X014860Y017426D01*
X015019Y017584D02*
X014357Y017584D01*
X014357Y017743D02*
X018139Y017743D01*
X018055Y017901D02*
X014357Y017901D01*
X014357Y018060D02*
X018498Y018060D01*
X018546Y018060D02*
X019320Y018060D01*
X019161Y017901D02*
X018989Y017901D01*
X018982Y018219D02*
X022468Y018219D01*
X022725Y018219D02*
X023007Y018219D01*
X023007Y018377D02*
X020843Y018377D01*
X020841Y018377D02*
X020915Y018401D01*
X020984Y018436D01*
X021046Y018481D01*
X021100Y018535D01*
X021146Y018598D01*
X021181Y018666D01*
X021205Y018740D01*
X021217Y018816D01*
X021217Y018831D01*
X020750Y018831D01*
X020750Y018365D01*
X020765Y018365D01*
X020841Y018377D01*
X020750Y018377D02*
X020703Y018377D01*
X020703Y018365D02*
X020703Y018831D01*
X020237Y018831D01*
X020237Y018816D01*
X020249Y018740D01*
X020273Y018666D01*
X020308Y018598D01*
X020353Y018535D01*
X020407Y018481D01*
X020470Y018436D01*
X020539Y018401D01*
X020612Y018377D01*
X020688Y018365D01*
X020703Y018365D01*
X020611Y018377D02*
X018887Y018377D01*
X018585Y018536D02*
X020353Y018536D01*
X020264Y018694D02*
X014357Y018694D01*
X014357Y018536D02*
X018459Y018536D01*
X018499Y018536D02*
X018545Y018536D01*
X018545Y018377D02*
X018499Y018377D01*
X018499Y018219D02*
X018545Y018219D01*
X018545Y017901D02*
X018499Y017901D01*
X018499Y017743D02*
X018545Y017743D01*
X018062Y018219D02*
X014357Y018219D01*
X014357Y018377D02*
X018157Y018377D01*
X016837Y019022D02*
X016603Y018787D01*
X016272Y018787D01*
X016037Y019022D01*
X016037Y019353D01*
X016267Y019583D01*
X016267Y020467D01*
X015893Y020467D01*
X015617Y020743D01*
X015617Y021132D01*
X015893Y021407D01*
X016282Y021407D01*
X016557Y021132D01*
X016557Y021058D01*
X016607Y021008D01*
X016607Y020867D01*
X016607Y019583D01*
X016837Y019353D01*
X016837Y019022D01*
X016827Y019011D02*
X020262Y019011D01*
X020273Y019043D02*
X020249Y018969D01*
X020237Y018893D01*
X020237Y018878D01*
X020703Y018878D01*
X020703Y018831D01*
X020750Y018831D01*
X020750Y018878D01*
X020703Y018878D01*
X020703Y019345D01*
X020688Y019345D01*
X020612Y019333D01*
X020539Y019309D01*
X020470Y019274D01*
X020407Y019228D01*
X020353Y019174D01*
X020308Y019111D01*
X020273Y019043D01*
X020350Y019170D02*
X016837Y019170D01*
X016837Y019328D02*
X020599Y019328D01*
X020703Y019328D02*
X020750Y019328D01*
X020750Y019345D02*
X020750Y018878D01*
X021217Y018878D01*
X021217Y018893D01*
X021205Y018969D01*
X021181Y019043D01*
X021146Y019111D01*
X021100Y019174D01*
X021046Y019228D01*
X020984Y019274D01*
X020915Y019309D01*
X020841Y019333D01*
X020765Y019345D01*
X020750Y019345D01*
X020855Y019328D02*
X023007Y019328D01*
X023007Y019170D02*
X021103Y019170D01*
X021191Y019011D02*
X023007Y019011D01*
X023007Y018853D02*
X020750Y018853D01*
X020703Y018853D02*
X016668Y018853D01*
X016206Y018853D02*
X014357Y018853D01*
X014357Y019011D02*
X016048Y019011D01*
X016037Y019170D02*
X014357Y019170D01*
X014357Y019328D02*
X016037Y019328D01*
X016171Y019487D02*
X014357Y019487D01*
X014357Y019645D02*
X016267Y019645D01*
X016267Y019804D02*
X014357Y019804D01*
X014357Y019963D02*
X016267Y019963D01*
X016267Y020121D02*
X014357Y020121D01*
X014357Y020280D02*
X016267Y020280D01*
X016267Y020438D02*
X014357Y020438D01*
X014411Y020597D02*
X014763Y020597D01*
X014893Y020467D02*
X015282Y020467D01*
X015557Y020743D01*
X015557Y021132D01*
X015282Y021407D01*
X014893Y021407D01*
X014617Y021132D01*
X014617Y020743D01*
X014893Y020467D01*
X014617Y020755D02*
X014557Y020755D01*
X014557Y020914D02*
X014617Y020914D01*
X014617Y021072D02*
X014557Y021072D01*
X014458Y021231D02*
X014716Y021231D01*
X014875Y021389D02*
X014300Y021389D01*
X013875Y021389D02*
X012750Y021389D01*
X012732Y021407D02*
X012343Y021407D01*
X012067Y021132D01*
X012067Y020743D01*
X012343Y020467D01*
X012732Y020467D01*
X013007Y020743D01*
X013007Y021132D01*
X012732Y021407D01*
X012908Y021231D02*
X013716Y021231D01*
X013617Y021072D02*
X013007Y021072D01*
X013007Y020914D02*
X013617Y020914D01*
X013617Y020755D02*
X013007Y020755D01*
X012861Y020597D02*
X013763Y020597D01*
X014017Y020438D02*
X006759Y020438D01*
X006749Y020427D02*
X007047Y020726D01*
X007047Y020919D01*
X006556Y020919D01*
X006556Y020956D01*
X007047Y020956D01*
X007047Y021149D01*
X006749Y021447D01*
X006556Y021447D01*
X006556Y020956D01*
X006519Y020956D01*
X006519Y021447D01*
X006326Y021447D01*
X006027Y021149D01*
X006027Y020956D01*
X006519Y020956D01*
X006519Y020919D01*
X006556Y020919D01*
X006556Y020427D01*
X006749Y020427D01*
X006556Y020438D02*
X006519Y020438D01*
X006519Y020427D02*
X006519Y020919D01*
X006027Y020919D01*
X006027Y020726D01*
X006326Y020427D01*
X006519Y020427D01*
X006519Y020597D02*
X006556Y020597D01*
X006556Y020755D02*
X006519Y020755D01*
X006519Y020914D02*
X006556Y020914D01*
X006556Y021072D02*
X006519Y021072D01*
X006519Y021231D02*
X006556Y021231D01*
X006556Y021389D02*
X006519Y021389D01*
X006268Y021389D02*
X005750Y021389D01*
X005732Y021407D02*
X005343Y021407D01*
X005067Y021132D01*
X005067Y020743D01*
X005343Y020467D01*
X005732Y020467D01*
X006007Y020743D01*
X006007Y021132D01*
X005732Y021407D01*
X005908Y021231D02*
X006110Y021231D01*
X006027Y021072D02*
X006007Y021072D01*
X006007Y020914D02*
X006027Y020914D01*
X006027Y020755D02*
X006007Y020755D01*
X005861Y020597D02*
X006157Y020597D01*
X006315Y020438D02*
X001117Y020438D01*
X001117Y020280D02*
X014017Y020280D01*
X014017Y020121D02*
X001117Y020121D01*
X001117Y019963D02*
X014017Y019963D01*
X014017Y019804D02*
X001117Y019804D01*
X001117Y019645D02*
X014017Y019645D01*
X014017Y019487D02*
X001117Y019487D01*
X001117Y019328D02*
X014017Y019328D01*
X014017Y019170D02*
X001117Y019170D01*
X001117Y020597D02*
X005213Y020597D01*
X005067Y020755D02*
X001117Y020755D01*
X001117Y020914D02*
X005067Y020914D01*
X005067Y021072D02*
X001130Y021072D01*
X001181Y021231D02*
X005166Y021231D01*
X005325Y021389D02*
X001265Y021389D01*
X001400Y021548D02*
X021951Y021548D01*
X022004Y021389D02*
X021300Y021389D01*
X021282Y021407D02*
X020893Y021407D01*
X020617Y021132D01*
X020617Y020743D01*
X020893Y020467D01*
X021282Y020467D01*
X021557Y020743D01*
X021557Y021132D01*
X021282Y021407D01*
X021458Y021231D02*
X022007Y021231D01*
X022041Y021072D02*
X021557Y021072D01*
X021557Y020914D02*
X022083Y020914D01*
X022169Y020755D02*
X021557Y020755D01*
X021411Y020597D02*
X022273Y020597D01*
X022432Y020438D02*
X016607Y020438D01*
X016607Y020280D02*
X022590Y020280D01*
X022749Y020121D02*
X016607Y020121D01*
X016607Y019963D02*
X022872Y019963D01*
X022954Y019804D02*
X016607Y019804D01*
X016607Y019645D02*
X022996Y019645D01*
X023007Y019487D02*
X016703Y019487D01*
X016893Y020467D02*
X017282Y020467D01*
X017557Y020743D01*
X017557Y021132D01*
X017282Y021407D01*
X016893Y021407D01*
X016617Y021132D01*
X016617Y020743D01*
X016893Y020467D01*
X016763Y020597D02*
X016607Y020597D01*
X016607Y020755D02*
X016617Y020755D01*
X016607Y020914D02*
X016617Y020914D01*
X016617Y021072D02*
X016557Y021072D01*
X016458Y021231D02*
X016716Y021231D01*
X016875Y021389D02*
X016300Y021389D01*
X015875Y021389D02*
X015300Y021389D01*
X015458Y021231D02*
X015716Y021231D01*
X015617Y021072D02*
X015557Y021072D01*
X015557Y020914D02*
X015617Y020914D01*
X015617Y020755D02*
X015557Y020755D01*
X015411Y020597D02*
X015763Y020597D01*
X017300Y021389D02*
X017875Y021389D01*
X017893Y021407D02*
X017617Y021132D01*
X017617Y020743D01*
X017893Y020467D01*
X018282Y020467D01*
X018557Y020743D01*
X018557Y021132D01*
X018282Y021407D01*
X017893Y021407D01*
X017716Y021231D02*
X017458Y021231D01*
X017557Y021072D02*
X017617Y021072D01*
X017617Y020914D02*
X017557Y020914D01*
X017557Y020755D02*
X017617Y020755D01*
X017763Y020597D02*
X017411Y020597D01*
X018411Y020597D02*
X018763Y020597D01*
X018893Y020467D02*
X018617Y020743D01*
X018617Y021132D01*
X018893Y021407D01*
X019282Y021407D01*
X019557Y021132D01*
X019557Y020743D01*
X019282Y020467D01*
X018893Y020467D01*
X018617Y020755D02*
X018557Y020755D01*
X018557Y020914D02*
X018617Y020914D01*
X018617Y021072D02*
X018557Y021072D01*
X018458Y021231D02*
X018716Y021231D01*
X018875Y021389D02*
X018300Y021389D01*
X019300Y021389D02*
X019875Y021389D01*
X019893Y021407D02*
X019617Y021132D01*
X019617Y020743D01*
X019893Y020467D01*
X020282Y020467D01*
X020557Y020743D01*
X020557Y021132D01*
X020282Y021407D01*
X019893Y021407D01*
X019716Y021231D02*
X019458Y021231D01*
X019557Y021072D02*
X019617Y021072D01*
X019617Y020914D02*
X019557Y020914D01*
X019557Y020755D02*
X019617Y020755D01*
X019763Y020597D02*
X019411Y020597D01*
X020411Y020597D02*
X020763Y020597D01*
X020617Y020755D02*
X020557Y020755D01*
X020557Y020914D02*
X020617Y020914D01*
X020617Y021072D02*
X020557Y021072D01*
X020458Y021231D02*
X020716Y021231D01*
X020875Y021389D02*
X020300Y021389D01*
X021785Y021706D02*
X001684Y021706D01*
X006806Y021389D02*
X007325Y021389D01*
X007343Y021407D02*
X007067Y021132D01*
X007067Y020743D01*
X007343Y020467D01*
X007732Y020467D01*
X008007Y020743D01*
X008007Y021132D01*
X007732Y021407D01*
X007343Y021407D01*
X007166Y021231D02*
X006965Y021231D01*
X007047Y021072D02*
X007067Y021072D01*
X007067Y020914D02*
X007047Y020914D01*
X007047Y020755D02*
X007067Y020755D01*
X007213Y020597D02*
X006918Y020597D01*
X007750Y021389D02*
X008325Y021389D01*
X008343Y021407D02*
X008067Y021132D01*
X008067Y020743D01*
X008343Y020467D01*
X008732Y020467D01*
X009007Y020743D01*
X009007Y021132D01*
X008732Y021407D01*
X008343Y021407D01*
X008166Y021231D02*
X007908Y021231D01*
X008007Y021072D02*
X008067Y021072D01*
X008067Y020914D02*
X008007Y020914D01*
X008007Y020755D02*
X008067Y020755D01*
X008213Y020597D02*
X007861Y020597D01*
X008750Y021389D02*
X009325Y021389D01*
X009343Y021407D02*
X009067Y021132D01*
X009067Y020743D01*
X009343Y020467D01*
X009732Y020467D01*
X010007Y020743D01*
X010007Y021132D01*
X009732Y021407D01*
X009343Y021407D01*
X009166Y021231D02*
X008908Y021231D01*
X009007Y021072D02*
X009067Y021072D01*
X009067Y020914D02*
X009007Y020914D01*
X009007Y020755D02*
X009067Y020755D01*
X009213Y020597D02*
X008861Y020597D01*
X009861Y020597D02*
X010213Y020597D01*
X010343Y020467D02*
X010067Y020743D01*
X010067Y021132D01*
X010343Y021407D01*
X010732Y021407D01*
X011007Y021132D01*
X011007Y020743D01*
X010732Y020467D01*
X010343Y020467D01*
X010067Y020755D02*
X010007Y020755D01*
X010007Y020914D02*
X010067Y020914D01*
X010067Y021072D02*
X010007Y021072D01*
X009908Y021231D02*
X010166Y021231D01*
X010325Y021389D02*
X009750Y021389D01*
X010750Y021389D02*
X011325Y021389D01*
X011343Y021407D02*
X011067Y021132D01*
X011067Y020743D01*
X011343Y020467D01*
X011732Y020467D01*
X012007Y020743D01*
X012007Y021132D01*
X011732Y021407D01*
X011343Y021407D01*
X011166Y021231D02*
X010908Y021231D01*
X011007Y021072D02*
X011067Y021072D01*
X011067Y020914D02*
X011007Y020914D01*
X011007Y020755D02*
X011067Y020755D01*
X011213Y020597D02*
X010861Y020597D01*
X011861Y020597D02*
X012213Y020597D01*
X012067Y020755D02*
X012007Y020755D01*
X012007Y020914D02*
X012067Y020914D01*
X012067Y021072D02*
X012007Y021072D01*
X011908Y021231D02*
X012166Y021231D01*
X012325Y021389D02*
X011750Y021389D01*
X007448Y017426D02*
X007370Y017426D01*
X007747Y015647D02*
X007477Y015378D01*
X007477Y015187D01*
X007477Y014997D01*
X007747Y014727D01*
X007937Y014727D01*
X007937Y015187D01*
X007937Y015187D01*
X007477Y015187D01*
X007937Y015187D01*
X007937Y015187D01*
X007937Y014727D01*
X008128Y014727D01*
X008397Y014997D01*
X008397Y015187D01*
X007938Y015187D01*
X007938Y015187D01*
X008397Y015187D01*
X008397Y015378D01*
X008128Y015647D01*
X007937Y015647D01*
X007747Y015647D01*
X007623Y015523D02*
X007195Y015523D01*
X007111Y015607D02*
X006763Y015607D01*
X006517Y015361D01*
X006517Y015013D01*
X006763Y014767D01*
X007111Y014767D01*
X007357Y015013D01*
X007357Y015361D01*
X007111Y015607D01*
X007354Y015365D02*
X007477Y015365D01*
X007477Y015206D02*
X007357Y015206D01*
X007357Y015048D02*
X007477Y015048D01*
X007585Y014889D02*
X007233Y014889D01*
X007744Y014731D02*
X001117Y014731D01*
X001117Y014889D02*
X006642Y014889D01*
X006517Y015048D02*
X001117Y015048D01*
X001117Y015206D02*
X006517Y015206D01*
X006521Y015365D02*
X001117Y015365D01*
X001117Y015523D02*
X006679Y015523D01*
X007937Y015523D02*
X007937Y015523D01*
X007937Y015647D02*
X007937Y015188D01*
X007937Y015188D01*
X007937Y015647D01*
X008252Y015523D02*
X012267Y015523D01*
X012267Y015365D02*
X008397Y015365D01*
X008397Y015206D02*
X012267Y015206D01*
X012267Y015048D02*
X011893Y015048D01*
X011853Y015087D02*
X011522Y015087D01*
X011287Y014853D01*
X011287Y014522D01*
X011522Y014287D01*
X011853Y014287D01*
X012087Y014522D01*
X012087Y014853D01*
X011853Y015087D01*
X012051Y014889D02*
X012267Y014889D01*
X012267Y014731D02*
X012087Y014731D01*
X012087Y014572D02*
X012267Y014572D01*
X012267Y014414D02*
X011979Y014414D01*
X012015Y014255D02*
X001117Y014255D01*
X001117Y014414D02*
X011395Y014414D01*
X011287Y014572D02*
X001117Y014572D01*
X001117Y014096D02*
X011856Y014096D01*
X012178Y013938D02*
X014871Y013938D01*
X014848Y014414D02*
X012607Y014414D01*
X012607Y014572D02*
X015006Y014572D01*
X015368Y014572D02*
X016237Y014572D01*
X016078Y014731D02*
X012607Y014731D01*
X012607Y014889D02*
X016037Y014889D01*
X016037Y015048D02*
X012607Y015048D01*
X012607Y015206D02*
X016141Y015206D01*
X016837Y014096D02*
X018998Y014096D01*
X020680Y014414D02*
X022416Y014414D01*
X022597Y014414D02*
X022597Y014414D01*
X022597Y014255D02*
X022597Y014255D01*
X022597Y014096D02*
X022597Y014096D01*
X022597Y013938D02*
X022597Y013938D01*
X022597Y013779D02*
X022597Y013779D01*
X022882Y013779D02*
X023007Y013779D01*
X023007Y013621D02*
X022025Y013621D01*
X022049Y013462D02*
X023007Y013462D01*
X023007Y013304D02*
X022001Y013304D01*
X021793Y013145D02*
X023007Y013145D01*
X022978Y013938D02*
X023007Y013938D01*
X022995Y014096D02*
X023007Y014096D01*
X023007Y014255D02*
X022944Y014255D01*
X023007Y014414D02*
X022777Y014414D01*
X023007Y014572D02*
X020774Y014572D01*
X020789Y014731D02*
X023007Y014731D01*
X023007Y014889D02*
X020739Y014889D01*
X020703Y012828D02*
X020750Y012828D01*
X020750Y012670D02*
X020703Y012670D01*
X020703Y012352D02*
X020750Y012352D01*
X020750Y012194D02*
X020703Y012194D01*
X021094Y012194D02*
X023007Y012194D01*
X023007Y012352D02*
X021187Y012352D01*
X018117Y009023D02*
X015587Y009023D01*
X015363Y008547D02*
X018557Y008547D01*
X020392Y008547D02*
X020392Y008547D01*
X020392Y008389D02*
X020392Y008389D01*
X020392Y008706D02*
X020392Y008706D01*
X020740Y008072D02*
X023007Y008072D01*
X023007Y008230D02*
X021904Y008230D01*
X022048Y008389D02*
X023007Y008389D01*
X023007Y008547D02*
X022089Y008547D01*
X023007Y007913D02*
X020523Y007913D01*
X020732Y007755D02*
X023007Y007755D01*
X023007Y007596D02*
X020789Y007596D01*
X020781Y007438D02*
X023007Y007438D01*
X023007Y007279D02*
X020696Y007279D01*
X020081Y006486D02*
X019804Y006486D01*
X019392Y006328D02*
X019392Y006328D01*
X019392Y006169D02*
X019392Y006169D01*
X019392Y006011D02*
X019392Y006011D01*
X019392Y005900D02*
X019392Y005538D01*
X019392Y005538D01*
X019392Y005900D01*
X019392Y005852D02*
X019392Y005852D01*
X019392Y005694D02*
X019392Y005694D01*
X019392Y005535D02*
X019392Y005535D01*
X019392Y005377D02*
X019392Y005377D01*
X019392Y005218D02*
X019392Y005218D01*
X018987Y005705D02*
X019018Y005767D01*
X019058Y005822D01*
X019107Y005871D01*
X019163Y005911D01*
X019214Y005937D01*
X019163Y005963D01*
X019107Y006004D01*
X019058Y006052D01*
X019018Y006108D01*
X018987Y006169D01*
X019100Y006011D02*
X017001Y006011D01*
X016843Y005852D02*
X019088Y005852D01*
X017313Y006803D02*
X016837Y006803D01*
X011505Y013304D02*
X001117Y013304D01*
X001117Y013462D02*
X011347Y013462D01*
X011287Y013621D02*
X001117Y013621D01*
X001117Y013779D02*
X011287Y013779D01*
X011372Y013938D02*
X001117Y013938D01*
X001117Y015682D02*
X012267Y015682D01*
X012267Y015840D02*
X001117Y015840D01*
X007937Y015365D02*
X007937Y015365D01*
X007937Y015206D02*
X007937Y015206D01*
X007937Y015048D02*
X007937Y015048D01*
X007937Y014889D02*
X007937Y014889D01*
X007937Y014731D02*
X007937Y014731D01*
X008131Y014731D02*
X011287Y014731D01*
X011324Y014889D02*
X008290Y014889D01*
X008397Y015048D02*
X011482Y015048D01*
X012607Y016792D02*
X015017Y016792D01*
X014859Y016950D02*
X012607Y016950D01*
X020703Y018536D02*
X020750Y018536D01*
X020750Y018694D02*
X020703Y018694D01*
X020703Y019011D02*
X020750Y019011D01*
X020750Y019170D02*
X020703Y019170D01*
X021190Y018694D02*
X023007Y018694D01*
X023007Y018536D02*
X021101Y018536D01*
X021691Y017715D02*
X021691Y017318D01*
X021691Y017318D01*
X021691Y017715D01*
X021691Y017584D02*
X021691Y017584D01*
X021691Y017426D02*
X021691Y017426D01*
X021691Y017267D02*
X021691Y017267D01*
X021691Y017109D02*
X021691Y017109D01*
X022803Y017584D02*
X023007Y017584D01*
X023007Y017743D02*
X022926Y017743D01*
X022955Y017901D02*
X023007Y017901D01*
X023007Y018060D02*
X022912Y018060D01*
M02*
