%
M48
M72
T01C0.0236
T02C0.0315
T03C0.0320
T04C0.0394
T05C0.0400
T06C0.0413
T07C0.0787
%
T01
X20754Y3803
X21659Y4370
X20754Y7630
X21659Y8197
X20754Y12553
X21659Y13120
X20754Y16380
X21659Y16947
T02
X2250Y8250
X18455Y4600
X18455Y5400
X18455Y6200
X18455Y7000
X19455Y5000
X19455Y5800
X19455Y6600
X19455Y7400
X18455Y13350
X18455Y14150
X18455Y14950
X18455Y15750
X19455Y13750
X19455Y14550
X19455Y15350
X19455Y16150
T03
X10750Y9250
X10750Y7250
X10750Y8250
X14250Y8000
X14250Y5000
X14250Y16250
X14250Y13250
X6000Y7250
X7000Y7250
X6000Y14250
X7000Y14250
X6900Y9750
X6100Y9750
X6900Y16750
X6100Y16750
X15500Y5750
X15500Y2750
X15500Y14000
X15500Y11000
X15500Y18250
X15500Y15250
X15500Y10000
X15500Y7000
X10750Y17750
X10750Y15750
X10750Y16750
X10750Y13750
X10750Y11750
X10750Y12750
X10750Y5250
X10750Y3250
X10750Y4250
T04
X16150Y20000
X15200Y1000
X17150Y20000
X18150Y20000
X19150Y20000
X20150Y20000
X15150Y20000
X14150Y20000
X13150Y20000
X11600Y20000
X10600Y20000
X9600Y20000
X8600Y20000
X7600Y20000
X6600Y20000
X5600Y20000
X4600Y20000
X16200Y1000
X17200Y1000
X18200Y1000
X19200Y1000
X20200Y1000
X13200Y1000
X12200Y1000
X11200Y1000
X10200Y1000
X9200Y1000
X8200Y1000
T05
X4030Y1860
X4030Y3640
X1470Y1860
X1470Y3640
T06
X17585Y3638
X17585Y8362
X19789Y2833
X19789Y9167
X17585Y12388
X17585Y17112
X19789Y11583
X19789Y17917
T07
X2250Y5650
X2250Y10850
M30
