G75*
G70*
%OFA0B0*%
%FSLAX24Y24*%
%IPPOS*%
%LPD*%
%AMOC8*
5,1,8,0,0,1.08239X$1,22.5*
%
%ADD10C,0.0040*%
%ADD11C,0.0000*%
D10*
X004707Y006913D02*
X004707Y007143D01*
X004784Y007220D01*
X005091Y007220D01*
X005168Y007143D01*
X005168Y006913D01*
X004707Y006913D01*
X004784Y007373D02*
X004937Y007373D01*
X005014Y007450D01*
X005014Y007603D01*
X004937Y007680D01*
X004861Y007680D01*
X004861Y007373D01*
X004784Y007373D02*
X004707Y007450D01*
X004707Y007603D01*
X004707Y007834D02*
X004707Y008064D01*
X004784Y008140D01*
X004861Y008064D01*
X004861Y007910D01*
X004937Y007834D01*
X005014Y007910D01*
X005014Y008140D01*
X005014Y008294D02*
X005014Y008371D01*
X004707Y008371D01*
X004707Y008447D02*
X004707Y008294D01*
X004784Y008601D02*
X004707Y008678D01*
X004707Y008908D01*
X004631Y008908D02*
X005014Y008908D01*
X005014Y008678D01*
X004937Y008601D01*
X004784Y008601D01*
X004554Y008754D02*
X004554Y008831D01*
X004631Y008908D01*
X004707Y009061D02*
X005014Y009061D01*
X005014Y009291D01*
X004937Y009368D01*
X004707Y009368D01*
X004707Y009982D02*
X004707Y010212D01*
X004784Y010289D01*
X004937Y010289D01*
X005014Y010212D01*
X005014Y009982D01*
X005168Y009982D02*
X004707Y009982D01*
X004784Y010442D02*
X004707Y010519D01*
X004707Y010749D01*
X004631Y010749D02*
X004554Y010672D01*
X004554Y010596D01*
X004631Y010749D02*
X005014Y010749D01*
X005014Y010442D02*
X004784Y010442D01*
X005707Y010442D02*
X005707Y010289D01*
X005707Y010366D02*
X006014Y010366D01*
X006014Y010289D01*
X006014Y010135D02*
X005707Y010135D01*
X005707Y009905D01*
X005784Y009829D01*
X006014Y009829D01*
X006014Y009675D02*
X006014Y009445D01*
X005937Y009368D01*
X005784Y009368D01*
X005707Y009445D01*
X005707Y009675D01*
X006168Y009675D01*
X006014Y009215D02*
X006014Y009138D01*
X005861Y008985D01*
X006014Y008985D02*
X005707Y008985D01*
X005707Y008831D02*
X006014Y008831D01*
X006168Y008678D01*
X006014Y008524D01*
X005707Y008524D01*
X005937Y008524D02*
X005937Y008831D01*
X005244Y008371D02*
X005168Y008371D01*
X006168Y010366D02*
X006244Y010366D01*
X006014Y010596D02*
X006014Y010826D01*
X005937Y010903D01*
X005707Y010903D01*
X005784Y011056D02*
X005707Y011133D01*
X005707Y011286D01*
X005784Y011363D01*
X005937Y011363D01*
X006014Y011286D01*
X006014Y011133D01*
X005937Y011056D01*
X005784Y011056D01*
X005707Y010596D02*
X006014Y010596D01*
X005168Y011363D02*
X004707Y011363D01*
X004861Y011516D01*
X004707Y011670D01*
X005168Y011670D01*
X005014Y011900D02*
X005014Y012053D01*
X004937Y012130D01*
X004707Y012130D01*
X004707Y011900D01*
X004784Y011823D01*
X004861Y011900D01*
X004861Y012130D01*
X005014Y012284D02*
X004707Y012437D01*
X005014Y012591D01*
X005014Y012744D02*
X005014Y012821D01*
X004707Y012821D01*
X004707Y012897D02*
X004707Y012744D01*
X004784Y013051D02*
X004707Y013128D01*
X004707Y013358D01*
X004707Y013511D02*
X004707Y013665D01*
X004707Y013588D02*
X005168Y013588D01*
X005168Y013511D01*
X005014Y013358D02*
X005014Y013128D01*
X004937Y013051D01*
X004784Y013051D01*
X005168Y012821D02*
X005244Y012821D01*
X005707Y012744D02*
X005937Y012744D01*
X006014Y012667D01*
X006014Y012437D01*
X005707Y012437D01*
X005784Y012284D02*
X006091Y012284D01*
X006168Y012207D01*
X006168Y012054D01*
X006091Y011977D01*
X005784Y011977D01*
X005707Y012054D01*
X005707Y012207D01*
X005784Y012284D01*
X005784Y012898D02*
X005937Y012898D01*
X006014Y012974D01*
X006014Y013128D01*
X005937Y013204D01*
X005861Y013204D01*
X005861Y012898D01*
X005784Y012898D02*
X005707Y012974D01*
X005707Y013128D01*
X005707Y013358D02*
X005861Y013511D01*
X005707Y013665D01*
X006168Y013665D01*
X006014Y013818D02*
X006014Y013895D01*
X005707Y013895D01*
X005707Y013818D02*
X005707Y013972D01*
X005707Y014125D02*
X006014Y014125D01*
X005861Y014125D02*
X006014Y014279D01*
X006014Y014355D01*
X005937Y014509D02*
X005784Y014509D01*
X005707Y014586D01*
X005707Y014739D01*
X005861Y014816D02*
X005861Y014509D01*
X005937Y014509D02*
X006014Y014586D01*
X006014Y014739D01*
X005937Y014816D01*
X005861Y014816D01*
X005784Y015430D02*
X005707Y015506D01*
X005707Y015660D01*
X005784Y015736D01*
X005861Y015736D01*
X005937Y015660D01*
X005937Y015506D01*
X006014Y015430D01*
X006091Y015430D01*
X006168Y015506D01*
X006168Y015660D01*
X006091Y015736D01*
X006168Y015890D02*
X005707Y015890D01*
X005937Y015890D02*
X006014Y015967D01*
X006014Y016120D01*
X005937Y016197D01*
X005707Y016197D01*
X005707Y016350D02*
X005707Y016504D01*
X005707Y016427D02*
X006014Y016427D01*
X006014Y016350D01*
X006168Y016427D02*
X006244Y016427D01*
X005937Y016657D02*
X006014Y016734D01*
X006014Y016887D01*
X005937Y016964D01*
X005861Y016964D01*
X005861Y016657D01*
X005937Y016657D02*
X005784Y016657D01*
X005707Y016734D01*
X005707Y016887D01*
X005707Y017117D02*
X005707Y017271D01*
X005707Y017194D02*
X006168Y017194D01*
X006168Y017117D01*
X005937Y017424D02*
X005784Y017424D01*
X005707Y017501D01*
X005707Y017731D01*
X006168Y017731D01*
X006014Y017731D02*
X006014Y017501D01*
X005937Y017424D01*
X005168Y017501D02*
X005168Y017578D01*
X004707Y017578D01*
X004707Y017654D02*
X004707Y017501D01*
X004784Y017348D02*
X004937Y017348D01*
X005014Y017271D01*
X005014Y017117D01*
X004937Y017041D01*
X004784Y017041D01*
X004707Y017117D01*
X004707Y017271D01*
X004784Y017348D01*
X004784Y017808D02*
X004707Y017885D01*
X004707Y018038D01*
X004784Y018115D01*
X004937Y018115D01*
X005014Y018038D01*
X005014Y017885D01*
X004937Y017808D01*
X004784Y017808D01*
X004784Y018268D02*
X004707Y018345D01*
X004707Y018575D01*
X004631Y018575D02*
X005014Y018575D01*
X005014Y018345D01*
X004937Y018268D01*
X004784Y018268D01*
X004554Y018422D02*
X004554Y018498D01*
X004631Y018575D01*
X004707Y018729D02*
X004707Y018882D01*
X004707Y018805D02*
X005014Y018805D01*
X005014Y018729D01*
X005168Y018805D02*
X005244Y018805D01*
X004937Y019035D02*
X005014Y019112D01*
X005014Y019266D01*
X004937Y019342D01*
X004861Y019342D01*
X004861Y019035D01*
X004937Y019035D02*
X004784Y019035D01*
X004707Y019112D01*
X004707Y019266D01*
X004707Y019496D02*
X004707Y019726D01*
X004784Y019803D01*
X004861Y019726D01*
X004861Y019573D01*
X004937Y019496D01*
X005014Y019573D01*
X005014Y019803D01*
X005707Y019726D02*
X005707Y019573D01*
X005784Y019496D01*
X006091Y019803D01*
X005784Y019803D01*
X005707Y019726D01*
X005784Y019496D02*
X006091Y019496D01*
X006168Y019573D01*
X006168Y019726D01*
X006091Y019803D01*
X005784Y019342D02*
X005707Y019342D01*
X005707Y019266D01*
X005784Y019266D01*
X005784Y019342D01*
X005707Y019112D02*
X005707Y018805D01*
X005707Y018959D02*
X006168Y018959D01*
X006014Y018805D01*
X006014Y018652D02*
X005707Y018499D01*
X006014Y018345D01*
X004937Y016887D02*
X004707Y016887D01*
X004937Y016887D02*
X005014Y016810D01*
X005014Y016580D01*
X004707Y016580D01*
X004707Y016427D02*
X004937Y016427D01*
X005014Y016350D01*
X005014Y016197D01*
X004937Y016120D01*
X005014Y015966D02*
X005014Y015736D01*
X004937Y015660D01*
X004784Y015660D01*
X004707Y015736D01*
X004707Y015966D01*
X004707Y016120D02*
X005168Y016120D01*
X004937Y015506D02*
X004861Y015506D01*
X004861Y015199D01*
X004937Y015199D02*
X004784Y015199D01*
X004707Y015276D01*
X004707Y015429D01*
X004937Y015506D02*
X005014Y015429D01*
X005014Y015276D01*
X004937Y015199D01*
X005168Y015046D02*
X005168Y014739D01*
X005168Y014892D02*
X004707Y014892D01*
X004014Y014970D02*
X003784Y014970D01*
X003707Y015046D01*
X003784Y015123D01*
X003707Y015200D01*
X003784Y015276D01*
X004014Y015276D01*
X004014Y015507D02*
X004014Y015660D01*
X003937Y015737D01*
X003707Y015737D01*
X003707Y015507D01*
X003784Y015430D01*
X003861Y015507D01*
X003861Y015737D01*
X004014Y015890D02*
X003707Y016044D01*
X004014Y016197D01*
X004014Y016351D02*
X004014Y016427D01*
X003707Y016427D01*
X003707Y016351D02*
X003707Y016504D01*
X003784Y016734D02*
X003707Y016811D01*
X003784Y016734D02*
X004091Y016734D01*
X004014Y016658D02*
X004014Y016811D01*
X003937Y016964D02*
X004014Y017041D01*
X004014Y017195D01*
X003937Y017271D01*
X003861Y017271D01*
X003861Y016964D01*
X003937Y016964D02*
X003784Y016964D01*
X003707Y017041D01*
X003707Y017195D01*
X003784Y017425D02*
X003707Y017501D01*
X003707Y017732D01*
X003707Y017885D02*
X004168Y017885D01*
X004014Y017962D02*
X004014Y018115D01*
X003937Y018192D01*
X003707Y018192D01*
X003707Y018346D02*
X003707Y018422D01*
X003784Y018422D01*
X003784Y018346D01*
X003707Y018346D01*
X003784Y018576D02*
X003707Y018652D01*
X003707Y018883D01*
X003784Y019036D02*
X003707Y019113D01*
X003707Y019266D01*
X003784Y019343D01*
X003937Y019343D01*
X004014Y019266D01*
X004014Y019113D01*
X003937Y019036D01*
X003784Y019036D01*
X004014Y018883D02*
X004014Y018652D01*
X003937Y018576D01*
X003784Y018576D01*
X004014Y017962D02*
X003937Y017885D01*
X004014Y017732D02*
X004014Y017501D01*
X003937Y017425D01*
X003784Y017425D01*
X004168Y016427D02*
X004244Y016427D01*
X003784Y014816D02*
X003707Y014816D01*
X003707Y014739D01*
X003784Y014739D01*
X003784Y014816D01*
X003784Y014586D02*
X004014Y014586D01*
X003784Y014586D02*
X003707Y014509D01*
X003784Y014433D01*
X003707Y014356D01*
X003784Y014279D01*
X004014Y014279D01*
X004014Y014126D02*
X003784Y014126D01*
X003707Y014049D01*
X003784Y013972D01*
X003707Y013895D01*
X003784Y013819D01*
X004014Y013819D01*
X004014Y013665D02*
X003784Y013665D01*
X003707Y013589D01*
X003784Y013512D01*
X003707Y013435D01*
X003784Y013358D01*
X004014Y013358D01*
X004707Y013895D02*
X004707Y014048D01*
X004707Y013895D02*
X004784Y013818D01*
X004937Y013818D01*
X005014Y013895D01*
X005014Y014048D01*
X004937Y014125D01*
X004861Y014125D01*
X004861Y013818D01*
X005707Y013358D02*
X006168Y013358D01*
X006168Y013895D02*
X006244Y013895D01*
X004014Y019496D02*
X003707Y019496D01*
X003707Y019650D02*
X003937Y019650D01*
X004014Y019727D01*
X003937Y019803D01*
X003707Y019803D01*
X003937Y019650D02*
X004014Y019573D01*
X004014Y019496D01*
D11*
X001937Y000937D02*
X021602Y000937D01*
X021648Y000939D01*
X021694Y000944D01*
X021739Y000953D01*
X021783Y000966D01*
X021826Y000982D01*
X021868Y001001D01*
X021908Y001023D01*
X021946Y001049D01*
X021983Y001077D01*
X022016Y001109D01*
X022048Y001142D01*
X022076Y001179D01*
X022102Y001217D01*
X022124Y001257D01*
X022143Y001299D01*
X022159Y001342D01*
X022172Y001386D01*
X022181Y001431D01*
X022186Y001477D01*
X022188Y001523D01*
X022480Y002230D02*
X022894Y002644D01*
X023187Y003352D02*
X023187Y003687D01*
X023187Y019523D01*
X022894Y020230D02*
X022480Y020644D01*
X022480Y020645D02*
X022438Y020689D01*
X022400Y020735D01*
X022364Y020784D01*
X022331Y020835D01*
X022302Y020887D01*
X022275Y020942D01*
X022252Y020997D01*
X022232Y021055D01*
X022216Y021113D01*
X022203Y021172D01*
X022194Y021231D01*
X022189Y021292D01*
X022187Y021352D01*
X022188Y021352D02*
X022186Y021398D01*
X022181Y021444D01*
X022172Y021489D01*
X022159Y021533D01*
X022143Y021576D01*
X022124Y021618D01*
X022102Y021658D01*
X022076Y021696D01*
X022048Y021733D01*
X022016Y021766D01*
X021983Y021798D01*
X021946Y021826D01*
X021908Y021852D01*
X021868Y021874D01*
X021826Y021893D01*
X021783Y021909D01*
X021739Y021922D01*
X021694Y021931D01*
X021648Y021936D01*
X021602Y021938D01*
X021602Y021937D02*
X001937Y021937D01*
X001877Y021935D01*
X001816Y021930D01*
X001757Y021921D01*
X001698Y021908D01*
X001639Y021892D01*
X001582Y021872D01*
X001527Y021849D01*
X001472Y021822D01*
X001420Y021793D01*
X001369Y021760D01*
X001320Y021724D01*
X001274Y021686D01*
X001230Y021644D01*
X001188Y021600D01*
X001150Y021554D01*
X001114Y021505D01*
X001081Y021454D01*
X001052Y021402D01*
X001025Y021347D01*
X001002Y021292D01*
X000982Y021235D01*
X000966Y021176D01*
X000953Y021117D01*
X000944Y021058D01*
X000939Y020997D01*
X000937Y020937D01*
X000937Y001937D01*
X000939Y001877D01*
X000944Y001816D01*
X000953Y001757D01*
X000966Y001698D01*
X000982Y001639D01*
X001002Y001582D01*
X001025Y001527D01*
X001052Y001472D01*
X001081Y001420D01*
X001114Y001369D01*
X001150Y001320D01*
X001188Y001274D01*
X001230Y001230D01*
X001274Y001188D01*
X001320Y001150D01*
X001369Y001114D01*
X001420Y001081D01*
X001472Y001052D01*
X001527Y001025D01*
X001582Y001002D01*
X001639Y000982D01*
X001698Y000966D01*
X001757Y000953D01*
X001816Y000944D01*
X001877Y000939D01*
X001937Y000937D01*
X022894Y002645D02*
X022936Y002689D01*
X022974Y002735D01*
X023010Y002784D01*
X023043Y002835D01*
X023072Y002887D01*
X023099Y002942D01*
X023122Y002997D01*
X023142Y003055D01*
X023158Y003113D01*
X023171Y003172D01*
X023180Y003231D01*
X023185Y003292D01*
X023187Y003352D01*
X023187Y003437D02*
X023187Y003687D01*
X022480Y002230D02*
X022438Y002186D01*
X022400Y002140D01*
X022364Y002091D01*
X022331Y002040D01*
X022302Y001988D01*
X022275Y001933D01*
X022252Y001878D01*
X022232Y001820D01*
X022216Y001762D01*
X022203Y001703D01*
X022194Y001644D01*
X022189Y001583D01*
X022187Y001523D01*
X023187Y019523D02*
X023185Y019583D01*
X023180Y019644D01*
X023171Y019703D01*
X023158Y019762D01*
X023142Y019820D01*
X023122Y019878D01*
X023099Y019933D01*
X023072Y019988D01*
X023043Y020040D01*
X023010Y020091D01*
X022974Y020140D01*
X022936Y020186D01*
X022894Y020230D01*
M02*
